G04 EAGLE Gerber RS-274X export*
G75*
%MOMM*%
%FSLAX34Y34*%
%LPD*%
%INBottom Copper*%
%IPPOS*%
%AMOC8*
5,1,8,0,0,1.08239X$1,22.5*%
G01*
G04 Define Apertures*
%ADD10R,1.651000X1.651000*%
%ADD11C,1.651000*%
%ADD12C,1.625600*%
%ADD13C,1.148000*%
%ADD14P,1.42962X8X202.5*%
%ADD15C,1.879600*%
%ADD16C,1.778000*%
%ADD17C,1.800000*%
%ADD18C,0.152400*%
G36*
X552716Y10220D02*
X552966Y10392D01*
X553130Y10647D01*
X553180Y10946D01*
X553111Y11241D01*
X552958Y11461D01*
X549867Y14551D01*
X546555Y20289D01*
X544840Y26688D01*
X544840Y33312D01*
X546555Y39711D01*
X549867Y45449D01*
X554551Y50133D01*
X560289Y53445D01*
X566688Y55160D01*
X573312Y55160D01*
X579711Y53445D01*
X585449Y50133D01*
X588539Y47042D01*
X588792Y46875D01*
X589090Y46819D01*
X589386Y46884D01*
X589634Y47060D01*
X589793Y47318D01*
X589840Y47581D01*
X589840Y402419D01*
X589780Y402716D01*
X589608Y402966D01*
X589353Y403130D01*
X589054Y403180D01*
X588759Y403111D01*
X588539Y402958D01*
X585449Y399867D01*
X579711Y396555D01*
X573312Y394840D01*
X566688Y394840D01*
X560289Y396555D01*
X554551Y399867D01*
X549867Y404551D01*
X546555Y410289D01*
X544840Y416688D01*
X544840Y423312D01*
X546555Y429711D01*
X549867Y435449D01*
X552958Y438539D01*
X553125Y438792D01*
X553181Y439090D01*
X553116Y439386D01*
X552940Y439634D01*
X552682Y439793D01*
X552419Y439840D01*
X47581Y439840D01*
X47284Y439780D01*
X47034Y439608D01*
X46870Y439353D01*
X46820Y439054D01*
X46889Y438759D01*
X47042Y438539D01*
X50133Y435449D01*
X53445Y429711D01*
X55160Y423312D01*
X55160Y416688D01*
X53445Y410289D01*
X50133Y404551D01*
X45449Y399867D01*
X39711Y396555D01*
X33312Y394840D01*
X26688Y394840D01*
X20289Y396555D01*
X14551Y399867D01*
X11461Y402958D01*
X11208Y403125D01*
X10910Y403181D01*
X10614Y403116D01*
X10366Y402940D01*
X10207Y402682D01*
X10160Y402419D01*
X10160Y47581D01*
X10220Y47284D01*
X10392Y47034D01*
X10647Y46870D01*
X10946Y46820D01*
X11241Y46889D01*
X11461Y47042D01*
X14551Y50133D01*
X20289Y53445D01*
X26688Y55160D01*
X33312Y55160D01*
X39711Y53445D01*
X45449Y50133D01*
X50133Y45449D01*
X53445Y39711D01*
X55160Y33312D01*
X55160Y26688D01*
X53445Y20289D01*
X50133Y14551D01*
X47042Y11461D01*
X46875Y11208D01*
X46819Y10910D01*
X46884Y10614D01*
X47060Y10366D01*
X47318Y10207D01*
X47581Y10160D01*
X552419Y10160D01*
X552716Y10220D01*
G37*
%LPC*%
G36*
X315125Y407162D02*
X310738Y408979D01*
X307379Y412338D01*
X305562Y416725D01*
X305562Y421475D01*
X307379Y425862D01*
X310738Y429221D01*
X315125Y431038D01*
X319875Y431038D01*
X324262Y429221D01*
X327621Y425862D01*
X329438Y421475D01*
X329438Y416725D01*
X327621Y412338D01*
X324262Y408979D01*
X319875Y407162D01*
X315125Y407162D01*
G37*
G36*
X279725Y407162D02*
X275338Y408979D01*
X271979Y412338D01*
X270162Y416725D01*
X270162Y421475D01*
X271979Y425862D01*
X275338Y429221D01*
X279725Y431038D01*
X284475Y431038D01*
X288862Y429221D01*
X292221Y425862D01*
X294038Y421475D01*
X294038Y416725D01*
X292221Y412338D01*
X288862Y408979D01*
X284475Y407162D01*
X279725Y407162D01*
G37*
G36*
X203525Y407162D02*
X199138Y408979D01*
X195779Y412338D01*
X193962Y416725D01*
X193962Y421475D01*
X195779Y425862D01*
X199138Y429221D01*
X203525Y431038D01*
X208275Y431038D01*
X212662Y429221D01*
X216021Y425862D01*
X217838Y421475D01*
X217838Y416725D01*
X216021Y412338D01*
X212662Y408979D01*
X208275Y407162D01*
X203525Y407162D01*
G37*
G36*
X103762Y403262D02*
X103762Y404875D01*
X105579Y409262D01*
X108938Y412621D01*
X113325Y414438D01*
X114938Y414438D01*
X114938Y403262D01*
X103762Y403262D01*
G37*
G36*
X116462Y403262D02*
X116462Y414438D01*
X118075Y414438D01*
X122462Y412621D01*
X125821Y409262D01*
X127638Y404875D01*
X127638Y403262D01*
X116462Y403262D01*
G37*
G36*
X116462Y390562D02*
X116462Y401738D01*
X127638Y401738D01*
X127638Y400125D01*
X125821Y395738D01*
X122462Y392379D01*
X118075Y390562D01*
X116462Y390562D01*
G37*
G36*
X113325Y390562D02*
X108938Y392379D01*
X105579Y395738D01*
X103762Y400125D01*
X103762Y401738D01*
X114938Y401738D01*
X114938Y390562D01*
X113325Y390562D01*
G37*
G36*
X154432Y369062D02*
X154432Y370422D01*
X156056Y374343D01*
X159057Y377344D01*
X162978Y378968D01*
X164338Y378968D01*
X164338Y369062D01*
X154432Y369062D01*
G37*
G36*
X165862Y369062D02*
X165862Y378968D01*
X167222Y378968D01*
X171143Y377344D01*
X174144Y374343D01*
X175768Y370422D01*
X175768Y369062D01*
X165862Y369062D01*
G37*
G36*
X239178Y357632D02*
X235257Y359256D01*
X232256Y362257D01*
X230632Y366178D01*
X230632Y370422D01*
X232256Y374343D01*
X235257Y377344D01*
X239178Y378968D01*
X243422Y378968D01*
X247343Y377344D01*
X250344Y374343D01*
X251968Y370422D01*
X251968Y366178D01*
X250344Y362257D01*
X247343Y359256D01*
X243422Y357632D01*
X239178Y357632D01*
G37*
G36*
X165862Y357632D02*
X165862Y367538D01*
X175768Y367538D01*
X175768Y366178D01*
X174144Y362257D01*
X171143Y359256D01*
X167222Y357632D01*
X165862Y357632D01*
G37*
G36*
X162978Y357632D02*
X159057Y359256D01*
X156056Y362257D01*
X154432Y366178D01*
X154432Y367538D01*
X164338Y367538D01*
X164338Y357632D01*
X162978Y357632D01*
G37*
G36*
X315125Y330962D02*
X310738Y332779D01*
X307379Y336138D01*
X305562Y340525D01*
X305562Y345275D01*
X307379Y349662D01*
X310738Y353021D01*
X315125Y354838D01*
X319875Y354838D01*
X324262Y353021D01*
X327621Y349662D01*
X329438Y345275D01*
X329438Y340525D01*
X327621Y336138D01*
X324262Y332779D01*
X319875Y330962D01*
X315125Y330962D01*
G37*
G36*
X239178Y332232D02*
X235257Y333856D01*
X232256Y336857D01*
X230632Y340778D01*
X230632Y345022D01*
X232256Y348943D01*
X235257Y351944D01*
X239178Y353568D01*
X243422Y353568D01*
X247343Y351944D01*
X250344Y348943D01*
X251968Y345022D01*
X251968Y340778D01*
X250344Y336857D01*
X247343Y333856D01*
X243422Y332232D01*
X239178Y332232D01*
G37*
G36*
X162978Y332232D02*
X159057Y333856D01*
X156056Y336857D01*
X154432Y340778D01*
X154432Y345022D01*
X156056Y348943D01*
X159057Y351944D01*
X162978Y353568D01*
X167222Y353568D01*
X171143Y351944D01*
X174144Y348943D01*
X175768Y345022D01*
X175768Y340778D01*
X174144Y336857D01*
X171143Y333856D01*
X167222Y332232D01*
X162978Y332232D01*
G37*
G36*
X34353Y125320D02*
X31310Y126581D01*
X28981Y128910D01*
X27720Y131953D01*
X27720Y135247D01*
X28100Y136165D01*
X28158Y136463D01*
X28095Y136759D01*
X27935Y136995D01*
X16698Y148232D01*
X16698Y231368D01*
X105011Y319681D01*
X105179Y319934D01*
X105234Y320232D01*
X105176Y320511D01*
X103762Y323925D01*
X103762Y328675D01*
X105579Y333062D01*
X108938Y336421D01*
X113325Y338238D01*
X118075Y338238D01*
X122462Y336421D01*
X125821Y333062D01*
X127638Y328675D01*
X127638Y323925D01*
X126400Y320935D01*
X126342Y320638D01*
X126404Y320341D01*
X126565Y320105D01*
X151045Y295625D01*
X151297Y295458D01*
X151583Y295402D01*
X154412Y295402D01*
X154709Y295462D01*
X154959Y295634D01*
X155116Y295872D01*
X156056Y298143D01*
X159057Y301144D01*
X162978Y302768D01*
X167222Y302768D01*
X171143Y301144D01*
X174144Y298143D01*
X175768Y294222D01*
X175768Y289978D01*
X174144Y286057D01*
X171143Y283056D01*
X167222Y281432D01*
X162978Y281432D01*
X159057Y283056D01*
X156056Y286057D01*
X155116Y288328D01*
X154946Y288579D01*
X154692Y288745D01*
X154412Y288798D01*
X148532Y288798D01*
X121895Y315435D01*
X121642Y315603D01*
X121344Y315658D01*
X121065Y315600D01*
X118075Y314362D01*
X113325Y314362D01*
X110760Y315425D01*
X110462Y315483D01*
X110165Y315420D01*
X109929Y315260D01*
X23525Y228855D01*
X23358Y228603D01*
X23302Y228317D01*
X23302Y151283D01*
X23362Y150986D01*
X23525Y150745D01*
X32605Y141665D01*
X32858Y141498D01*
X33156Y141442D01*
X33435Y141500D01*
X34353Y141880D01*
X37647Y141880D01*
X40690Y140619D01*
X43019Y138290D01*
X44280Y135247D01*
X44280Y131953D01*
X43019Y128910D01*
X40690Y126581D01*
X37647Y125320D01*
X34353Y125320D01*
G37*
G36*
X239178Y306832D02*
X235257Y308456D01*
X232256Y311457D01*
X230632Y315378D01*
X230632Y319622D01*
X232256Y323543D01*
X235257Y326544D01*
X239178Y328168D01*
X243422Y328168D01*
X247343Y326544D01*
X250344Y323543D01*
X251968Y319622D01*
X251968Y315378D01*
X250344Y311457D01*
X247343Y308456D01*
X243422Y306832D01*
X239178Y306832D01*
G37*
G36*
X162978Y306832D02*
X159057Y308456D01*
X156056Y311457D01*
X154432Y315378D01*
X154432Y319622D01*
X156056Y323543D01*
X159057Y326544D01*
X162978Y328168D01*
X167222Y328168D01*
X171143Y326544D01*
X174144Y323543D01*
X175768Y319622D01*
X175768Y315378D01*
X174144Y311457D01*
X171143Y308456D01*
X167222Y306832D01*
X162978Y306832D01*
G37*
G36*
X27720Y313262D02*
X27720Y314147D01*
X28981Y317190D01*
X31310Y319519D01*
X34353Y320780D01*
X35238Y320780D01*
X35238Y313262D01*
X27720Y313262D01*
G37*
G36*
X36762Y313262D02*
X36762Y320780D01*
X37647Y320780D01*
X40690Y319519D01*
X43019Y317190D01*
X44280Y314147D01*
X44280Y313262D01*
X36762Y313262D01*
G37*
G36*
X457726Y294570D02*
X453525Y296310D01*
X450310Y299525D01*
X448570Y303726D01*
X448570Y308274D01*
X450310Y312475D01*
X453525Y315690D01*
X457726Y317430D01*
X462274Y317430D01*
X466475Y315690D01*
X469690Y312475D01*
X471430Y308274D01*
X471430Y303726D01*
X469690Y299525D01*
X466475Y296310D01*
X462274Y294570D01*
X457726Y294570D01*
G37*
G36*
X285493Y293805D02*
X284005Y295293D01*
X284005Y313907D01*
X285493Y315395D01*
X304107Y315395D01*
X305595Y313907D01*
X305595Y295293D01*
X304107Y293805D01*
X285493Y293805D01*
G37*
G36*
X34353Y304220D02*
X31310Y305481D01*
X28981Y307810D01*
X27720Y310853D01*
X27720Y311738D01*
X35238Y311738D01*
X35238Y304220D01*
X34353Y304220D01*
G37*
G36*
X36762Y304220D02*
X36762Y311738D01*
X44280Y311738D01*
X44280Y310853D01*
X43019Y307810D01*
X40690Y305481D01*
X37647Y304220D01*
X36762Y304220D01*
G37*
G36*
X239178Y281432D02*
X235257Y283056D01*
X232256Y286057D01*
X230632Y289978D01*
X230632Y294222D01*
X232256Y298143D01*
X235257Y301144D01*
X239178Y302768D01*
X243422Y302768D01*
X247343Y301144D01*
X250344Y298143D01*
X251968Y294222D01*
X251968Y289978D01*
X250344Y286057D01*
X247343Y283056D01*
X243422Y281432D01*
X239178Y281432D01*
G37*
G36*
X34353Y279220D02*
X31310Y280481D01*
X28981Y282810D01*
X27720Y285853D01*
X27720Y289147D01*
X28981Y292190D01*
X31310Y294519D01*
X34353Y295780D01*
X37647Y295780D01*
X40690Y294519D01*
X43019Y292190D01*
X44280Y289147D01*
X44280Y285853D01*
X43019Y282810D01*
X40690Y280481D01*
X37647Y279220D01*
X34353Y279220D01*
G37*
G36*
X295562Y280362D02*
X295562Y290395D01*
X296947Y290395D01*
X300915Y288752D01*
X303952Y285715D01*
X305595Y281747D01*
X305595Y280362D01*
X295562Y280362D01*
G37*
G36*
X284005Y280362D02*
X284005Y281747D01*
X285648Y285715D01*
X288685Y288752D01*
X292653Y290395D01*
X294038Y290395D01*
X294038Y280362D01*
X284005Y280362D01*
G37*
G36*
X295562Y268805D02*
X295562Y278838D01*
X305595Y278838D01*
X305595Y277453D01*
X303952Y273485D01*
X300915Y270448D01*
X296947Y268805D01*
X295562Y268805D01*
G37*
G36*
X292653Y268805D02*
X288685Y270448D01*
X285648Y273485D01*
X284005Y277453D01*
X284005Y278838D01*
X294038Y278838D01*
X294038Y268805D01*
X292653Y268805D01*
G37*
G36*
X126525Y229362D02*
X122138Y231179D01*
X118779Y234538D01*
X116962Y238925D01*
X116962Y243675D01*
X118779Y248062D01*
X122138Y251421D01*
X126525Y253238D01*
X131275Y253238D01*
X135662Y251421D01*
X139021Y248062D01*
X140838Y243675D01*
X140838Y238925D01*
X139021Y234538D01*
X135662Y231179D01*
X131275Y229362D01*
X126525Y229362D01*
G37*
G36*
X202725Y229362D02*
X198338Y231179D01*
X194979Y234538D01*
X193162Y238925D01*
X193162Y243675D01*
X194979Y248062D01*
X198338Y251421D01*
X202725Y253238D01*
X207475Y253238D01*
X211862Y251421D01*
X215221Y248062D01*
X217038Y243675D01*
X217038Y238925D01*
X215221Y234538D01*
X211862Y231179D01*
X207475Y229362D01*
X202725Y229362D01*
G37*
G36*
X250212Y219456D02*
X244856Y224812D01*
X244856Y232388D01*
X250212Y237744D01*
X257788Y237744D01*
X263144Y232388D01*
X263144Y224812D01*
X257788Y219456D01*
X250212Y219456D01*
G37*
G36*
X270256Y229362D02*
X270256Y232388D01*
X275612Y237744D01*
X278638Y237744D01*
X278638Y229362D01*
X270256Y229362D01*
G37*
G36*
X280162Y229362D02*
X280162Y237744D01*
X283188Y237744D01*
X288544Y232388D01*
X288544Y229362D01*
X280162Y229362D01*
G37*
G36*
X280162Y219456D02*
X280162Y227838D01*
X288544Y227838D01*
X288544Y224812D01*
X283188Y219456D01*
X280162Y219456D01*
G37*
G36*
X275612Y219456D02*
X270256Y224812D01*
X270256Y227838D01*
X278638Y227838D01*
X278638Y219456D01*
X275612Y219456D01*
G37*
G36*
X124625Y191262D02*
X120238Y193079D01*
X116879Y196438D01*
X115062Y200825D01*
X115062Y205575D01*
X116879Y209962D01*
X120238Y213321D01*
X124625Y215138D01*
X129375Y215138D01*
X133762Y213321D01*
X137121Y209962D01*
X138938Y205575D01*
X138938Y200825D01*
X137121Y196438D01*
X133762Y193079D01*
X129375Y191262D01*
X124625Y191262D01*
G37*
G36*
X457726Y142570D02*
X453525Y144310D01*
X450310Y147525D01*
X449191Y150228D01*
X449021Y150479D01*
X448767Y150645D01*
X448487Y150698D01*
X301832Y150698D01*
X258670Y193861D01*
X258417Y194028D01*
X258119Y194084D01*
X257993Y194056D01*
X250212Y194056D01*
X244856Y199412D01*
X244856Y206988D01*
X250212Y212344D01*
X257788Y212344D01*
X263144Y206988D01*
X263144Y199205D01*
X263116Y199057D01*
X263181Y198761D01*
X263339Y198530D01*
X304345Y157525D01*
X304597Y157358D01*
X304883Y157302D01*
X448487Y157302D01*
X448784Y157362D01*
X449034Y157534D01*
X449191Y157772D01*
X450310Y160475D01*
X453525Y163690D01*
X457726Y165430D01*
X462274Y165430D01*
X466475Y163690D01*
X469690Y160475D01*
X471430Y156274D01*
X471430Y151726D01*
X469690Y147525D01*
X466475Y144310D01*
X462274Y142570D01*
X457726Y142570D01*
G37*
G36*
X34353Y175320D02*
X31310Y176581D01*
X28981Y178910D01*
X27720Y181953D01*
X27720Y185247D01*
X28981Y188290D01*
X31310Y190619D01*
X34353Y191880D01*
X37647Y191880D01*
X40690Y190619D01*
X43019Y188290D01*
X44280Y185247D01*
X44280Y181953D01*
X43019Y178910D01*
X40690Y176581D01*
X37647Y175320D01*
X34353Y175320D01*
G37*
G36*
X172725Y143162D02*
X168338Y144979D01*
X164979Y148338D01*
X163162Y152725D01*
X163162Y157475D01*
X164979Y161862D01*
X168338Y165221D01*
X172725Y167038D01*
X177475Y167038D01*
X181862Y165221D01*
X185221Y161862D01*
X187038Y157475D01*
X187038Y152725D01*
X185221Y148338D01*
X181862Y144979D01*
X177475Y143162D01*
X172725Y143162D01*
G37*
G36*
X248925Y143162D02*
X244538Y144979D01*
X241179Y148338D01*
X239362Y152725D01*
X239362Y157475D01*
X241179Y161862D01*
X244538Y165221D01*
X248925Y167038D01*
X253675Y167038D01*
X258062Y165221D01*
X261421Y161862D01*
X263238Y157475D01*
X263238Y152725D01*
X261421Y148338D01*
X258062Y144979D01*
X253675Y143162D01*
X248925Y143162D01*
G37*
G36*
X398505Y32460D02*
X394263Y34217D01*
X391017Y37463D01*
X389260Y41705D01*
X389260Y46295D01*
X390405Y49060D01*
X390463Y49358D01*
X390400Y49654D01*
X390240Y49890D01*
X353655Y86475D01*
X353403Y86642D01*
X353117Y86698D01*
X208632Y86698D01*
X140255Y155075D01*
X140003Y155242D01*
X139717Y155298D01*
X44104Y155298D01*
X43806Y155238D01*
X43556Y155066D01*
X43400Y154828D01*
X43019Y153910D01*
X40690Y151581D01*
X37647Y150320D01*
X34353Y150320D01*
X31310Y151581D01*
X28981Y153910D01*
X27720Y156953D01*
X27720Y160247D01*
X28981Y163290D01*
X31310Y165619D01*
X34353Y166880D01*
X37647Y166880D01*
X40690Y165619D01*
X43019Y163290D01*
X43400Y162372D01*
X43569Y162121D01*
X43823Y161955D01*
X44104Y161902D01*
X142768Y161902D01*
X211145Y93525D01*
X211397Y93358D01*
X211683Y93302D01*
X356168Y93302D01*
X394910Y54560D01*
X395163Y54393D01*
X395461Y54337D01*
X395740Y54395D01*
X398505Y55540D01*
X403095Y55540D01*
X407337Y53783D01*
X410583Y50537D01*
X412340Y46295D01*
X412340Y41705D01*
X410583Y37463D01*
X407337Y34217D01*
X403095Y32460D01*
X398505Y32460D01*
G37*
G36*
X124625Y115062D02*
X120238Y116879D01*
X116879Y120238D01*
X115062Y124625D01*
X115062Y129375D01*
X116879Y133762D01*
X120238Y137121D01*
X124625Y138938D01*
X129375Y138938D01*
X133762Y137121D01*
X137121Y133762D01*
X138938Y129375D01*
X138938Y124625D01*
X137121Y120238D01*
X133762Y116879D01*
X129375Y115062D01*
X124625Y115062D01*
G37*
G36*
X278505Y32460D02*
X274263Y34217D01*
X271017Y37463D01*
X269260Y41705D01*
X269260Y46295D01*
X271017Y50537D01*
X274263Y53783D01*
X278505Y55540D01*
X283095Y55540D01*
X287337Y53783D01*
X290583Y50537D01*
X292340Y46295D01*
X292340Y41705D01*
X290583Y37463D01*
X287337Y34217D01*
X283095Y32460D01*
X278505Y32460D01*
G37*
G36*
X218460Y44762D02*
X218460Y46295D01*
X220217Y50537D01*
X223463Y53783D01*
X227705Y55540D01*
X229238Y55540D01*
X229238Y44762D01*
X218460Y44762D01*
G37*
G36*
X158505Y32460D02*
X154263Y34217D01*
X151017Y37463D01*
X149260Y41705D01*
X149260Y46295D01*
X151017Y50537D01*
X154263Y53783D01*
X158505Y55540D01*
X163095Y55540D01*
X167337Y53783D01*
X170583Y50537D01*
X172340Y46295D01*
X172340Y41705D01*
X170583Y37463D01*
X167337Y34217D01*
X163095Y32460D01*
X158505Y32460D01*
G37*
G36*
X98460Y44762D02*
X98460Y46295D01*
X100217Y50537D01*
X103463Y53783D01*
X107705Y55540D01*
X109238Y55540D01*
X109238Y44762D01*
X98460Y44762D01*
G37*
G36*
X338460Y44762D02*
X338460Y46295D01*
X340217Y50537D01*
X343463Y53783D01*
X347705Y55540D01*
X349238Y55540D01*
X349238Y44762D01*
X338460Y44762D01*
G37*
G36*
X350762Y44762D02*
X350762Y55540D01*
X352295Y55540D01*
X356537Y53783D01*
X359783Y50537D01*
X361540Y46295D01*
X361540Y44762D01*
X350762Y44762D01*
G37*
G36*
X110762Y44762D02*
X110762Y55540D01*
X112295Y55540D01*
X116537Y53783D01*
X119783Y50537D01*
X121540Y46295D01*
X121540Y44762D01*
X110762Y44762D01*
G37*
G36*
X230762Y44762D02*
X230762Y55540D01*
X232295Y55540D01*
X236537Y53783D01*
X239783Y50537D01*
X241540Y46295D01*
X241540Y44762D01*
X230762Y44762D01*
G37*
G36*
X350762Y32460D02*
X350762Y43238D01*
X361540Y43238D01*
X361540Y41705D01*
X359783Y37463D01*
X356537Y34217D01*
X352295Y32460D01*
X350762Y32460D01*
G37*
G36*
X347705Y32460D02*
X343463Y34217D01*
X340217Y37463D01*
X338460Y41705D01*
X338460Y43238D01*
X349238Y43238D01*
X349238Y32460D01*
X347705Y32460D01*
G37*
G36*
X230762Y32460D02*
X230762Y43238D01*
X241540Y43238D01*
X241540Y41705D01*
X239783Y37463D01*
X236537Y34217D01*
X232295Y32460D01*
X230762Y32460D01*
G37*
G36*
X227705Y32460D02*
X223463Y34217D01*
X220217Y37463D01*
X218460Y41705D01*
X218460Y43238D01*
X229238Y43238D01*
X229238Y32460D01*
X227705Y32460D01*
G37*
G36*
X110762Y32460D02*
X110762Y43238D01*
X121540Y43238D01*
X121540Y41705D01*
X119783Y37463D01*
X116537Y34217D01*
X112295Y32460D01*
X110762Y32460D01*
G37*
G36*
X107705Y32460D02*
X103463Y34217D01*
X100217Y37463D01*
X98460Y41705D01*
X98460Y43238D01*
X109238Y43238D01*
X109238Y32460D01*
X107705Y32460D01*
G37*
%LPD*%
D10*
X294800Y304600D03*
D11*
X294800Y279600D03*
D12*
X165100Y368300D03*
X165100Y342900D03*
X241300Y342900D03*
X241300Y368300D03*
X165100Y317500D03*
X165100Y292100D03*
X241300Y317500D03*
X241300Y292100D03*
D13*
X36000Y133600D03*
X36000Y158600D03*
X36000Y183600D03*
X36000Y312500D03*
X36000Y287500D03*
D14*
X279400Y228600D03*
X254000Y228600D03*
X254000Y203200D03*
D15*
X205900Y419100D03*
X282100Y419100D03*
X317500Y342900D03*
X317500Y419100D03*
X115700Y402500D03*
X115700Y326300D03*
X127000Y203200D03*
X127000Y127000D03*
X128900Y241300D03*
X205100Y241300D03*
X175100Y155100D03*
X251300Y155100D03*
D16*
X460000Y306000D03*
X460000Y154000D03*
D17*
X110000Y44000D03*
X160800Y44000D03*
X230000Y44000D03*
X280800Y44000D03*
X350000Y44000D03*
X400800Y44000D03*
D18*
X303200Y154000D02*
X254000Y203200D01*
X303200Y154000D02*
X460000Y154000D01*
X165100Y292100D02*
X157900Y292100D01*
X116000Y326000D02*
X115700Y326300D01*
X116000Y326000D02*
X149900Y292100D01*
X165100Y292100D01*
X20000Y230000D02*
X20000Y149600D01*
X20000Y230000D02*
X116000Y326000D01*
X20000Y149600D02*
X36000Y133600D01*
X350000Y90000D02*
X350800Y90000D01*
X350000Y90000D02*
X210000Y90000D01*
X141400Y158600D01*
X36000Y158600D01*
X350800Y90000D02*
X354800Y90000D01*
X400800Y44000D01*
M02*
