G04 EAGLE Gerber RS-274X export*
G75*
%MOMM*%
%FSLAX34Y34*%
%LPD*%
%INBottom Copper*%
%IPPOS*%
%AMOC8*
5,1,8,0,0,1.08239X$1,22.5*%
G01*
G04 Define Apertures*
%ADD10R,1.651000X1.651000*%
%ADD11C,1.651000*%
%ADD12C,1.625600*%
%ADD13C,1.148000*%
%ADD14P,1.42962X8X202.5*%
%ADD15C,1.879600*%
%ADD16C,1.778000*%
%ADD17C,1.800000*%
%ADD18C,0.152400*%
D10*
X294800Y304600D03*
D11*
X294800Y279600D03*
D12*
X165100Y368300D03*
X165100Y342900D03*
X241300Y342900D03*
X241300Y368300D03*
X165100Y317500D03*
X165100Y292100D03*
X241300Y317500D03*
X241300Y292100D03*
D13*
X36000Y133600D03*
X36000Y158600D03*
X36000Y183600D03*
X36000Y307500D03*
X36000Y282500D03*
D14*
X279400Y228600D03*
X254000Y228600D03*
X254000Y203200D03*
D15*
X205900Y419100D03*
X282100Y419100D03*
X317500Y342900D03*
X317500Y419100D03*
X115700Y402500D03*
X115700Y326300D03*
X127000Y203200D03*
X127000Y127000D03*
X128900Y241300D03*
X205100Y241300D03*
X175100Y155100D03*
X251300Y155100D03*
D16*
X460000Y306000D03*
X460000Y154000D03*
D17*
X110000Y44000D03*
X160800Y44000D03*
X230000Y44000D03*
X280800Y44000D03*
X350000Y44000D03*
X400800Y44000D03*
D18*
X294800Y244000D02*
X294800Y279600D01*
X294800Y244000D02*
X279400Y228600D01*
X220000Y313400D02*
X165100Y368300D01*
X220000Y313400D02*
X220000Y275000D01*
X290200Y275000D01*
X294800Y279600D01*
X110000Y45922D02*
X110000Y44000D01*
X110000Y45922D02*
X10922Y145000D01*
X110000Y44000D02*
X130000Y20000D01*
X230000Y20000D01*
X230000Y44000D01*
X230000Y20000D02*
X330000Y20000D01*
X350000Y44000D01*
X10922Y145000D02*
X10922Y283422D01*
X36000Y307500D01*
X205900Y403700D02*
X205900Y419100D01*
X205900Y403700D02*
X241300Y368300D01*
X397700Y368300D01*
X460000Y306000D01*
X170000Y420000D02*
X36000Y286000D01*
X36000Y282500D01*
X170000Y420000D02*
X205000Y420000D01*
X205900Y419100D01*
X254000Y203200D02*
X303200Y154000D01*
X460000Y154000D01*
X165100Y292100D02*
X157900Y292100D01*
X116000Y326000D02*
X115700Y326300D01*
X116000Y326000D02*
X149900Y292100D01*
X165100Y292100D01*
X20000Y153600D02*
X36000Y133600D01*
X20000Y153600D02*
X20000Y230000D01*
X116000Y326000D01*
X350800Y90000D02*
X400800Y44000D01*
X350800Y90000D02*
X210000Y90000D01*
X141400Y158600D01*
X36000Y158600D01*
M02*
