G04 EAGLE Gerber RS-274X export*
G75*
%MOMM*%
%FSLAX34Y34*%
%LPD*%
%INTop Copper*%
%IPPOS*%
%AMOC8*
5,1,8,0,0,1.08239X$1,22.5*%
G01*
G04 Define Apertures*
%ADD10R,1.651000X1.651000*%
%ADD11C,1.651000*%
%ADD12C,1.625600*%
%ADD13C,1.148000*%
%ADD14P,1.42962X8X202.5*%
%ADD15C,1.879600*%
%ADD16C,1.778000*%
%ADD17C,1.800000*%
%ADD18C,0.152400*%
G36*
X552716Y10220D02*
X552966Y10392D01*
X553130Y10647D01*
X553180Y10946D01*
X553111Y11241D01*
X552958Y11461D01*
X549867Y14551D01*
X546555Y20289D01*
X544840Y26688D01*
X544840Y33312D01*
X546555Y39711D01*
X549867Y45449D01*
X554551Y50133D01*
X560289Y53445D01*
X566688Y55160D01*
X573312Y55160D01*
X579711Y53445D01*
X585449Y50133D01*
X588539Y47042D01*
X588792Y46875D01*
X589090Y46819D01*
X589386Y46884D01*
X589634Y47060D01*
X589793Y47318D01*
X589840Y47581D01*
X589840Y402419D01*
X589780Y402716D01*
X589608Y402966D01*
X589353Y403130D01*
X589054Y403180D01*
X588759Y403111D01*
X588539Y402958D01*
X585449Y399867D01*
X579711Y396555D01*
X573312Y394840D01*
X566688Y394840D01*
X560289Y396555D01*
X554551Y399867D01*
X549867Y404551D01*
X546555Y410289D01*
X544840Y416688D01*
X544840Y423312D01*
X546555Y429711D01*
X549867Y435449D01*
X552958Y438539D01*
X553125Y438792D01*
X553181Y439090D01*
X553116Y439386D01*
X552940Y439634D01*
X552682Y439793D01*
X552419Y439840D01*
X47581Y439840D01*
X47284Y439780D01*
X47034Y439608D01*
X46870Y439353D01*
X46820Y439054D01*
X46889Y438759D01*
X47042Y438539D01*
X50133Y435449D01*
X53445Y429711D01*
X55160Y423312D01*
X55160Y416688D01*
X53445Y410289D01*
X50133Y404551D01*
X45449Y399867D01*
X39711Y396555D01*
X33312Y394840D01*
X26688Y394840D01*
X20289Y396555D01*
X14551Y399867D01*
X11461Y402958D01*
X11208Y403125D01*
X10910Y403181D01*
X10614Y403116D01*
X10366Y402940D01*
X10207Y402682D01*
X10160Y402419D01*
X10160Y47581D01*
X10220Y47284D01*
X10392Y47034D01*
X10647Y46870D01*
X10946Y46820D01*
X11241Y46889D01*
X11461Y47042D01*
X14551Y50133D01*
X20289Y53445D01*
X26688Y55160D01*
X33312Y55160D01*
X39711Y53445D01*
X45449Y50133D01*
X50133Y45449D01*
X53445Y39711D01*
X55160Y33312D01*
X55160Y26688D01*
X53445Y20289D01*
X50133Y14551D01*
X47042Y11461D01*
X46875Y11208D01*
X46819Y10910D01*
X46884Y10614D01*
X47060Y10366D01*
X47318Y10207D01*
X47581Y10160D01*
X552419Y10160D01*
X552716Y10220D01*
G37*
%LPC*%
G36*
X239178Y332232D02*
X235257Y333856D01*
X232256Y336857D01*
X230632Y340778D01*
X230632Y345022D01*
X232256Y348943D01*
X235257Y351944D01*
X239178Y353568D01*
X243422Y353568D01*
X245693Y352628D01*
X245990Y352570D01*
X246287Y352632D01*
X246523Y352793D01*
X306635Y412905D01*
X306803Y413158D01*
X306858Y413456D01*
X306800Y413735D01*
X306141Y415328D01*
X305972Y415579D01*
X305717Y415745D01*
X305437Y415798D01*
X294163Y415798D01*
X293866Y415738D01*
X293616Y415566D01*
X293459Y415328D01*
X292221Y412338D01*
X288862Y408979D01*
X284475Y407162D01*
X279725Y407162D01*
X275338Y408979D01*
X271979Y412338D01*
X270162Y416725D01*
X270162Y421475D01*
X271979Y425862D01*
X275338Y429221D01*
X279725Y431038D01*
X284475Y431038D01*
X288862Y429221D01*
X292221Y425862D01*
X293459Y422872D01*
X293629Y422621D01*
X293883Y422455D01*
X294163Y422402D01*
X305437Y422402D01*
X305734Y422462D01*
X305984Y422634D01*
X306141Y422872D01*
X307379Y425862D01*
X310738Y429221D01*
X315125Y431038D01*
X319875Y431038D01*
X324262Y429221D01*
X327621Y425862D01*
X329438Y421475D01*
X329438Y416725D01*
X327621Y412338D01*
X324262Y408979D01*
X319875Y407162D01*
X315125Y407162D01*
X312135Y408400D01*
X311838Y408458D01*
X311541Y408396D01*
X311305Y408235D01*
X251193Y348123D01*
X251025Y347870D01*
X250970Y347572D01*
X251028Y347293D01*
X251968Y345022D01*
X251968Y340778D01*
X250344Y336857D01*
X247343Y333856D01*
X243422Y332232D01*
X239178Y332232D01*
G37*
G36*
X193962Y419862D02*
X193962Y421475D01*
X195779Y425862D01*
X199138Y429221D01*
X203525Y431038D01*
X205138Y431038D01*
X205138Y419862D01*
X193962Y419862D01*
G37*
G36*
X206662Y419862D02*
X206662Y431038D01*
X208275Y431038D01*
X212662Y429221D01*
X216021Y425862D01*
X217838Y421475D01*
X217838Y419862D01*
X206662Y419862D01*
G37*
G36*
X206662Y407162D02*
X206662Y418338D01*
X217838Y418338D01*
X217838Y416725D01*
X216021Y412338D01*
X212662Y408979D01*
X208275Y407162D01*
X206662Y407162D01*
G37*
G36*
X203525Y407162D02*
X199138Y408979D01*
X195779Y412338D01*
X193962Y416725D01*
X193962Y418338D01*
X205138Y418338D01*
X205138Y407162D01*
X203525Y407162D01*
G37*
G36*
X113325Y390562D02*
X108938Y392379D01*
X105579Y395738D01*
X103762Y400125D01*
X103762Y404875D01*
X105579Y409262D01*
X108938Y412621D01*
X113325Y414438D01*
X118075Y414438D01*
X122462Y412621D01*
X125821Y409262D01*
X127638Y404875D01*
X127638Y400125D01*
X125821Y395738D01*
X122462Y392379D01*
X118075Y390562D01*
X113325Y390562D01*
G37*
G36*
X230632Y369062D02*
X230632Y370422D01*
X232256Y374343D01*
X235257Y377344D01*
X239178Y378968D01*
X240538Y378968D01*
X240538Y369062D01*
X230632Y369062D01*
G37*
G36*
X162978Y357632D02*
X159057Y359256D01*
X156056Y362257D01*
X154432Y366178D01*
X154432Y370422D01*
X156056Y374343D01*
X159057Y377344D01*
X162978Y378968D01*
X167222Y378968D01*
X171143Y377344D01*
X174144Y374343D01*
X175768Y370422D01*
X175768Y366178D01*
X174144Y362257D01*
X171143Y359256D01*
X167222Y357632D01*
X162978Y357632D01*
G37*
G36*
X242062Y369062D02*
X242062Y378968D01*
X243422Y378968D01*
X247343Y377344D01*
X250344Y374343D01*
X251968Y370422D01*
X251968Y369062D01*
X242062Y369062D01*
G37*
G36*
X242062Y357632D02*
X242062Y367538D01*
X251968Y367538D01*
X251968Y366178D01*
X250344Y362257D01*
X247343Y359256D01*
X243422Y357632D01*
X242062Y357632D01*
G37*
G36*
X239178Y357632D02*
X235257Y359256D01*
X232256Y362257D01*
X230632Y366178D01*
X230632Y367538D01*
X240538Y367538D01*
X240538Y357632D01*
X239178Y357632D01*
G37*
G36*
X285493Y293805D02*
X284005Y295293D01*
X284005Y313907D01*
X285493Y315395D01*
X290736Y315395D01*
X291033Y315455D01*
X291283Y315627D01*
X291447Y315882D01*
X291498Y316157D01*
X291498Y321568D01*
X306635Y336705D01*
X306803Y336958D01*
X306858Y337256D01*
X306800Y337535D01*
X306141Y339128D01*
X305972Y339379D01*
X305717Y339545D01*
X305437Y339598D01*
X268383Y339598D01*
X268086Y339538D01*
X267845Y339375D01*
X251193Y322723D01*
X251025Y322470D01*
X250970Y322172D01*
X251028Y321893D01*
X251968Y319622D01*
X251968Y315378D01*
X250344Y311457D01*
X247343Y308456D01*
X243422Y306832D01*
X239178Y306832D01*
X235257Y308456D01*
X232256Y311457D01*
X231316Y313728D01*
X231146Y313979D01*
X230892Y314145D01*
X230612Y314198D01*
X189132Y314198D01*
X170323Y333007D01*
X170070Y333175D01*
X169772Y333230D01*
X169493Y333173D01*
X167222Y332232D01*
X162978Y332232D01*
X159057Y333856D01*
X156056Y336857D01*
X154432Y340778D01*
X154432Y345022D01*
X156056Y348943D01*
X159057Y351944D01*
X162978Y353568D01*
X167222Y353568D01*
X171143Y351944D01*
X174144Y348943D01*
X175768Y345022D01*
X175768Y340778D01*
X174828Y338507D01*
X174770Y338210D01*
X174832Y337913D01*
X174993Y337677D01*
X191645Y321025D01*
X191897Y320858D01*
X192183Y320802D01*
X230612Y320802D01*
X230909Y320862D01*
X231159Y321034D01*
X231316Y321272D01*
X232256Y323543D01*
X235257Y326544D01*
X239178Y328168D01*
X243422Y328168D01*
X245693Y327228D01*
X245990Y327170D01*
X246287Y327232D01*
X246523Y327393D01*
X265332Y346202D01*
X305437Y346202D01*
X305734Y346262D01*
X305984Y346434D01*
X306141Y346672D01*
X307379Y349662D01*
X310738Y353021D01*
X315125Y354838D01*
X319875Y354838D01*
X324262Y353021D01*
X327621Y349662D01*
X329438Y345275D01*
X329438Y340525D01*
X327621Y336138D01*
X324262Y332779D01*
X319875Y330962D01*
X315125Y330962D01*
X312135Y332200D01*
X311838Y332258D01*
X311541Y332196D01*
X311305Y332035D01*
X298325Y319055D01*
X298158Y318803D01*
X298102Y318517D01*
X298102Y316157D01*
X298162Y315860D01*
X298334Y315610D01*
X298589Y315446D01*
X298864Y315395D01*
X304107Y315395D01*
X305595Y313907D01*
X305595Y295293D01*
X304107Y293805D01*
X285493Y293805D01*
G37*
G36*
X113325Y314362D02*
X108938Y316179D01*
X105579Y319538D01*
X103762Y323925D01*
X103762Y328675D01*
X105579Y333062D01*
X108938Y336421D01*
X113325Y338238D01*
X118075Y338238D01*
X122462Y336421D01*
X125821Y333062D01*
X127638Y328675D01*
X127638Y323925D01*
X125821Y319538D01*
X122462Y316179D01*
X118075Y314362D01*
X113325Y314362D01*
G37*
G36*
X124625Y191262D02*
X120238Y193079D01*
X116879Y196438D01*
X115062Y200825D01*
X115062Y205575D01*
X116879Y209962D01*
X120238Y213321D01*
X124625Y215138D01*
X124836Y215138D01*
X125133Y215198D01*
X125383Y215370D01*
X125547Y215625D01*
X125598Y215900D01*
X125598Y229237D01*
X125538Y229534D01*
X125366Y229784D01*
X125128Y229941D01*
X122138Y231179D01*
X118779Y234538D01*
X116962Y238925D01*
X116962Y243675D01*
X118779Y248062D01*
X122138Y251421D01*
X126525Y253238D01*
X131275Y253238D01*
X134265Y252000D01*
X134562Y251942D01*
X134859Y252004D01*
X135095Y252165D01*
X146232Y263302D01*
X175936Y263302D01*
X176233Y263362D01*
X176483Y263534D01*
X176647Y263789D01*
X176698Y264064D01*
X176698Y288392D01*
X176638Y288690D01*
X176466Y288940D01*
X176211Y289103D01*
X175912Y289154D01*
X175617Y289084D01*
X175372Y288905D01*
X175232Y288684D01*
X174144Y286057D01*
X171143Y283056D01*
X167222Y281432D01*
X162978Y281432D01*
X159057Y283056D01*
X156056Y286057D01*
X154432Y289978D01*
X154432Y294222D01*
X156056Y298143D01*
X159057Y301144D01*
X162978Y302768D01*
X167222Y302768D01*
X171143Y301144D01*
X174144Y298143D01*
X175232Y295516D01*
X175402Y295265D01*
X175656Y295099D01*
X175954Y295046D01*
X176250Y295113D01*
X176496Y295291D01*
X176653Y295550D01*
X176698Y295808D01*
X176698Y300917D01*
X176638Y301214D01*
X176475Y301455D01*
X170323Y307607D01*
X170070Y307775D01*
X169772Y307830D01*
X169493Y307773D01*
X167222Y306832D01*
X162978Y306832D01*
X159057Y308456D01*
X156056Y311457D01*
X154432Y315378D01*
X154432Y319622D01*
X156056Y323543D01*
X159057Y326544D01*
X162978Y328168D01*
X167222Y328168D01*
X171143Y326544D01*
X174144Y323543D01*
X175768Y319622D01*
X175768Y315378D01*
X174828Y313107D01*
X174770Y312810D01*
X174832Y312513D01*
X174993Y312277D01*
X183302Y303968D01*
X183302Y258632D01*
X181368Y256698D01*
X149283Y256698D01*
X148986Y256638D01*
X148745Y256475D01*
X139765Y247495D01*
X139597Y247242D01*
X139542Y246944D01*
X139600Y246665D01*
X140838Y243675D01*
X140838Y238925D01*
X139021Y234538D01*
X135662Y231179D01*
X132672Y229941D01*
X132421Y229772D01*
X132255Y229517D01*
X132202Y229237D01*
X132202Y214476D01*
X132262Y214179D01*
X132434Y213929D01*
X132672Y213772D01*
X133762Y213321D01*
X137121Y209962D01*
X138938Y205575D01*
X138938Y200825D01*
X137121Y196438D01*
X133762Y193079D01*
X129375Y191262D01*
X124625Y191262D01*
G37*
G36*
X34353Y304220D02*
X31310Y305481D01*
X28981Y307810D01*
X27720Y310853D01*
X27720Y314147D01*
X28981Y317190D01*
X31310Y319519D01*
X34353Y320780D01*
X37647Y320780D01*
X40690Y319519D01*
X43019Y317190D01*
X44280Y314147D01*
X44280Y310853D01*
X43019Y307810D01*
X40690Y305481D01*
X37647Y304220D01*
X34353Y304220D01*
G37*
G36*
X448570Y306762D02*
X448570Y308274D01*
X450310Y312475D01*
X453525Y315690D01*
X457726Y317430D01*
X459238Y317430D01*
X459238Y306762D01*
X448570Y306762D01*
G37*
G36*
X460762Y306762D02*
X460762Y317430D01*
X462274Y317430D01*
X466475Y315690D01*
X469690Y312475D01*
X471430Y308274D01*
X471430Y306762D01*
X460762Y306762D01*
G37*
G36*
X460762Y294570D02*
X460762Y305238D01*
X471430Y305238D01*
X471430Y303726D01*
X469690Y299525D01*
X466475Y296310D01*
X462274Y294570D01*
X460762Y294570D01*
G37*
G36*
X457726Y294570D02*
X453525Y296310D01*
X450310Y299525D01*
X448570Y303726D01*
X448570Y305238D01*
X459238Y305238D01*
X459238Y294570D01*
X457726Y294570D01*
G37*
G36*
X239178Y281432D02*
X235257Y283056D01*
X232256Y286057D01*
X230632Y289978D01*
X230632Y294222D01*
X232256Y298143D01*
X235257Y301144D01*
X239178Y302768D01*
X243422Y302768D01*
X247343Y301144D01*
X250344Y298143D01*
X251968Y294222D01*
X251968Y289978D01*
X250344Y286057D01*
X247343Y283056D01*
X243422Y281432D01*
X239178Y281432D01*
G37*
G36*
X27720Y288262D02*
X27720Y289147D01*
X28981Y292190D01*
X31310Y294519D01*
X34353Y295780D01*
X35238Y295780D01*
X35238Y288262D01*
X27720Y288262D01*
G37*
G36*
X36762Y288262D02*
X36762Y295780D01*
X37647Y295780D01*
X40690Y294519D01*
X43019Y292190D01*
X44280Y289147D01*
X44280Y288262D01*
X36762Y288262D01*
G37*
G36*
X292653Y268805D02*
X288685Y270448D01*
X285648Y273485D01*
X284005Y277453D01*
X284005Y281747D01*
X285648Y285715D01*
X288685Y288752D01*
X292653Y290395D01*
X296947Y290395D01*
X300915Y288752D01*
X303952Y285715D01*
X305595Y281747D01*
X305595Y277453D01*
X303952Y273485D01*
X300915Y270448D01*
X296947Y268805D01*
X292653Y268805D01*
G37*
G36*
X36762Y279220D02*
X36762Y286738D01*
X44280Y286738D01*
X44280Y285853D01*
X43019Y282810D01*
X40690Y280481D01*
X37647Y279220D01*
X36762Y279220D01*
G37*
G36*
X34353Y279220D02*
X31310Y280481D01*
X28981Y282810D01*
X27720Y285853D01*
X27720Y286738D01*
X35238Y286738D01*
X35238Y279220D01*
X34353Y279220D01*
G37*
G36*
X250212Y219456D02*
X244709Y224959D01*
X244624Y225083D01*
X244369Y225247D01*
X244094Y225298D01*
X216432Y225298D01*
X211295Y230435D01*
X211042Y230603D01*
X210744Y230658D01*
X210465Y230600D01*
X207475Y229362D01*
X202725Y229362D01*
X198338Y231179D01*
X194979Y234538D01*
X193162Y238925D01*
X193162Y243675D01*
X194979Y248062D01*
X198338Y251421D01*
X202725Y253238D01*
X207475Y253238D01*
X211862Y251421D01*
X215221Y248062D01*
X217038Y243675D01*
X217038Y238925D01*
X215800Y235935D01*
X215742Y235638D01*
X215804Y235341D01*
X215965Y235105D01*
X218945Y232125D01*
X219197Y231958D01*
X219483Y231902D01*
X244094Y231902D01*
X244391Y231962D01*
X244641Y232134D01*
X244711Y232242D01*
X250212Y237744D01*
X257788Y237744D01*
X263144Y232388D01*
X263144Y224812D01*
X257788Y219456D01*
X250212Y219456D01*
G37*
G36*
X275612Y219456D02*
X270256Y224812D01*
X270256Y232388D01*
X275612Y237744D01*
X283188Y237744D01*
X288544Y232388D01*
X288544Y224812D01*
X283188Y219456D01*
X275612Y219456D01*
G37*
G36*
X250212Y194056D02*
X244856Y199412D01*
X244856Y206988D01*
X250212Y212344D01*
X257788Y212344D01*
X263144Y206988D01*
X263144Y199412D01*
X257788Y194056D01*
X250212Y194056D01*
G37*
G36*
X172725Y143162D02*
X168338Y144979D01*
X164979Y148338D01*
X163162Y152725D01*
X163162Y157475D01*
X164400Y160465D01*
X164458Y160762D01*
X164396Y161059D01*
X164235Y161295D01*
X160455Y165075D01*
X160203Y165242D01*
X159917Y165298D01*
X55238Y165298D01*
X55149Y165293D01*
X54012Y165159D01*
X53791Y165271D01*
X53639Y165291D01*
X52834Y166097D01*
X52767Y166156D01*
X40301Y175997D01*
X40031Y176134D01*
X39728Y176154D01*
X39538Y176103D01*
X37647Y175320D01*
X34353Y175320D01*
X31310Y176581D01*
X28981Y178910D01*
X27720Y181953D01*
X27720Y185247D01*
X28981Y188290D01*
X31310Y190619D01*
X34353Y191880D01*
X37647Y191880D01*
X40690Y190619D01*
X43019Y188290D01*
X44280Y185247D01*
X44280Y181933D01*
X44229Y181673D01*
X44292Y181377D01*
X44519Y181081D01*
X55939Y172066D01*
X56209Y171929D01*
X56411Y171902D01*
X162968Y171902D01*
X168905Y165965D01*
X169158Y165797D01*
X169456Y165742D01*
X169735Y165800D01*
X172725Y167038D01*
X177475Y167038D01*
X181862Y165221D01*
X185221Y161862D01*
X187038Y157475D01*
X187038Y152725D01*
X185221Y148338D01*
X181862Y144979D01*
X177475Y143162D01*
X172725Y143162D01*
G37*
G36*
X278505Y32460D02*
X274263Y34217D01*
X271017Y37463D01*
X269260Y41705D01*
X269260Y46295D01*
X271017Y50537D01*
X274263Y53783D01*
X277028Y54928D01*
X277279Y55098D01*
X277445Y55352D01*
X277498Y55632D01*
X277498Y123917D01*
X277438Y124214D01*
X277275Y124455D01*
X257495Y144235D01*
X257242Y144403D01*
X256944Y144458D01*
X256665Y144400D01*
X253675Y143162D01*
X248925Y143162D01*
X244538Y144979D01*
X241179Y148338D01*
X239362Y152725D01*
X239362Y157475D01*
X241179Y161862D01*
X244538Y165221D01*
X248925Y167038D01*
X253675Y167038D01*
X258062Y165221D01*
X261421Y161862D01*
X263238Y157475D01*
X263238Y152725D01*
X262000Y149735D01*
X261942Y149438D01*
X262004Y149141D01*
X262165Y148905D01*
X284102Y126968D01*
X284102Y55632D01*
X284162Y55335D01*
X284334Y55085D01*
X284572Y54928D01*
X287337Y53783D01*
X290583Y50537D01*
X292340Y46295D01*
X292340Y41705D01*
X290583Y37463D01*
X287337Y34217D01*
X283095Y32460D01*
X278505Y32460D01*
G37*
G36*
X34353Y150320D02*
X31310Y151581D01*
X28981Y153910D01*
X27720Y156953D01*
X27720Y160247D01*
X28981Y163290D01*
X31310Y165619D01*
X34353Y166880D01*
X37647Y166880D01*
X40690Y165619D01*
X43019Y163290D01*
X44280Y160247D01*
X44280Y156953D01*
X43019Y153910D01*
X40690Y151581D01*
X37647Y150320D01*
X34353Y150320D01*
G37*
G36*
X457726Y142570D02*
X453525Y144310D01*
X450310Y147525D01*
X448570Y151726D01*
X448570Y156274D01*
X450310Y160475D01*
X453525Y163690D01*
X457726Y165430D01*
X462274Y165430D01*
X466475Y163690D01*
X469690Y160475D01*
X471430Y156274D01*
X471430Y151726D01*
X469690Y147525D01*
X466475Y144310D01*
X462274Y142570D01*
X457726Y142570D01*
G37*
G36*
X34353Y125320D02*
X31310Y126581D01*
X28981Y128910D01*
X27720Y131953D01*
X27720Y135247D01*
X28981Y138290D01*
X31310Y140619D01*
X34353Y141880D01*
X37647Y141880D01*
X40690Y140619D01*
X43019Y138290D01*
X44280Y135247D01*
X44280Y131953D01*
X43019Y128910D01*
X40690Y126581D01*
X37647Y125320D01*
X34353Y125320D01*
G37*
G36*
X158505Y32460D02*
X154263Y34217D01*
X151017Y37463D01*
X149260Y41705D01*
X149260Y46368D01*
X149291Y46529D01*
X149229Y46826D01*
X149068Y47062D01*
X127498Y68632D01*
X127498Y114300D01*
X127438Y114597D01*
X127266Y114847D01*
X127011Y115011D01*
X126736Y115062D01*
X124625Y115062D01*
X120238Y116879D01*
X116879Y120238D01*
X115062Y124625D01*
X115062Y129375D01*
X116879Y133762D01*
X120238Y137121D01*
X124625Y138938D01*
X129375Y138938D01*
X133762Y137121D01*
X137121Y133762D01*
X138938Y129375D01*
X138938Y124625D01*
X137121Y120238D01*
X134325Y117442D01*
X134158Y117189D01*
X134102Y116904D01*
X134102Y71683D01*
X134162Y71386D01*
X134325Y71145D01*
X152436Y53034D01*
X152689Y52866D01*
X152987Y52811D01*
X153283Y52876D01*
X153514Y53034D01*
X154263Y53783D01*
X158505Y55540D01*
X163095Y55540D01*
X167337Y53783D01*
X170583Y50537D01*
X172340Y46295D01*
X172340Y41705D01*
X170583Y37463D01*
X167337Y34217D01*
X163095Y32460D01*
X158505Y32460D01*
G37*
G36*
X398505Y32460D02*
X394263Y34217D01*
X391017Y37463D01*
X389260Y41705D01*
X389260Y46295D01*
X391017Y50537D01*
X394263Y53783D01*
X398505Y55540D01*
X403095Y55540D01*
X407337Y53783D01*
X410583Y50537D01*
X412340Y46295D01*
X412340Y41705D01*
X410583Y37463D01*
X407337Y34217D01*
X403095Y32460D01*
X398505Y32460D01*
G37*
G36*
X347705Y32460D02*
X343463Y34217D01*
X340217Y37463D01*
X338460Y41705D01*
X338460Y46295D01*
X340217Y50537D01*
X343463Y53783D01*
X347705Y55540D01*
X352295Y55540D01*
X356537Y53783D01*
X359783Y50537D01*
X361540Y46295D01*
X361540Y41705D01*
X359783Y37463D01*
X356537Y34217D01*
X352295Y32460D01*
X347705Y32460D01*
G37*
G36*
X107705Y32460D02*
X103463Y34217D01*
X100217Y37463D01*
X98460Y41705D01*
X98460Y46295D01*
X100217Y50537D01*
X103463Y53783D01*
X107705Y55540D01*
X112295Y55540D01*
X116537Y53783D01*
X119783Y50537D01*
X121540Y46295D01*
X121540Y41705D01*
X119783Y37463D01*
X116537Y34217D01*
X112295Y32460D01*
X107705Y32460D01*
G37*
G36*
X227705Y32460D02*
X223463Y34217D01*
X220217Y37463D01*
X218460Y41705D01*
X218460Y46295D01*
X220217Y50537D01*
X223463Y53783D01*
X227705Y55540D01*
X232295Y55540D01*
X236537Y53783D01*
X239783Y50537D01*
X241540Y46295D01*
X241540Y41705D01*
X239783Y37463D01*
X236537Y34217D01*
X232295Y32460D01*
X227705Y32460D01*
G37*
%LPD*%
D10*
X294800Y304600D03*
D11*
X294800Y279600D03*
D12*
X165100Y368300D03*
X165100Y342900D03*
X241300Y342900D03*
X241300Y368300D03*
X165100Y317500D03*
X165100Y292100D03*
X241300Y317500D03*
X241300Y292100D03*
D13*
X36000Y133600D03*
X36000Y158600D03*
X36000Y183600D03*
X36000Y312500D03*
X36000Y287500D03*
D14*
X279400Y228600D03*
X254000Y228600D03*
X254000Y203200D03*
D15*
X205900Y419100D03*
X282100Y419100D03*
X317500Y342900D03*
X317500Y419100D03*
X115700Y402500D03*
X115700Y326300D03*
X127000Y203200D03*
X127000Y127000D03*
X128900Y241300D03*
X205100Y241300D03*
X175100Y155100D03*
X251300Y155100D03*
D16*
X460000Y306000D03*
X460000Y154000D03*
D17*
X110000Y44000D03*
X160800Y44000D03*
X230000Y44000D03*
X280800Y44000D03*
X350000Y44000D03*
X400800Y44000D03*
D18*
X241300Y342900D02*
X317500Y419100D01*
X282100Y419100D01*
X317500Y342900D02*
X294800Y320200D01*
X294800Y304600D01*
X317500Y342900D02*
X266700Y342900D01*
X241300Y317500D01*
X190500Y317500D01*
X165100Y342900D01*
X217800Y228600D02*
X254000Y228600D01*
X217800Y228600D02*
X205100Y241300D01*
X128900Y241300D02*
X128900Y205100D01*
X127000Y203200D01*
X128900Y241300D02*
X147600Y260000D01*
X180000Y260000D01*
X180000Y302600D01*
X165100Y317500D01*
X127000Y127000D02*
X130800Y123200D01*
X130800Y70000D01*
X156800Y44000D01*
X160800Y44000D01*
X250000Y153800D02*
X251300Y155100D01*
X280800Y125600D02*
X280800Y44000D01*
X280800Y125600D02*
X251300Y155100D01*
X55000Y168600D02*
X36000Y183600D01*
X55000Y168600D02*
X161600Y168600D01*
X175100Y155100D01*
M02*
