G04 EAGLE Gerber RS-274X export*
G75*
%MOMM*%
%FSLAX34Y34*%
%LPD*%
%INSilkscreen Top*%
%IPPOS*%
%AMOC8*
5,1,8,0,0,1.08239X$1,22.5*%
G01*
G04 Define Apertures*
%ADD10C,0.101600*%
%ADD11C,0.203200*%
%ADD12C,0.127000*%
%ADD13C,0.152400*%
%ADD14C,0.050800*%
%ADD15C,0.200000*%
G36*
X166184Y386148D02*
X166583Y385006D01*
X167227Y383982D01*
X168082Y383127D01*
X169106Y382483D01*
X170248Y382084D01*
X171450Y381948D01*
X172652Y382084D01*
X173794Y382483D01*
X174818Y383127D01*
X175673Y383982D01*
X176317Y385006D01*
X176716Y386148D01*
X176852Y387350D01*
X176716Y388552D01*
X176317Y389694D01*
X175673Y390718D01*
X174818Y391573D01*
X173794Y392217D01*
X172652Y392616D01*
X171450Y392752D01*
X170248Y392616D01*
X169106Y392217D01*
X168082Y391573D01*
X167227Y390718D01*
X166583Y389694D01*
X166184Y388552D01*
X166048Y387350D01*
X166184Y386148D01*
G37*
G36*
X144796Y99017D02*
X147870Y99017D01*
X150434Y94920D01*
X151974Y94920D01*
X150366Y97362D01*
X149173Y99171D01*
X149447Y99229D01*
X149706Y99304D01*
X149950Y99396D01*
X150179Y99506D01*
X150304Y99580D01*
X150392Y99633D01*
X150591Y99777D01*
X150774Y99938D01*
X150941Y100117D01*
X151092Y100310D01*
X151222Y100513D01*
X151332Y100728D01*
X151422Y100954D01*
X151492Y101190D01*
X151542Y101438D01*
X151572Y101696D01*
X151582Y101966D01*
X151568Y102289D01*
X151526Y102595D01*
X151455Y102882D01*
X151356Y103150D01*
X151228Y103401D01*
X151072Y103633D01*
X150888Y103847D01*
X150675Y104042D01*
X150437Y104217D01*
X150174Y104369D01*
X149888Y104497D01*
X149578Y104602D01*
X149245Y104683D01*
X148887Y104742D01*
X148506Y104777D01*
X148101Y104788D01*
X143458Y104788D01*
X143458Y94920D01*
X144796Y94920D01*
X144796Y99017D01*
G37*
%LPC*%
G36*
X144796Y100075D02*
X144796Y103717D01*
X147968Y103717D01*
X148235Y103710D01*
X148486Y103689D01*
X148721Y103653D01*
X148939Y103604D01*
X149142Y103540D01*
X149328Y103463D01*
X149498Y103371D01*
X149653Y103265D01*
X149790Y103146D01*
X149909Y103014D01*
X150009Y102869D01*
X150091Y102711D01*
X150155Y102540D01*
X150201Y102357D01*
X150228Y102161D01*
X150238Y101952D01*
X150229Y101736D01*
X150201Y101532D01*
X150156Y101340D01*
X150093Y101161D01*
X150012Y100995D01*
X149913Y100840D01*
X149795Y100698D01*
X149660Y100569D01*
X149508Y100453D01*
X149341Y100353D01*
X149159Y100268D01*
X148962Y100198D01*
X148750Y100144D01*
X148523Y100106D01*
X148281Y100083D01*
X148024Y100075D01*
X144796Y100075D01*
G37*
%LPD*%
G36*
X123357Y96013D02*
X116921Y96013D01*
X116921Y99451D01*
X122650Y99451D01*
X122650Y100530D01*
X116921Y100530D01*
X116921Y103696D01*
X123070Y103696D01*
X123070Y104788D01*
X115583Y104788D01*
X115583Y94920D01*
X123357Y94920D01*
X123357Y96013D01*
G37*
G36*
X113939Y96013D02*
X108952Y96013D01*
X108952Y104788D01*
X107614Y104788D01*
X107614Y94920D01*
X113939Y94920D01*
X113939Y96013D01*
G37*
G36*
X161325Y99178D02*
X164294Y99178D01*
X164294Y100201D01*
X161325Y100201D01*
X161325Y103198D01*
X160295Y103198D01*
X160295Y100201D01*
X157325Y100201D01*
X157325Y99178D01*
X160295Y99178D01*
X160295Y96181D01*
X161325Y96181D01*
X161325Y99178D01*
G37*
G36*
X142451Y92980D02*
X134095Y92980D01*
X134095Y92069D01*
X142451Y92069D01*
X142451Y92980D01*
G37*
G36*
X101795Y99290D02*
X98294Y99290D01*
X98294Y98170D01*
X101795Y98170D01*
X101795Y99290D01*
G37*
G36*
X253376Y94930D02*
X253717Y94958D01*
X254048Y95006D01*
X254369Y95072D01*
X254679Y95158D01*
X254978Y95263D01*
X255267Y95387D01*
X255545Y95529D01*
X255811Y95690D01*
X256060Y95867D01*
X256295Y96062D01*
X256514Y96273D01*
X256717Y96500D01*
X256904Y96745D01*
X257077Y97006D01*
X257233Y97284D01*
X257373Y97576D01*
X257494Y97880D01*
X257596Y98196D01*
X257680Y98524D01*
X257745Y98864D01*
X257791Y99216D01*
X257819Y99580D01*
X257828Y99956D01*
X257807Y100519D01*
X257743Y101049D01*
X257637Y101545D01*
X257488Y102009D01*
X257296Y102439D01*
X257062Y102836D01*
X256786Y103200D01*
X256466Y103531D01*
X256108Y103826D01*
X255714Y104081D01*
X255284Y104297D01*
X254818Y104474D01*
X254316Y104612D01*
X253779Y104710D01*
X253206Y104769D01*
X252597Y104788D01*
X249333Y104788D01*
X249333Y94920D01*
X253024Y94920D01*
X253376Y94930D01*
G37*
%LPC*%
G36*
X250671Y95992D02*
X250671Y103717D01*
X252569Y103717D01*
X253031Y103702D01*
X253465Y103657D01*
X253871Y103581D01*
X254249Y103476D01*
X254598Y103341D01*
X254920Y103175D01*
X255213Y102979D01*
X255479Y102754D01*
X255714Y102499D01*
X255918Y102218D01*
X256091Y101909D01*
X256232Y101573D01*
X256342Y101209D01*
X256421Y100819D01*
X256468Y100401D01*
X256484Y99956D01*
X256477Y99656D01*
X256456Y99367D01*
X256422Y99087D01*
X256373Y98818D01*
X256311Y98558D01*
X256236Y98309D01*
X256146Y98070D01*
X256043Y97841D01*
X255926Y97623D01*
X255798Y97419D01*
X255658Y97227D01*
X255506Y97049D01*
X255342Y96884D01*
X255166Y96732D01*
X254978Y96593D01*
X254778Y96468D01*
X254568Y96356D01*
X254350Y96259D01*
X254124Y96178D01*
X253890Y96111D01*
X253647Y96059D01*
X253396Y96021D01*
X253137Y95999D01*
X252870Y95992D01*
X250671Y95992D01*
G37*
%LPD*%
G36*
X272492Y94787D02*
X272816Y94807D01*
X273134Y94842D01*
X273445Y94889D01*
X273751Y94951D01*
X274051Y95026D01*
X274344Y95115D01*
X274632Y95218D01*
X275179Y95459D01*
X275681Y95746D01*
X276140Y96077D01*
X276554Y96454D01*
X276554Y99858D01*
X272373Y99858D01*
X272373Y98737D01*
X275322Y98737D01*
X275322Y96958D01*
X275042Y96719D01*
X274724Y96506D01*
X274365Y96320D01*
X273966Y96160D01*
X273540Y96031D01*
X273097Y95939D01*
X272638Y95884D01*
X272163Y95866D01*
X271751Y95882D01*
X271361Y95933D01*
X270995Y96018D01*
X270652Y96136D01*
X270331Y96288D01*
X270034Y96474D01*
X269760Y96694D01*
X269508Y96948D01*
X269284Y97230D01*
X269089Y97538D01*
X268924Y97870D01*
X268789Y98227D01*
X268684Y98608D01*
X268609Y99014D01*
X268564Y99444D01*
X268549Y99900D01*
X268563Y100356D01*
X268605Y100785D01*
X268676Y101189D01*
X268775Y101566D01*
X268902Y101916D01*
X269057Y102240D01*
X269241Y102538D01*
X269452Y102810D01*
X269691Y103052D01*
X269954Y103262D01*
X270243Y103439D01*
X270557Y103585D01*
X270896Y103698D01*
X271261Y103778D01*
X271650Y103827D01*
X272065Y103843D01*
X272334Y103837D01*
X272592Y103819D01*
X272839Y103789D01*
X273074Y103747D01*
X273298Y103692D01*
X273511Y103626D01*
X273713Y103548D01*
X273903Y103458D01*
X274083Y103354D01*
X274253Y103237D01*
X274413Y103105D01*
X274562Y102959D01*
X274702Y102798D01*
X274832Y102624D01*
X275062Y102232D01*
X276337Y102610D01*
X276191Y102904D01*
X276031Y103178D01*
X275856Y103431D01*
X275666Y103662D01*
X275462Y103874D01*
X275243Y104064D01*
X275010Y104233D01*
X274761Y104382D01*
X274496Y104512D01*
X274211Y104624D01*
X273908Y104719D01*
X273585Y104797D01*
X273242Y104858D01*
X272881Y104901D01*
X272500Y104927D01*
X272100Y104935D01*
X271533Y104915D01*
X270999Y104853D01*
X270497Y104750D01*
X270028Y104606D01*
X269592Y104421D01*
X269188Y104195D01*
X268817Y103927D01*
X268479Y103619D01*
X268177Y103273D01*
X267915Y102892D01*
X267694Y102479D01*
X267512Y102031D01*
X267371Y101549D01*
X267271Y101033D01*
X267210Y100483D01*
X267190Y99900D01*
X267199Y99514D01*
X267227Y99141D01*
X267273Y98781D01*
X267338Y98433D01*
X267421Y98099D01*
X267523Y97777D01*
X267643Y97468D01*
X267782Y97172D01*
X267938Y96890D01*
X268111Y96626D01*
X268300Y96379D01*
X268506Y96148D01*
X268728Y95935D01*
X268967Y95738D01*
X269222Y95559D01*
X269494Y95396D01*
X269781Y95252D01*
X270081Y95127D01*
X270395Y95021D01*
X270722Y94934D01*
X271062Y94867D01*
X271416Y94818D01*
X271783Y94790D01*
X272163Y94780D01*
X272492Y94787D01*
G37*
G36*
X247545Y96013D02*
X241108Y96013D01*
X241108Y99451D01*
X246837Y99451D01*
X246837Y100530D01*
X241108Y100530D01*
X241108Y103696D01*
X247257Y103696D01*
X247257Y104788D01*
X239770Y104788D01*
X239770Y94920D01*
X247545Y94920D01*
X247545Y96013D01*
G37*
G36*
X238126Y96013D02*
X233139Y96013D01*
X233139Y104788D01*
X231802Y104788D01*
X231802Y94920D01*
X238126Y94920D01*
X238126Y96013D01*
G37*
G36*
X286325Y99178D02*
X289294Y99178D01*
X289294Y100201D01*
X286325Y100201D01*
X286325Y103198D01*
X285295Y103198D01*
X285295Y100201D01*
X282325Y100201D01*
X282325Y99178D01*
X285295Y99178D01*
X285295Y96181D01*
X286325Y96181D01*
X286325Y99178D01*
G37*
G36*
X266638Y92980D02*
X258283Y92980D01*
X258283Y92069D01*
X266638Y92069D01*
X266638Y92980D01*
G37*
G36*
X225983Y99290D02*
X222481Y99290D01*
X222481Y98170D01*
X225983Y98170D01*
X225983Y99290D01*
G37*
G36*
X361733Y99017D02*
X364808Y99017D01*
X367371Y94920D01*
X368912Y94920D01*
X367303Y97362D01*
X366110Y99171D01*
X366385Y99229D01*
X366644Y99304D01*
X366888Y99396D01*
X367116Y99506D01*
X367241Y99580D01*
X367330Y99633D01*
X367528Y99777D01*
X367711Y99938D01*
X367879Y100117D01*
X368029Y100310D01*
X368159Y100513D01*
X368269Y100728D01*
X368360Y100954D01*
X368430Y101190D01*
X368480Y101438D01*
X368510Y101696D01*
X368520Y101966D01*
X368506Y102289D01*
X368463Y102595D01*
X368392Y102882D01*
X368293Y103150D01*
X368165Y103401D01*
X368010Y103633D01*
X367825Y103847D01*
X367613Y104042D01*
X367374Y104217D01*
X367112Y104369D01*
X366826Y104497D01*
X366516Y104602D01*
X366182Y104683D01*
X365825Y104742D01*
X365444Y104777D01*
X365039Y104788D01*
X360395Y104788D01*
X360395Y94920D01*
X361733Y94920D01*
X361733Y99017D01*
G37*
%LPC*%
G36*
X361733Y100075D02*
X361733Y103717D01*
X364906Y103717D01*
X365173Y103710D01*
X365423Y103689D01*
X365658Y103653D01*
X365877Y103604D01*
X366079Y103540D01*
X366266Y103463D01*
X366436Y103371D01*
X366590Y103265D01*
X366727Y103146D01*
X366846Y103014D01*
X366947Y102869D01*
X367029Y102711D01*
X367093Y102540D01*
X367138Y102357D01*
X367166Y102161D01*
X367175Y101952D01*
X367166Y101736D01*
X367139Y101532D01*
X367094Y101340D01*
X367031Y101161D01*
X366949Y100995D01*
X366850Y100840D01*
X366733Y100698D01*
X366597Y100569D01*
X366445Y100453D01*
X366278Y100353D01*
X366096Y100268D01*
X365899Y100198D01*
X365688Y100144D01*
X365461Y100106D01*
X365219Y100083D01*
X364962Y100075D01*
X361733Y100075D01*
G37*
%LPD*%
G36*
X374866Y94792D02*
X375311Y94827D01*
X375728Y94885D01*
X376117Y94967D01*
X376480Y95073D01*
X376815Y95201D01*
X377123Y95354D01*
X377403Y95529D01*
X377654Y95726D01*
X377871Y95943D01*
X378054Y96178D01*
X378204Y96433D01*
X378321Y96707D01*
X378405Y97000D01*
X378455Y97313D01*
X378471Y97644D01*
X378462Y97905D01*
X378434Y98149D01*
X378387Y98375D01*
X378321Y98583D01*
X378238Y98776D01*
X378141Y98956D01*
X378030Y99123D01*
X377904Y99276D01*
X377614Y99548D01*
X377277Y99774D01*
X376903Y99964D01*
X376503Y100127D01*
X376080Y100267D01*
X375638Y100386D01*
X374731Y100600D01*
X374108Y100745D01*
X373598Y100878D01*
X373201Y100999D01*
X372917Y101108D01*
X372703Y101217D01*
X372515Y101337D01*
X372355Y101469D01*
X372220Y101612D01*
X372115Y101771D01*
X372039Y101949D01*
X371994Y102147D01*
X371979Y102365D01*
X371989Y102553D01*
X372018Y102730D01*
X372066Y102894D01*
X372135Y103046D01*
X372222Y103186D01*
X372329Y103314D01*
X372456Y103431D01*
X372602Y103535D01*
X372767Y103627D01*
X372949Y103706D01*
X373148Y103774D01*
X373366Y103829D01*
X373600Y103872D01*
X373852Y103902D01*
X374122Y103921D01*
X374409Y103927D01*
X374919Y103905D01*
X375370Y103838D01*
X375574Y103789D01*
X375763Y103728D01*
X375937Y103656D01*
X376097Y103573D01*
X376243Y103478D01*
X376377Y103369D01*
X376499Y103247D01*
X376608Y103112D01*
X376705Y102963D01*
X376790Y102800D01*
X376863Y102624D01*
X376923Y102435D01*
X378240Y102666D01*
X378143Y102965D01*
X378028Y103241D01*
X377897Y103494D01*
X377750Y103725D01*
X377586Y103933D01*
X377405Y104118D01*
X377208Y104281D01*
X376994Y104421D01*
X376759Y104541D01*
X376499Y104646D01*
X376215Y104734D01*
X375906Y104807D01*
X375573Y104863D01*
X375214Y104903D01*
X374831Y104927D01*
X374423Y104935D01*
X373984Y104925D01*
X373572Y104893D01*
X373186Y104839D01*
X372825Y104764D01*
X372491Y104667D01*
X372183Y104549D01*
X371902Y104410D01*
X371646Y104249D01*
X371419Y104068D01*
X371222Y103870D01*
X371055Y103653D01*
X370919Y103417D01*
X370813Y103164D01*
X370737Y102892D01*
X370691Y102603D01*
X370676Y102295D01*
X370688Y102026D01*
X370723Y101773D01*
X370781Y101536D01*
X370862Y101314D01*
X370965Y101108D01*
X371088Y100914D01*
X371233Y100735D01*
X371397Y100569D01*
X371589Y100413D01*
X371812Y100265D01*
X372067Y100124D01*
X372354Y99991D01*
X372692Y99861D01*
X373100Y99732D01*
X373579Y99602D01*
X374129Y99472D01*
X375355Y99185D01*
X375869Y99036D01*
X376307Y98856D01*
X376496Y98752D01*
X376662Y98634D01*
X376806Y98503D01*
X376927Y98359D01*
X377023Y98197D01*
X377092Y98012D01*
X377134Y97805D01*
X377148Y97574D01*
X377137Y97366D01*
X377104Y97170D01*
X377049Y96987D01*
X376972Y96817D01*
X376873Y96660D01*
X376752Y96517D01*
X376609Y96386D01*
X376444Y96268D01*
X376259Y96164D01*
X376055Y96074D01*
X375833Y95997D01*
X375592Y95935D01*
X375333Y95886D01*
X375055Y95851D01*
X374759Y95830D01*
X374444Y95823D01*
X374139Y95830D01*
X373850Y95850D01*
X373578Y95882D01*
X373322Y95928D01*
X373082Y95986D01*
X372859Y96058D01*
X372652Y96143D01*
X372462Y96240D01*
X372288Y96352D01*
X372129Y96478D01*
X371987Y96619D01*
X371860Y96775D01*
X371749Y96946D01*
X371653Y97131D01*
X371573Y97331D01*
X371510Y97546D01*
X370214Y97287D01*
X370297Y96984D01*
X370405Y96700D01*
X370536Y96435D01*
X370691Y96190D01*
X370869Y95965D01*
X371071Y95759D01*
X371297Y95573D01*
X371546Y95407D01*
X371819Y95260D01*
X372116Y95133D01*
X372437Y95025D01*
X372781Y94937D01*
X373149Y94868D01*
X373541Y94819D01*
X373956Y94790D01*
X374395Y94780D01*
X374866Y94792D01*
G37*
G36*
X384168Y103696D02*
X387558Y103696D01*
X387558Y104788D01*
X379447Y104788D01*
X379447Y103696D01*
X382837Y103696D01*
X382837Y94920D01*
X384168Y94920D01*
X384168Y103696D01*
G37*
G36*
X396325Y99178D02*
X399294Y99178D01*
X399294Y100201D01*
X396325Y100201D01*
X396325Y103198D01*
X395295Y103198D01*
X395295Y100201D01*
X392325Y100201D01*
X392325Y99178D01*
X395295Y99178D01*
X395295Y96181D01*
X396325Y96181D01*
X396325Y99178D01*
G37*
G36*
X354577Y99290D02*
X351075Y99290D01*
X351075Y98170D01*
X354577Y98170D01*
X354577Y99290D01*
G37*
G36*
X74079Y275558D02*
X74270Y275583D01*
X74451Y275623D01*
X74623Y275680D01*
X74785Y275753D01*
X74937Y275842D01*
X75080Y275947D01*
X75212Y276068D01*
X75332Y276204D01*
X75436Y276350D01*
X75524Y276507D01*
X75596Y276675D01*
X75652Y276855D01*
X75692Y277045D01*
X75716Y277247D01*
X75724Y277459D01*
X75701Y277810D01*
X75630Y278130D01*
X75512Y278420D01*
X75347Y278681D01*
X77222Y278567D01*
X77222Y275894D01*
X77864Y275894D01*
X77864Y279255D01*
X74684Y279453D01*
X74684Y278714D01*
X74881Y278450D01*
X75011Y278185D01*
X75083Y277911D01*
X75108Y277615D01*
X75086Y277336D01*
X75021Y277088D01*
X74914Y276869D01*
X74763Y276681D01*
X74578Y276530D01*
X74366Y276421D01*
X74127Y276357D01*
X73861Y276335D01*
X73557Y276356D01*
X73288Y276421D01*
X73053Y276528D01*
X72852Y276679D01*
X72691Y276868D01*
X72577Y277089D01*
X72508Y277344D01*
X72485Y277632D01*
X72499Y277867D01*
X72540Y278080D01*
X72608Y278269D01*
X72704Y278434D01*
X72827Y278576D01*
X72978Y278694D01*
X73156Y278789D01*
X73362Y278861D01*
X73274Y279625D01*
X72952Y279534D01*
X72671Y279397D01*
X72430Y279213D01*
X72229Y278983D01*
X72071Y278709D01*
X71958Y278395D01*
X71891Y278042D01*
X71868Y277648D01*
X71877Y277408D01*
X71902Y277182D01*
X71944Y276969D01*
X72002Y276770D01*
X72078Y276584D01*
X72170Y276411D01*
X72279Y276252D01*
X72405Y276106D01*
X72546Y275976D01*
X72699Y275863D01*
X72864Y275767D01*
X73042Y275689D01*
X73232Y275628D01*
X73435Y275585D01*
X73650Y275559D01*
X73878Y275550D01*
X74079Y275558D01*
G37*
G36*
X77864Y270337D02*
X73702Y271965D01*
X72657Y272317D01*
X73702Y272670D01*
X77864Y274306D01*
X77864Y275150D01*
X71952Y272737D01*
X71952Y271906D01*
X77864Y269493D01*
X77864Y270337D01*
G37*
G36*
X75116Y282184D02*
X76912Y282184D01*
X76912Y282801D01*
X75116Y282801D01*
X75116Y284580D01*
X74503Y284580D01*
X74503Y282801D01*
X72707Y282801D01*
X72707Y282184D01*
X74503Y282184D01*
X74503Y280405D01*
X75116Y280405D01*
X75116Y282184D01*
G37*
G36*
X73415Y119656D02*
X74499Y120371D01*
X74579Y120051D01*
X74699Y119768D01*
X74749Y119694D01*
X74862Y119522D01*
X75066Y119311D01*
X75303Y119143D01*
X75567Y119024D01*
X75857Y118952D01*
X76173Y118928D01*
X76367Y118936D01*
X76550Y118961D01*
X76722Y119004D01*
X76883Y119063D01*
X77033Y119140D01*
X77172Y119233D01*
X77300Y119344D01*
X77418Y119471D01*
X77522Y119614D01*
X77613Y119771D01*
X77690Y119943D01*
X77753Y120128D01*
X77802Y120328D01*
X77836Y120542D01*
X77857Y120770D01*
X77864Y121013D01*
X77864Y123795D01*
X71952Y123795D01*
X71952Y122994D01*
X74407Y122994D01*
X74407Y121151D01*
X71952Y119616D01*
X71952Y118693D01*
X73415Y119656D01*
G37*
%LPC*%
G36*
X75913Y119755D02*
X75691Y119820D01*
X75499Y119928D01*
X75336Y120079D01*
X75207Y120270D01*
X75114Y120497D01*
X75059Y120760D01*
X75040Y121059D01*
X75040Y122994D01*
X77222Y122994D01*
X77222Y121093D01*
X77205Y120783D01*
X77155Y120511D01*
X77070Y120278D01*
X76952Y120084D01*
X76801Y119930D01*
X76620Y119821D01*
X76408Y119755D01*
X76165Y119733D01*
X75913Y119755D01*
G37*
%LPD*%
G36*
X77864Y112856D02*
X73765Y114400D01*
X73335Y114545D01*
X72825Y114685D01*
X73234Y114788D01*
X73765Y114950D01*
X77864Y116523D01*
X77864Y117576D01*
X71952Y117576D01*
X71952Y116863D01*
X75896Y116863D01*
X76689Y116880D01*
X77155Y116892D01*
X76694Y116754D01*
X75980Y116519D01*
X71952Y114971D01*
X71952Y114408D01*
X75980Y112881D01*
X76486Y112707D01*
X77155Y112512D01*
X76538Y112540D01*
X75896Y112549D01*
X71952Y112549D01*
X71952Y111828D01*
X77864Y111828D01*
X77864Y112856D01*
G37*
G36*
X77864Y131660D02*
X77864Y132570D01*
X71952Y134983D01*
X71952Y134152D01*
X73681Y133473D01*
X73681Y130779D01*
X71952Y130103D01*
X71952Y129285D01*
X77864Y131660D01*
G37*
%LPC*%
G36*
X74306Y133229D02*
X76249Y132474D01*
X76745Y132294D01*
X77143Y132163D01*
X77260Y132126D01*
X76912Y132012D01*
X76257Y131777D01*
X74306Y131018D01*
X74306Y133229D01*
G37*
%LPD*%
G36*
X72607Y127775D02*
X77864Y127775D01*
X77864Y128576D01*
X71952Y128576D01*
X71952Y124787D01*
X72607Y124787D01*
X72607Y127775D01*
G37*
G36*
X73415Y160156D02*
X74499Y160871D01*
X74579Y160551D01*
X74699Y160268D01*
X74749Y160194D01*
X74862Y160022D01*
X75066Y159811D01*
X75303Y159643D01*
X75567Y159524D01*
X75857Y159452D01*
X76173Y159428D01*
X76367Y159436D01*
X76550Y159461D01*
X76722Y159504D01*
X76883Y159563D01*
X77033Y159640D01*
X77172Y159733D01*
X77300Y159844D01*
X77418Y159971D01*
X77522Y160114D01*
X77613Y160271D01*
X77690Y160443D01*
X77753Y160628D01*
X77802Y160828D01*
X77836Y161042D01*
X77857Y161270D01*
X77864Y161513D01*
X77864Y164295D01*
X71952Y164295D01*
X71952Y163494D01*
X74407Y163494D01*
X74407Y161651D01*
X71952Y160116D01*
X71952Y159193D01*
X73415Y160156D01*
G37*
%LPC*%
G36*
X75913Y160255D02*
X75691Y160320D01*
X75499Y160428D01*
X75336Y160579D01*
X75207Y160770D01*
X75114Y160997D01*
X75059Y161260D01*
X75040Y161559D01*
X75040Y163494D01*
X77222Y163494D01*
X77222Y161593D01*
X77205Y161283D01*
X77155Y161011D01*
X77070Y160778D01*
X76952Y160584D01*
X76801Y160430D01*
X76620Y160321D01*
X76408Y160255D01*
X76165Y160233D01*
X75913Y160255D01*
G37*
%LPD*%
G36*
X73886Y153466D02*
X74147Y153534D01*
X74370Y153642D01*
X74562Y153784D01*
X74725Y153957D01*
X74860Y154159D01*
X74974Y154383D01*
X75072Y154623D01*
X75156Y154876D01*
X75227Y155141D01*
X75355Y155685D01*
X75521Y156363D01*
X75594Y156601D01*
X75659Y156771D01*
X75797Y157012D01*
X75961Y157189D01*
X76057Y157252D01*
X76163Y157297D01*
X76282Y157325D01*
X76413Y157334D01*
X76631Y157310D01*
X76821Y157240D01*
X76981Y157124D01*
X77113Y156960D01*
X77216Y156752D01*
X77290Y156503D01*
X77334Y156211D01*
X77348Y155878D01*
X77335Y155572D01*
X77295Y155302D01*
X77229Y155066D01*
X77136Y154866D01*
X77014Y154698D01*
X76860Y154560D01*
X76673Y154451D01*
X76454Y154371D01*
X76593Y153582D01*
X76937Y153709D01*
X77227Y153876D01*
X77463Y154083D01*
X77560Y154201D01*
X77644Y154329D01*
X77779Y154625D01*
X77875Y154981D01*
X77933Y155395D01*
X77953Y155869D01*
X77946Y156132D01*
X77927Y156379D01*
X77895Y156611D01*
X77850Y156826D01*
X77792Y157027D01*
X77721Y157211D01*
X77638Y157380D01*
X77541Y157533D01*
X77433Y157669D01*
X77314Y157787D01*
X77184Y157887D01*
X77043Y157969D01*
X76891Y158032D01*
X76729Y158078D01*
X76555Y158105D01*
X76371Y158114D01*
X76210Y158107D01*
X76058Y158086D01*
X75916Y158052D01*
X75783Y158003D01*
X75543Y157867D01*
X75336Y157682D01*
X75154Y157434D01*
X74990Y157109D01*
X74835Y156662D01*
X74680Y156045D01*
X74507Y155311D01*
X74418Y155003D01*
X74310Y154740D01*
X74177Y154528D01*
X74012Y154369D01*
X73915Y154311D01*
X73805Y154270D01*
X73680Y154245D01*
X73542Y154237D01*
X73417Y154243D01*
X73300Y154263D01*
X73089Y154342D01*
X72909Y154474D01*
X72760Y154659D01*
X72643Y154892D01*
X72560Y155169D01*
X72510Y155491D01*
X72493Y155857D01*
X72509Y156212D01*
X72556Y156529D01*
X72634Y156806D01*
X72743Y157044D01*
X72886Y157243D01*
X73063Y157405D01*
X73277Y157529D01*
X73526Y157615D01*
X73370Y158391D01*
X73188Y158341D01*
X73018Y158277D01*
X72860Y158198D01*
X72713Y158105D01*
X72578Y157999D01*
X72455Y157877D01*
X72343Y157742D01*
X72244Y157593D01*
X72156Y157429D01*
X72079Y157251D01*
X72015Y157059D01*
X71962Y156853D01*
X71921Y156632D01*
X71892Y156398D01*
X71874Y156149D01*
X71868Y155886D01*
X71875Y155604D01*
X71896Y155337D01*
X71931Y155088D01*
X71980Y154854D01*
X72043Y154637D01*
X72121Y154436D01*
X72212Y154252D01*
X72317Y154084D01*
X72435Y153934D01*
X72565Y153804D01*
X72706Y153694D01*
X72858Y153604D01*
X73023Y153534D01*
X73198Y153484D01*
X73386Y153454D01*
X73584Y153444D01*
X73886Y153466D01*
G37*
G36*
X77864Y152870D02*
X77210Y152870D01*
X77210Y150839D01*
X71952Y150839D01*
X71952Y150041D01*
X77210Y150041D01*
X77210Y148010D01*
X77864Y148010D01*
X77864Y152870D01*
G37*
G36*
X75306Y188718D02*
X75624Y188756D01*
X75921Y188820D01*
X76199Y188909D01*
X76457Y189024D01*
X76695Y189164D01*
X76913Y189330D01*
X77111Y189521D01*
X77288Y189736D01*
X77441Y189972D01*
X77570Y190230D01*
X77676Y190509D01*
X77758Y190809D01*
X77817Y191131D01*
X77853Y191475D01*
X77864Y191840D01*
X77864Y193795D01*
X71952Y193795D01*
X71952Y191584D01*
X71975Y191168D01*
X72043Y190778D01*
X72157Y190413D01*
X72317Y190073D01*
X72520Y189764D01*
X72762Y189493D01*
X73045Y189259D01*
X73368Y189062D01*
X73726Y188906D01*
X74111Y188794D01*
X74526Y188727D01*
X74969Y188705D01*
X75306Y188718D01*
G37*
%LPC*%
G36*
X74616Y189527D02*
X74287Y189577D01*
X73982Y189659D01*
X73702Y189775D01*
X73449Y189922D01*
X73228Y190097D01*
X73038Y190300D01*
X72879Y190533D01*
X72755Y190789D01*
X72665Y191065D01*
X72612Y191361D01*
X72594Y191676D01*
X72594Y192994D01*
X77222Y192994D01*
X77222Y191856D01*
X77213Y191580D01*
X77186Y191319D01*
X77141Y191076D01*
X77078Y190850D01*
X76997Y190640D01*
X76898Y190448D01*
X76781Y190272D01*
X76645Y190113D01*
X76493Y189972D01*
X76324Y189849D01*
X76139Y189746D01*
X75938Y189661D01*
X75720Y189595D01*
X75486Y189548D01*
X75236Y189520D01*
X74969Y189511D01*
X74616Y189527D01*
G37*
%LPD*%
G36*
X74910Y179963D02*
X74239Y179963D01*
X74239Y178196D01*
X73173Y178196D01*
X73030Y178363D01*
X72902Y178554D01*
X72791Y178769D01*
X72695Y179008D01*
X72618Y179264D01*
X72563Y179529D01*
X72529Y179804D01*
X72518Y180089D01*
X72529Y180336D01*
X72559Y180569D01*
X72610Y180788D01*
X72681Y180994D01*
X72772Y181186D01*
X72883Y181364D01*
X73015Y181528D01*
X73167Y181679D01*
X73336Y181814D01*
X73520Y181930D01*
X73719Y182029D01*
X73933Y182110D01*
X74162Y182173D01*
X74405Y182218D01*
X74663Y182245D01*
X74935Y182254D01*
X75209Y182245D01*
X75466Y182220D01*
X75708Y182178D01*
X75934Y182118D01*
X76144Y182042D01*
X76338Y181949D01*
X76516Y181839D01*
X76679Y181712D01*
X76824Y181570D01*
X76950Y181412D01*
X77056Y181239D01*
X77143Y181051D01*
X77211Y180847D01*
X77259Y180629D01*
X77288Y180396D01*
X77298Y180147D01*
X77283Y179831D01*
X77240Y179543D01*
X77168Y179281D01*
X77067Y179046D01*
X76935Y178836D01*
X76768Y178651D01*
X76568Y178489D01*
X76333Y178351D01*
X76559Y177588D01*
X76900Y177771D01*
X77190Y177989D01*
X77430Y178243D01*
X77621Y178532D01*
X77766Y178861D01*
X77870Y179237D01*
X77932Y179658D01*
X77953Y180126D01*
X77940Y180466D01*
X77903Y180786D01*
X77842Y181086D01*
X77755Y181367D01*
X77644Y181629D01*
X77509Y181871D01*
X77349Y182093D01*
X77164Y182296D01*
X76956Y182477D01*
X76729Y182634D01*
X76481Y182766D01*
X76212Y182875D01*
X75923Y182959D01*
X75614Y183020D01*
X75285Y183056D01*
X74935Y183068D01*
X74481Y183046D01*
X74057Y182979D01*
X73664Y182868D01*
X73301Y182713D01*
X72974Y182516D01*
X72688Y182279D01*
X72442Y182003D01*
X72237Y181687D01*
X72076Y181336D01*
X71960Y180952D01*
X71891Y180536D01*
X71868Y180089D01*
X71884Y179697D01*
X71934Y179320D01*
X72016Y178958D01*
X72130Y178609D01*
X72275Y178282D01*
X72447Y177980D01*
X72645Y177706D01*
X72871Y177458D01*
X74910Y177458D01*
X74910Y179963D01*
G37*
G36*
X72607Y198712D02*
X74667Y198712D01*
X74667Y195280D01*
X75313Y195280D01*
X75313Y198712D01*
X77210Y198712D01*
X77210Y195028D01*
X77864Y195028D01*
X77864Y199514D01*
X71952Y199514D01*
X71952Y194856D01*
X72607Y194856D01*
X72607Y198712D01*
G37*
G36*
X72607Y203494D02*
X77864Y203494D01*
X77864Y204295D01*
X71952Y204295D01*
X71952Y200506D01*
X72607Y200506D01*
X72607Y203494D01*
G37*
G36*
X70790Y188411D02*
X70244Y188411D01*
X70244Y183405D01*
X70790Y183405D01*
X70790Y188411D01*
G37*
G36*
X297157Y236810D02*
X292010Y236810D01*
X292010Y239559D01*
X296591Y239559D01*
X296591Y240422D01*
X292010Y240422D01*
X292010Y242953D01*
X296927Y242953D01*
X296927Y243826D01*
X290941Y243826D01*
X290941Y235936D01*
X297157Y235936D01*
X297157Y236810D01*
G37*
G36*
X240648Y235945D02*
X240962Y235973D01*
X241256Y236018D01*
X241532Y236082D01*
X241790Y236165D01*
X242028Y236265D01*
X242248Y236384D01*
X242449Y236521D01*
X242629Y236675D01*
X242785Y236843D01*
X242917Y237026D01*
X243025Y237223D01*
X243109Y237435D01*
X243169Y237662D01*
X243205Y237903D01*
X243217Y238159D01*
X243209Y238352D01*
X243185Y238537D01*
X243145Y238713D01*
X243089Y238881D01*
X243018Y239040D01*
X242930Y239191D01*
X242826Y239333D01*
X242707Y239467D01*
X242635Y239533D01*
X242573Y239590D01*
X242425Y239700D01*
X242264Y239798D01*
X242090Y239883D01*
X241902Y239956D01*
X241700Y240015D01*
X241485Y240062D01*
X241257Y240097D01*
X241595Y240198D01*
X241892Y240338D01*
X242149Y240517D01*
X242198Y240566D01*
X242365Y240735D01*
X242537Y240987D01*
X242659Y241267D01*
X242733Y241575D01*
X242751Y241740D01*
X242757Y241911D01*
X242747Y242143D01*
X242714Y242360D01*
X242660Y242562D01*
X242584Y242749D01*
X242486Y242921D01*
X242367Y243078D01*
X242226Y243220D01*
X242063Y243348D01*
X241879Y243460D01*
X241672Y243557D01*
X241445Y243639D01*
X241195Y243707D01*
X240924Y243759D01*
X240631Y243796D01*
X240316Y243819D01*
X239980Y243826D01*
X237113Y243826D01*
X237113Y235936D01*
X240316Y235936D01*
X240648Y235945D01*
G37*
%LPC*%
G36*
X238182Y236793D02*
X238182Y239638D01*
X240176Y239638D01*
X240635Y239616D01*
X241033Y239550D01*
X241209Y239501D01*
X241370Y239441D01*
X241516Y239371D01*
X241646Y239289D01*
X241761Y239196D01*
X241860Y239093D01*
X241944Y238979D01*
X242013Y238853D01*
X242067Y238717D01*
X242105Y238570D01*
X242128Y238412D01*
X242136Y238243D01*
X242129Y238068D01*
X242108Y237904D01*
X242073Y237752D01*
X242024Y237610D01*
X241961Y237480D01*
X241884Y237361D01*
X241793Y237253D01*
X241688Y237157D01*
X241568Y237071D01*
X241431Y236998D01*
X241277Y236935D01*
X241107Y236884D01*
X240920Y236844D01*
X240717Y236816D01*
X240260Y236793D01*
X238182Y236793D01*
G37*
G36*
X238182Y240472D02*
X238182Y242970D01*
X239980Y242970D01*
X240370Y242952D01*
X240711Y242901D01*
X241003Y242815D01*
X241245Y242695D01*
X241348Y242621D01*
X241437Y242535D01*
X241512Y242438D01*
X241573Y242330D01*
X241621Y242210D01*
X241655Y242079D01*
X241675Y241936D01*
X241682Y241782D01*
X241676Y241621D01*
X241656Y241471D01*
X241623Y241331D01*
X241577Y241202D01*
X241517Y241084D01*
X241444Y240977D01*
X241359Y240880D01*
X241259Y240794D01*
X241021Y240653D01*
X240728Y240552D01*
X240381Y240492D01*
X239980Y240472D01*
X238182Y240472D01*
G37*
%LPD*%
G36*
X240576Y185832D02*
X240854Y185857D01*
X241123Y185899D01*
X241383Y185957D01*
X241634Y186032D01*
X241877Y186123D01*
X242111Y186231D01*
X242336Y186356D01*
X242550Y186497D01*
X242752Y186652D01*
X242942Y186824D01*
X243119Y187010D01*
X243284Y187211D01*
X243437Y187428D01*
X243577Y187660D01*
X243705Y187907D01*
X242831Y188344D01*
X242610Y187959D01*
X242363Y187626D01*
X242090Y187344D01*
X241791Y187113D01*
X241467Y186934D01*
X241117Y186806D01*
X240932Y186761D01*
X240741Y186729D01*
X240543Y186710D01*
X240339Y186703D01*
X240024Y186717D01*
X239726Y186758D01*
X239444Y186827D01*
X239179Y186924D01*
X238931Y187048D01*
X238700Y187199D01*
X238485Y187378D01*
X238287Y187585D01*
X238109Y187815D01*
X237955Y188062D01*
X237825Y188327D01*
X237718Y188609D01*
X237635Y188910D01*
X237576Y189228D01*
X237540Y189564D01*
X237528Y189918D01*
X237540Y190275D01*
X237574Y190612D01*
X237631Y190930D01*
X237710Y191229D01*
X237813Y191508D01*
X237938Y191767D01*
X238086Y192007D01*
X238256Y192228D01*
X238447Y192425D01*
X238657Y192596D01*
X238884Y192741D01*
X239130Y192860D01*
X239394Y192952D01*
X239676Y193018D01*
X239976Y193057D01*
X240295Y193070D01*
X240698Y193048D01*
X241072Y192979D01*
X241419Y192866D01*
X241737Y192706D01*
X242020Y192504D01*
X242261Y192261D01*
X242461Y191978D01*
X242619Y191654D01*
X243632Y191990D01*
X243526Y192224D01*
X243405Y192444D01*
X243271Y192649D01*
X243123Y192839D01*
X242960Y193015D01*
X242784Y193175D01*
X242593Y193321D01*
X242389Y193451D01*
X242171Y193567D01*
X241940Y193667D01*
X241696Y193751D01*
X241440Y193821D01*
X241170Y193875D01*
X240887Y193913D01*
X240592Y193936D01*
X240283Y193944D01*
X239845Y193927D01*
X239431Y193877D01*
X239041Y193794D01*
X238676Y193677D01*
X238336Y193526D01*
X238020Y193342D01*
X237728Y193125D01*
X237461Y192874D01*
X237222Y192594D01*
X237015Y192288D01*
X236840Y191957D01*
X236697Y191600D01*
X236585Y191218D01*
X236505Y190810D01*
X236458Y190377D01*
X236442Y189918D01*
X236449Y189608D01*
X236470Y189309D01*
X236506Y189020D01*
X236556Y188742D01*
X236620Y188475D01*
X236698Y188218D01*
X236791Y187972D01*
X236898Y187736D01*
X237019Y187513D01*
X237152Y187302D01*
X237299Y187105D01*
X237458Y186922D01*
X237631Y186751D01*
X237816Y186594D01*
X238014Y186450D01*
X238225Y186320D01*
X238448Y186203D01*
X238681Y186103D01*
X238924Y186018D01*
X239177Y185948D01*
X239440Y185894D01*
X239713Y185855D01*
X239996Y185832D01*
X240289Y185824D01*
X240576Y185832D01*
G37*
G36*
X75306Y305874D02*
X75624Y305912D01*
X75921Y305976D01*
X76199Y306065D01*
X76457Y306180D01*
X76695Y306320D01*
X76913Y306486D01*
X77111Y306678D01*
X77288Y306892D01*
X77441Y307128D01*
X77570Y307386D01*
X77676Y307665D01*
X77758Y307966D01*
X77817Y308288D01*
X77853Y308631D01*
X77864Y308996D01*
X77864Y310951D01*
X71952Y310951D01*
X71952Y308740D01*
X71975Y308325D01*
X72043Y307934D01*
X72157Y307569D01*
X72317Y307229D01*
X72520Y306921D01*
X72762Y306649D01*
X73045Y306415D01*
X73368Y306218D01*
X73726Y306062D01*
X74111Y305951D01*
X74526Y305884D01*
X74969Y305861D01*
X75306Y305874D01*
G37*
%LPC*%
G36*
X74616Y306684D02*
X74287Y306733D01*
X73982Y306816D01*
X73702Y306931D01*
X73449Y307078D01*
X73228Y307253D01*
X73038Y307457D01*
X72879Y307689D01*
X72755Y307945D01*
X72665Y308221D01*
X72612Y308517D01*
X72594Y308832D01*
X72594Y310150D01*
X77222Y310150D01*
X77222Y309013D01*
X77213Y308736D01*
X77186Y308476D01*
X77141Y308233D01*
X77078Y308006D01*
X76997Y307797D01*
X76898Y307604D01*
X76781Y307428D01*
X76645Y307269D01*
X76493Y307128D01*
X76324Y307006D01*
X76139Y306902D01*
X75938Y306818D01*
X75720Y306752D01*
X75486Y306705D01*
X75236Y306676D01*
X74969Y306667D01*
X74616Y306684D01*
G37*
%LPD*%
G36*
X77864Y313091D02*
X73987Y313091D01*
X73505Y313079D01*
X72795Y313041D01*
X77864Y316239D01*
X77864Y317170D01*
X71952Y317170D01*
X71952Y316457D01*
X75880Y316457D01*
X76580Y316478D01*
X76987Y316499D01*
X71952Y313335D01*
X71952Y312370D01*
X77864Y312370D01*
X77864Y313091D01*
G37*
G36*
X74910Y321025D02*
X74239Y321025D01*
X74239Y319259D01*
X73173Y319259D01*
X73030Y319426D01*
X72902Y319617D01*
X72791Y319832D01*
X72695Y320071D01*
X72618Y320326D01*
X72563Y320591D01*
X72529Y320866D01*
X72518Y321151D01*
X72529Y321398D01*
X72559Y321631D01*
X72610Y321851D01*
X72681Y322056D01*
X72772Y322248D01*
X72883Y322426D01*
X73015Y322591D01*
X73167Y322741D01*
X73336Y322876D01*
X73520Y322993D01*
X73719Y323092D01*
X73933Y323173D01*
X74162Y323235D01*
X74405Y323280D01*
X74663Y323307D01*
X74935Y323316D01*
X75209Y323308D01*
X75466Y323282D01*
X75708Y323240D01*
X75934Y323181D01*
X76144Y323105D01*
X76338Y323012D01*
X76516Y322902D01*
X76679Y322775D01*
X76824Y322632D01*
X76950Y322474D01*
X77056Y322301D01*
X77143Y322113D01*
X77211Y321910D01*
X77259Y321692D01*
X77288Y321458D01*
X77298Y321210D01*
X77283Y320894D01*
X77240Y320605D01*
X77168Y320343D01*
X77067Y320108D01*
X76935Y319899D01*
X76768Y319713D01*
X76568Y319552D01*
X76333Y319414D01*
X76559Y318650D01*
X76900Y318833D01*
X77190Y319052D01*
X77430Y319306D01*
X77621Y319594D01*
X77766Y319924D01*
X77870Y320299D01*
X77932Y320721D01*
X77953Y321189D01*
X77940Y321528D01*
X77903Y321848D01*
X77842Y322149D01*
X77755Y322430D01*
X77644Y322691D01*
X77509Y322933D01*
X77349Y323155D01*
X77164Y323358D01*
X76956Y323539D01*
X76729Y323696D01*
X76481Y323829D01*
X76212Y323937D01*
X75923Y324022D01*
X75614Y324082D01*
X75285Y324118D01*
X74935Y324130D01*
X74481Y324108D01*
X74057Y324042D01*
X73664Y323931D01*
X73301Y323776D01*
X72974Y323579D01*
X72688Y323342D01*
X72442Y323066D01*
X72237Y322750D01*
X72076Y322398D01*
X71960Y322014D01*
X71891Y321599D01*
X71868Y321151D01*
X71884Y320760D01*
X71934Y320383D01*
X72016Y320020D01*
X72130Y319672D01*
X72275Y319344D01*
X72447Y319043D01*
X72645Y318768D01*
X72871Y318520D01*
X74910Y318520D01*
X74910Y321025D01*
G37*
G36*
X129188Y94930D02*
X129530Y94958D01*
X129861Y95006D01*
X130181Y95072D01*
X130491Y95158D01*
X130790Y95263D01*
X131079Y95387D01*
X131358Y95529D01*
X131623Y95690D01*
X131873Y95867D01*
X132107Y96062D01*
X132326Y96273D01*
X132529Y96500D01*
X132717Y96745D01*
X132889Y97006D01*
X133046Y97284D01*
X133185Y97576D01*
X133306Y97880D01*
X133408Y98196D01*
X133492Y98524D01*
X133557Y98864D01*
X133604Y99216D01*
X133632Y99580D01*
X133641Y99956D01*
X133620Y100519D01*
X133556Y101049D01*
X133449Y101545D01*
X133300Y102009D01*
X133109Y102439D01*
X132875Y102836D01*
X132598Y103200D01*
X132279Y103531D01*
X131920Y103826D01*
X131526Y104081D01*
X131096Y104297D01*
X130630Y104474D01*
X130129Y104612D01*
X129591Y104710D01*
X129018Y104769D01*
X128409Y104788D01*
X125145Y104788D01*
X125145Y94920D01*
X128836Y94920D01*
X129188Y94930D01*
G37*
%LPC*%
G36*
X126483Y95992D02*
X126483Y103717D01*
X128381Y103717D01*
X128843Y103702D01*
X129277Y103657D01*
X129683Y103581D01*
X130061Y103476D01*
X130411Y103341D01*
X130732Y103175D01*
X131026Y102979D01*
X131291Y102754D01*
X131527Y102499D01*
X131731Y102218D01*
X131904Y101909D01*
X132045Y101573D01*
X132155Y101209D01*
X132233Y100819D01*
X132281Y100401D01*
X132296Y99956D01*
X132289Y99656D01*
X132269Y99367D01*
X132234Y99087D01*
X132186Y98818D01*
X132124Y98558D01*
X132048Y98309D01*
X131958Y98070D01*
X131855Y97841D01*
X131739Y97623D01*
X131611Y97419D01*
X131470Y97227D01*
X131318Y97049D01*
X131154Y96884D01*
X130978Y96732D01*
X130791Y96593D01*
X130591Y96468D01*
X130381Y96356D01*
X130163Y96259D01*
X129937Y96178D01*
X129702Y96111D01*
X129460Y96059D01*
X129209Y96021D01*
X128950Y95999D01*
X128682Y95992D01*
X126483Y95992D01*
G37*
%LPD*%
G36*
X221414Y199823D02*
X221799Y199859D01*
X222193Y199919D01*
X222596Y200003D01*
X222596Y201177D01*
X222082Y201091D01*
X221833Y201070D01*
X221589Y201063D01*
X221371Y201071D01*
X221162Y201094D01*
X220963Y201132D01*
X220773Y201186D01*
X220594Y201255D01*
X220424Y201339D01*
X220264Y201438D01*
X220113Y201553D01*
X219971Y201686D01*
X219836Y201837D01*
X219708Y202008D01*
X219587Y202197D01*
X219365Y202634D01*
X219172Y203147D01*
X219740Y203246D01*
X220277Y203387D01*
X220781Y203571D01*
X221254Y203798D01*
X221695Y204068D01*
X222103Y204381D01*
X222480Y204737D01*
X222824Y205136D01*
X223132Y205571D01*
X223399Y206034D01*
X223625Y206527D01*
X223809Y207049D01*
X223953Y207600D01*
X224056Y208180D01*
X224117Y208789D01*
X224138Y209427D01*
X224126Y209905D01*
X224092Y210367D01*
X224035Y210813D01*
X223955Y211243D01*
X223852Y211656D01*
X223726Y212053D01*
X223578Y212434D01*
X223406Y212799D01*
X223213Y213146D01*
X223000Y213471D01*
X222766Y213775D01*
X222512Y214057D01*
X222237Y214319D01*
X221942Y214559D01*
X221627Y214778D01*
X221291Y214976D01*
X220937Y215151D01*
X220568Y215303D01*
X220183Y215432D01*
X219783Y215538D01*
X219366Y215619D01*
X218935Y215678D01*
X218487Y215713D01*
X218024Y215725D01*
X217668Y215718D01*
X217322Y215699D01*
X216985Y215666D01*
X216659Y215620D01*
X216342Y215562D01*
X216035Y215490D01*
X215738Y215405D01*
X215451Y215308D01*
X215175Y215197D01*
X214907Y215073D01*
X214650Y214936D01*
X214403Y214786D01*
X214166Y214623D01*
X213939Y214447D01*
X213514Y214056D01*
X213134Y213619D01*
X212805Y213141D01*
X212659Y212887D01*
X212526Y212623D01*
X212406Y212349D01*
X212298Y212065D01*
X212203Y211770D01*
X212121Y211466D01*
X212052Y211151D01*
X211995Y210827D01*
X211950Y210492D01*
X211919Y210147D01*
X211900Y209792D01*
X211893Y209427D01*
X211904Y208968D01*
X211935Y208523D01*
X211986Y208092D01*
X212059Y207675D01*
X212152Y207272D01*
X212265Y206883D01*
X212400Y206508D01*
X212555Y206147D01*
X212729Y205803D01*
X212922Y205479D01*
X213134Y205174D01*
X213365Y204888D01*
X213614Y204622D01*
X213882Y204375D01*
X214168Y204148D01*
X214473Y203940D01*
X214794Y203753D01*
X215131Y203588D01*
X215482Y203445D01*
X215849Y203324D01*
X216230Y203225D01*
X216627Y203148D01*
X217038Y203093D01*
X217464Y203060D01*
X217604Y202638D01*
X217755Y202247D01*
X217915Y201887D01*
X218085Y201559D01*
X218264Y201262D01*
X218453Y200996D01*
X218652Y200762D01*
X218861Y200559D01*
X219082Y200384D01*
X219317Y200232D01*
X219567Y200103D01*
X219832Y199998D01*
X220111Y199916D01*
X220405Y199857D01*
X220714Y199822D01*
X221037Y199810D01*
X221414Y199823D01*
G37*
%LPC*%
G36*
X217502Y204404D02*
X217026Y204468D01*
X216577Y204574D01*
X216158Y204723D01*
X215766Y204914D01*
X215403Y205149D01*
X215068Y205425D01*
X214762Y205744D01*
X214488Y206100D01*
X214250Y206485D01*
X214049Y206901D01*
X213885Y207346D01*
X213757Y207821D01*
X213666Y208327D01*
X213611Y208862D01*
X213592Y209427D01*
X213611Y209996D01*
X213665Y210531D01*
X213755Y211035D01*
X213882Y211505D01*
X214044Y211943D01*
X214243Y212349D01*
X214478Y212722D01*
X214749Y213062D01*
X215053Y213366D01*
X215387Y213629D01*
X215751Y213852D01*
X216146Y214034D01*
X216570Y214176D01*
X217025Y214277D01*
X217509Y214338D01*
X218024Y214358D01*
X218535Y214338D01*
X219016Y214276D01*
X219467Y214174D01*
X219889Y214030D01*
X220281Y213845D01*
X220643Y213619D01*
X220975Y213353D01*
X221278Y213045D01*
X221548Y212701D01*
X221782Y212326D01*
X221980Y211920D01*
X222142Y211483D01*
X222268Y211016D01*
X222358Y210517D01*
X222412Y209988D01*
X222430Y209427D01*
X222412Y208842D01*
X222358Y208291D01*
X222269Y207774D01*
X222144Y207291D01*
X221983Y206843D01*
X221787Y206428D01*
X221555Y206047D01*
X221287Y205701D01*
X220986Y205392D01*
X220653Y205124D01*
X220290Y204897D01*
X219895Y204712D01*
X219470Y204568D01*
X219013Y204465D01*
X218526Y204403D01*
X218007Y204382D01*
X217502Y204404D01*
G37*
%LPD*%
G36*
X234081Y204540D02*
X231077Y204540D01*
X231077Y215541D01*
X229623Y215541D01*
X226707Y213535D01*
X226707Y212046D01*
X229492Y214034D01*
X229492Y204540D01*
X226348Y204540D01*
X226348Y203200D01*
X234081Y203200D01*
X234081Y204540D01*
G37*
G36*
X461431Y329085D02*
X466682Y329085D01*
X466682Y330888D01*
X461431Y330888D01*
X461431Y336090D01*
X459640Y336090D01*
X459640Y330888D01*
X454389Y330888D01*
X454389Y329085D01*
X459640Y329085D01*
X459640Y323883D01*
X461431Y323883D01*
X461431Y329085D01*
G37*
G36*
X463198Y133063D02*
X461235Y133063D01*
X461235Y126929D01*
X463198Y126929D01*
X463198Y133063D01*
G37*
D10*
X360023Y399258D02*
X360023Y413242D01*
X364685Y405473D01*
X369346Y413242D01*
X369346Y399258D01*
X375485Y399258D02*
X375485Y408581D01*
X375096Y412465D02*
X375096Y413242D01*
X375873Y413242D01*
X375873Y412465D01*
X375096Y412465D01*
X381125Y413242D02*
X381125Y401589D01*
X381127Y401495D01*
X381133Y401401D01*
X381142Y401308D01*
X381155Y401215D01*
X381172Y401123D01*
X381193Y401031D01*
X381217Y400940D01*
X381245Y400851D01*
X381276Y400762D01*
X381312Y400675D01*
X381350Y400590D01*
X381392Y400506D01*
X381437Y400424D01*
X381486Y400343D01*
X381538Y400265D01*
X381592Y400189D01*
X381650Y400115D01*
X381711Y400043D01*
X381775Y399974D01*
X381841Y399908D01*
X381910Y399844D01*
X381982Y399783D01*
X382056Y399725D01*
X382132Y399671D01*
X382210Y399619D01*
X382291Y399570D01*
X382373Y399525D01*
X382457Y399483D01*
X382542Y399445D01*
X382629Y399409D01*
X382718Y399378D01*
X382807Y399350D01*
X382898Y399326D01*
X382990Y399305D01*
X383082Y399288D01*
X383175Y399275D01*
X383268Y399266D01*
X383362Y399260D01*
X383456Y399258D01*
X390458Y399258D02*
X394342Y399258D01*
X390458Y399258D02*
X390364Y399260D01*
X390270Y399266D01*
X390177Y399275D01*
X390084Y399288D01*
X389992Y399305D01*
X389900Y399326D01*
X389809Y399350D01*
X389720Y399378D01*
X389631Y399409D01*
X389544Y399445D01*
X389459Y399483D01*
X389375Y399525D01*
X389293Y399570D01*
X389212Y399619D01*
X389134Y399671D01*
X389058Y399725D01*
X388984Y399783D01*
X388912Y399844D01*
X388843Y399908D01*
X388777Y399974D01*
X388713Y400043D01*
X388652Y400115D01*
X388594Y400189D01*
X388540Y400265D01*
X388488Y400343D01*
X388439Y400424D01*
X388394Y400506D01*
X388352Y400590D01*
X388314Y400675D01*
X388278Y400762D01*
X388247Y400851D01*
X388219Y400940D01*
X388195Y401031D01*
X388174Y401123D01*
X388157Y401215D01*
X388144Y401308D01*
X388135Y401401D01*
X388129Y401495D01*
X388127Y401589D01*
X388127Y405473D01*
X388129Y405584D01*
X388135Y405695D01*
X388145Y405805D01*
X388159Y405915D01*
X388176Y406025D01*
X388198Y406134D01*
X388224Y406242D01*
X388253Y406349D01*
X388286Y406455D01*
X388323Y406559D01*
X388364Y406662D01*
X388408Y406764D01*
X388456Y406864D01*
X388507Y406963D01*
X388562Y407059D01*
X388620Y407153D01*
X388682Y407246D01*
X388747Y407336D01*
X388815Y407423D01*
X388886Y407508D01*
X388960Y407591D01*
X389037Y407671D01*
X389117Y407748D01*
X389200Y407822D01*
X389285Y407893D01*
X389372Y407961D01*
X389462Y408026D01*
X389555Y408088D01*
X389649Y408146D01*
X389745Y408201D01*
X389844Y408252D01*
X389944Y408300D01*
X390046Y408344D01*
X390149Y408385D01*
X390253Y408422D01*
X390359Y408455D01*
X390466Y408484D01*
X390574Y408510D01*
X390683Y408532D01*
X390793Y408549D01*
X390903Y408563D01*
X391013Y408573D01*
X391124Y408579D01*
X391235Y408581D01*
X391346Y408579D01*
X391457Y408573D01*
X391567Y408563D01*
X391677Y408549D01*
X391787Y408532D01*
X391896Y408510D01*
X392004Y408484D01*
X392111Y408455D01*
X392217Y408422D01*
X392321Y408385D01*
X392424Y408344D01*
X392526Y408300D01*
X392626Y408252D01*
X392725Y408201D01*
X392821Y408146D01*
X392915Y408088D01*
X393008Y408026D01*
X393098Y407961D01*
X393185Y407893D01*
X393270Y407822D01*
X393353Y407748D01*
X393433Y407671D01*
X393510Y407591D01*
X393584Y407508D01*
X393655Y407423D01*
X393723Y407336D01*
X393788Y407246D01*
X393850Y407153D01*
X393908Y407059D01*
X393963Y406963D01*
X394014Y406864D01*
X394062Y406764D01*
X394106Y406662D01*
X394147Y406559D01*
X394184Y406455D01*
X394217Y406349D01*
X394246Y406242D01*
X394272Y406134D01*
X394294Y406025D01*
X394311Y405915D01*
X394325Y405805D01*
X394335Y405695D01*
X394341Y405584D01*
X394343Y405473D01*
X394342Y405473D02*
X394342Y403919D01*
X388127Y403919D01*
X400992Y404696D02*
X404877Y403142D01*
X400993Y404697D02*
X400911Y404732D01*
X400831Y404770D01*
X400753Y404812D01*
X400677Y404857D01*
X400603Y404906D01*
X400530Y404957D01*
X400461Y405012D01*
X400394Y405070D01*
X400329Y405131D01*
X400267Y405195D01*
X400208Y405261D01*
X400152Y405330D01*
X400099Y405401D01*
X400049Y405474D01*
X400003Y405550D01*
X399960Y405627D01*
X399920Y405707D01*
X399884Y405788D01*
X399851Y405870D01*
X399823Y405954D01*
X399797Y406039D01*
X399776Y406125D01*
X399758Y406212D01*
X399745Y406300D01*
X399735Y406388D01*
X399729Y406477D01*
X399727Y406565D01*
X399729Y406654D01*
X399735Y406743D01*
X399744Y406831D01*
X399758Y406918D01*
X399775Y407005D01*
X399797Y407092D01*
X399821Y407177D01*
X399850Y407261D01*
X399883Y407343D01*
X399919Y407424D01*
X399958Y407504D01*
X400001Y407581D01*
X400047Y407657D01*
X400097Y407730D01*
X400150Y407802D01*
X400206Y407871D01*
X400265Y407937D01*
X400326Y408001D01*
X400391Y408062D01*
X400458Y408120D01*
X400528Y408175D01*
X400600Y408226D01*
X400674Y408275D01*
X400750Y408320D01*
X400828Y408362D01*
X400908Y408401D01*
X400990Y408436D01*
X401073Y408467D01*
X401157Y408495D01*
X401243Y408518D01*
X401329Y408538D01*
X401416Y408555D01*
X401504Y408567D01*
X401592Y408576D01*
X401681Y408580D01*
X401770Y408581D01*
X401769Y408580D02*
X401981Y408575D01*
X402193Y408564D01*
X402404Y408548D01*
X402616Y408527D01*
X402826Y408501D01*
X403036Y408470D01*
X403245Y408434D01*
X403453Y408393D01*
X403660Y408347D01*
X403866Y408296D01*
X404071Y408240D01*
X404274Y408180D01*
X404476Y408114D01*
X404676Y408043D01*
X404874Y407968D01*
X405070Y407888D01*
X405265Y407803D01*
X404877Y403142D02*
X404959Y403107D01*
X405039Y403069D01*
X405117Y403027D01*
X405193Y402982D01*
X405267Y402933D01*
X405340Y402882D01*
X405409Y402827D01*
X405476Y402769D01*
X405541Y402708D01*
X405603Y402644D01*
X405662Y402578D01*
X405718Y402509D01*
X405771Y402438D01*
X405821Y402365D01*
X405867Y402289D01*
X405910Y402212D01*
X405950Y402132D01*
X405986Y402051D01*
X406019Y401969D01*
X406047Y401885D01*
X406073Y401800D01*
X406094Y401714D01*
X406112Y401627D01*
X406125Y401539D01*
X406135Y401451D01*
X406141Y401362D01*
X406143Y401274D01*
X406141Y401185D01*
X406135Y401096D01*
X406126Y401008D01*
X406112Y400921D01*
X406095Y400834D01*
X406073Y400747D01*
X406049Y400662D01*
X406020Y400578D01*
X405987Y400496D01*
X405951Y400415D01*
X405912Y400335D01*
X405869Y400258D01*
X405823Y400182D01*
X405773Y400109D01*
X405720Y400037D01*
X405664Y399968D01*
X405605Y399902D01*
X405544Y399838D01*
X405479Y399777D01*
X405412Y399719D01*
X405342Y399664D01*
X405270Y399613D01*
X405196Y399564D01*
X405120Y399519D01*
X405042Y399477D01*
X404962Y399438D01*
X404880Y399403D01*
X404797Y399372D01*
X404713Y399344D01*
X404627Y399321D01*
X404541Y399301D01*
X404454Y399284D01*
X404366Y399272D01*
X404278Y399263D01*
X404189Y399259D01*
X404100Y399258D01*
X404100Y399257D02*
X403788Y399265D01*
X403477Y399281D01*
X403166Y399304D01*
X402856Y399334D01*
X402547Y399372D01*
X402238Y399416D01*
X401931Y399469D01*
X401625Y399528D01*
X401321Y399594D01*
X401018Y399668D01*
X400717Y399749D01*
X400418Y399837D01*
X400121Y399932D01*
X399827Y400034D01*
X418850Y403142D02*
X418850Y409358D01*
X418851Y409358D02*
X418853Y409481D01*
X418859Y409604D01*
X418869Y409727D01*
X418882Y409850D01*
X418900Y409972D01*
X418921Y410093D01*
X418946Y410214D01*
X418975Y410333D01*
X419008Y410452D01*
X419045Y410570D01*
X419085Y410686D01*
X419129Y410802D01*
X419177Y410915D01*
X419228Y411027D01*
X419283Y411138D01*
X419341Y411246D01*
X419403Y411353D01*
X419468Y411458D01*
X419536Y411560D01*
X419607Y411661D01*
X419682Y411759D01*
X419760Y411855D01*
X419840Y411948D01*
X419924Y412038D01*
X420010Y412126D01*
X420100Y412211D01*
X420192Y412293D01*
X420286Y412373D01*
X420383Y412449D01*
X420482Y412522D01*
X420584Y412592D01*
X420687Y412658D01*
X420793Y412722D01*
X420901Y412782D01*
X421010Y412838D01*
X421122Y412891D01*
X421234Y412940D01*
X421349Y412986D01*
X421465Y413028D01*
X421582Y413067D01*
X421700Y413102D01*
X421819Y413133D01*
X421940Y413160D01*
X422061Y413183D01*
X422182Y413202D01*
X422305Y413218D01*
X422427Y413230D01*
X422550Y413238D01*
X422673Y413242D01*
X422797Y413242D01*
X422920Y413238D01*
X423043Y413230D01*
X423165Y413218D01*
X423288Y413202D01*
X423409Y413183D01*
X423530Y413160D01*
X423651Y413133D01*
X423770Y413102D01*
X423888Y413067D01*
X424005Y413028D01*
X424121Y412986D01*
X424236Y412940D01*
X424348Y412891D01*
X424460Y412838D01*
X424569Y412782D01*
X424677Y412722D01*
X424783Y412658D01*
X424886Y412592D01*
X424988Y412522D01*
X425087Y412449D01*
X425184Y412373D01*
X425278Y412293D01*
X425370Y412211D01*
X425460Y412126D01*
X425546Y412038D01*
X425630Y411948D01*
X425710Y411855D01*
X425788Y411759D01*
X425863Y411661D01*
X425934Y411560D01*
X426002Y411458D01*
X426067Y411353D01*
X426129Y411246D01*
X426187Y411138D01*
X426242Y411027D01*
X426293Y410915D01*
X426341Y410802D01*
X426385Y410686D01*
X426425Y410570D01*
X426462Y410452D01*
X426495Y410333D01*
X426524Y410214D01*
X426549Y410093D01*
X426570Y409972D01*
X426588Y409850D01*
X426601Y409727D01*
X426611Y409604D01*
X426617Y409481D01*
X426619Y409358D01*
X426619Y403142D01*
X426617Y403019D01*
X426611Y402896D01*
X426601Y402773D01*
X426588Y402650D01*
X426570Y402528D01*
X426549Y402407D01*
X426524Y402286D01*
X426495Y402167D01*
X426462Y402048D01*
X426425Y401930D01*
X426385Y401814D01*
X426341Y401698D01*
X426293Y401585D01*
X426242Y401473D01*
X426187Y401362D01*
X426129Y401254D01*
X426067Y401147D01*
X426002Y401042D01*
X425934Y400940D01*
X425863Y400839D01*
X425788Y400741D01*
X425710Y400645D01*
X425630Y400552D01*
X425546Y400462D01*
X425460Y400374D01*
X425370Y400289D01*
X425278Y400207D01*
X425184Y400127D01*
X425087Y400051D01*
X424988Y399978D01*
X424886Y399908D01*
X424783Y399842D01*
X424677Y399778D01*
X424569Y399718D01*
X424460Y399662D01*
X424348Y399609D01*
X424236Y399560D01*
X424121Y399514D01*
X424005Y399472D01*
X423888Y399433D01*
X423770Y399398D01*
X423651Y399367D01*
X423530Y399340D01*
X423409Y399317D01*
X423288Y399298D01*
X423165Y399282D01*
X423043Y399270D01*
X422920Y399262D01*
X422797Y399258D01*
X422673Y399258D01*
X422550Y399262D01*
X422427Y399270D01*
X422305Y399282D01*
X422182Y399298D01*
X422061Y399317D01*
X421940Y399340D01*
X421819Y399367D01*
X421700Y399398D01*
X421582Y399433D01*
X421465Y399472D01*
X421349Y399514D01*
X421234Y399560D01*
X421122Y399609D01*
X421010Y399662D01*
X420901Y399718D01*
X420793Y399778D01*
X420687Y399842D01*
X420584Y399908D01*
X420482Y399978D01*
X420383Y400051D01*
X420286Y400127D01*
X420192Y400207D01*
X420100Y400289D01*
X420010Y400374D01*
X419924Y400462D01*
X419840Y400552D01*
X419760Y400645D01*
X419682Y400741D01*
X419607Y400839D01*
X419536Y400940D01*
X419468Y401042D01*
X419403Y401147D01*
X419341Y401254D01*
X419283Y401362D01*
X419228Y401473D01*
X419177Y401585D01*
X419129Y401698D01*
X419085Y401814D01*
X419045Y401930D01*
X419008Y402048D01*
X418975Y402167D01*
X418946Y402286D01*
X418921Y402407D01*
X418900Y402528D01*
X418882Y402650D01*
X418869Y402773D01*
X418859Y402896D01*
X418853Y403019D01*
X418851Y403142D01*
X432741Y408581D02*
X432741Y394597D01*
X432741Y408581D02*
X436626Y408581D01*
X436720Y408579D01*
X436814Y408573D01*
X436907Y408564D01*
X437000Y408551D01*
X437092Y408534D01*
X437184Y408513D01*
X437275Y408489D01*
X437364Y408461D01*
X437453Y408430D01*
X437540Y408394D01*
X437625Y408356D01*
X437709Y408314D01*
X437792Y408269D01*
X437872Y408220D01*
X437950Y408168D01*
X438026Y408114D01*
X438100Y408056D01*
X438172Y407995D01*
X438241Y407931D01*
X438307Y407865D01*
X438371Y407796D01*
X438432Y407724D01*
X438490Y407650D01*
X438544Y407574D01*
X438596Y407496D01*
X438645Y407416D01*
X438690Y407333D01*
X438732Y407249D01*
X438770Y407164D01*
X438806Y407077D01*
X438837Y406988D01*
X438865Y406899D01*
X438889Y406808D01*
X438910Y406716D01*
X438927Y406624D01*
X438940Y406531D01*
X438949Y406438D01*
X438955Y406344D01*
X438957Y406250D01*
X438956Y406250D02*
X438956Y401589D01*
X438957Y401589D02*
X438955Y401493D01*
X438949Y401397D01*
X438939Y401301D01*
X438925Y401205D01*
X438907Y401111D01*
X438886Y401017D01*
X438860Y400924D01*
X438831Y400832D01*
X438798Y400742D01*
X438761Y400653D01*
X438720Y400565D01*
X438676Y400480D01*
X438628Y400396D01*
X438577Y400314D01*
X438523Y400235D01*
X438465Y400157D01*
X438405Y400082D01*
X438341Y400010D01*
X438274Y399941D01*
X438205Y399874D01*
X438133Y399810D01*
X438058Y399750D01*
X437981Y399692D01*
X437901Y399638D01*
X437819Y399587D01*
X437735Y399539D01*
X437650Y399495D01*
X437562Y399454D01*
X437473Y399417D01*
X437383Y399384D01*
X437291Y399355D01*
X437198Y399329D01*
X437104Y399308D01*
X437010Y399290D01*
X436914Y399276D01*
X436819Y399266D01*
X436722Y399260D01*
X436626Y399258D01*
X432741Y399258D01*
X445129Y399258D02*
X445129Y410911D01*
X445131Y411005D01*
X445137Y411099D01*
X445146Y411192D01*
X445159Y411285D01*
X445176Y411377D01*
X445197Y411469D01*
X445221Y411560D01*
X445249Y411649D01*
X445280Y411738D01*
X445316Y411825D01*
X445354Y411910D01*
X445396Y411994D01*
X445441Y412077D01*
X445490Y412157D01*
X445542Y412235D01*
X445596Y412311D01*
X445654Y412385D01*
X445715Y412457D01*
X445779Y412526D01*
X445845Y412592D01*
X445914Y412656D01*
X445986Y412717D01*
X446060Y412775D01*
X446136Y412829D01*
X446214Y412881D01*
X446295Y412930D01*
X446377Y412975D01*
X446461Y413017D01*
X446546Y413055D01*
X446633Y413091D01*
X446722Y413122D01*
X446811Y413150D01*
X446902Y413174D01*
X446994Y413195D01*
X447086Y413212D01*
X447179Y413225D01*
X447272Y413234D01*
X447366Y413240D01*
X447460Y413242D01*
X448237Y413242D01*
X448237Y408581D02*
X443576Y408581D01*
X454358Y399258D02*
X458242Y399258D01*
X454358Y399258D02*
X454264Y399260D01*
X454170Y399266D01*
X454077Y399275D01*
X453984Y399288D01*
X453892Y399305D01*
X453800Y399326D01*
X453709Y399350D01*
X453620Y399378D01*
X453531Y399409D01*
X453444Y399445D01*
X453359Y399483D01*
X453275Y399525D01*
X453193Y399570D01*
X453112Y399619D01*
X453034Y399671D01*
X452958Y399725D01*
X452884Y399783D01*
X452812Y399844D01*
X452743Y399908D01*
X452677Y399974D01*
X452613Y400043D01*
X452552Y400115D01*
X452494Y400189D01*
X452440Y400265D01*
X452388Y400343D01*
X452339Y400424D01*
X452294Y400506D01*
X452252Y400590D01*
X452214Y400675D01*
X452178Y400762D01*
X452147Y400851D01*
X452119Y400940D01*
X452095Y401031D01*
X452074Y401123D01*
X452057Y401215D01*
X452044Y401308D01*
X452035Y401401D01*
X452029Y401495D01*
X452027Y401589D01*
X452027Y405473D01*
X452029Y405584D01*
X452035Y405695D01*
X452045Y405805D01*
X452059Y405915D01*
X452076Y406025D01*
X452098Y406134D01*
X452124Y406242D01*
X452153Y406349D01*
X452186Y406455D01*
X452223Y406559D01*
X452264Y406662D01*
X452308Y406764D01*
X452356Y406864D01*
X452407Y406963D01*
X452462Y407059D01*
X452520Y407153D01*
X452582Y407246D01*
X452647Y407336D01*
X452715Y407423D01*
X452786Y407508D01*
X452860Y407591D01*
X452937Y407671D01*
X453017Y407748D01*
X453100Y407822D01*
X453185Y407893D01*
X453272Y407961D01*
X453362Y408026D01*
X453455Y408088D01*
X453549Y408146D01*
X453645Y408201D01*
X453744Y408252D01*
X453844Y408300D01*
X453946Y408344D01*
X454049Y408385D01*
X454153Y408422D01*
X454259Y408455D01*
X454366Y408484D01*
X454474Y408510D01*
X454583Y408532D01*
X454693Y408549D01*
X454803Y408563D01*
X454913Y408573D01*
X455024Y408579D01*
X455135Y408581D01*
X455246Y408579D01*
X455357Y408573D01*
X455467Y408563D01*
X455577Y408549D01*
X455687Y408532D01*
X455796Y408510D01*
X455904Y408484D01*
X456011Y408455D01*
X456117Y408422D01*
X456221Y408385D01*
X456324Y408344D01*
X456426Y408300D01*
X456526Y408252D01*
X456625Y408201D01*
X456721Y408146D01*
X456815Y408088D01*
X456908Y408026D01*
X456998Y407961D01*
X457085Y407893D01*
X457170Y407822D01*
X457253Y407748D01*
X457333Y407671D01*
X457410Y407591D01*
X457484Y407508D01*
X457555Y407423D01*
X457623Y407336D01*
X457688Y407246D01*
X457750Y407153D01*
X457808Y407059D01*
X457863Y406963D01*
X457914Y406864D01*
X457962Y406764D01*
X458006Y406662D01*
X458047Y406559D01*
X458084Y406455D01*
X458117Y406349D01*
X458146Y406242D01*
X458172Y406134D01*
X458194Y406025D01*
X458211Y405915D01*
X458225Y405805D01*
X458235Y405695D01*
X458241Y405584D01*
X458243Y405473D01*
X458242Y405473D02*
X458242Y403919D01*
X452027Y403919D01*
X464249Y399258D02*
X464249Y408581D01*
X468911Y408581D01*
X468911Y407027D01*
X473775Y413242D02*
X473775Y399258D01*
X473775Y403919D02*
X479990Y408581D01*
X476494Y405862D02*
X479990Y399258D01*
X485327Y401589D02*
X485327Y408581D01*
X485327Y401589D02*
X485329Y401495D01*
X485335Y401401D01*
X485344Y401308D01*
X485357Y401215D01*
X485374Y401123D01*
X485395Y401031D01*
X485419Y400940D01*
X485447Y400851D01*
X485478Y400762D01*
X485514Y400675D01*
X485552Y400590D01*
X485594Y400506D01*
X485639Y400424D01*
X485688Y400343D01*
X485740Y400265D01*
X485794Y400189D01*
X485852Y400115D01*
X485913Y400043D01*
X485977Y399974D01*
X486043Y399908D01*
X486112Y399844D01*
X486184Y399783D01*
X486258Y399725D01*
X486334Y399671D01*
X486412Y399619D01*
X486493Y399570D01*
X486575Y399525D01*
X486659Y399483D01*
X486744Y399445D01*
X486831Y399409D01*
X486920Y399378D01*
X487009Y399350D01*
X487100Y399326D01*
X487192Y399305D01*
X487284Y399288D01*
X487377Y399275D01*
X487470Y399266D01*
X487564Y399260D01*
X487658Y399258D01*
X491542Y399258D01*
X491542Y408581D01*
X499822Y399258D02*
X502930Y399258D01*
X499822Y399258D02*
X499728Y399260D01*
X499634Y399266D01*
X499541Y399275D01*
X499448Y399288D01*
X499356Y399305D01*
X499264Y399326D01*
X499173Y399350D01*
X499084Y399378D01*
X498995Y399409D01*
X498908Y399445D01*
X498823Y399483D01*
X498739Y399525D01*
X498657Y399570D01*
X498576Y399619D01*
X498498Y399671D01*
X498422Y399725D01*
X498348Y399783D01*
X498276Y399844D01*
X498207Y399908D01*
X498141Y399974D01*
X498077Y400043D01*
X498016Y400115D01*
X497958Y400189D01*
X497904Y400265D01*
X497852Y400343D01*
X497803Y400424D01*
X497758Y400506D01*
X497716Y400590D01*
X497678Y400675D01*
X497642Y400762D01*
X497611Y400851D01*
X497583Y400940D01*
X497559Y401031D01*
X497538Y401123D01*
X497521Y401215D01*
X497508Y401308D01*
X497499Y401401D01*
X497493Y401495D01*
X497491Y401589D01*
X497491Y406250D01*
X497493Y406344D01*
X497499Y406438D01*
X497508Y406531D01*
X497521Y406624D01*
X497538Y406716D01*
X497559Y406808D01*
X497583Y406899D01*
X497611Y406988D01*
X497642Y407077D01*
X497678Y407164D01*
X497716Y407249D01*
X497758Y407333D01*
X497803Y407416D01*
X497852Y407496D01*
X497904Y407574D01*
X497959Y407650D01*
X498016Y407724D01*
X498077Y407796D01*
X498141Y407865D01*
X498207Y407931D01*
X498276Y407995D01*
X498348Y408056D01*
X498422Y408114D01*
X498498Y408168D01*
X498576Y408220D01*
X498657Y408269D01*
X498739Y408314D01*
X498823Y408356D01*
X498908Y408394D01*
X498995Y408430D01*
X499084Y408461D01*
X499173Y408489D01*
X499264Y408513D01*
X499356Y408534D01*
X499448Y408551D01*
X499541Y408564D01*
X499634Y408573D01*
X499728Y408579D01*
X499822Y408581D01*
X502930Y408581D01*
X508277Y413242D02*
X508277Y399258D01*
X508277Y408581D02*
X512161Y408581D01*
X512255Y408579D01*
X512349Y408573D01*
X512442Y408564D01*
X512535Y408551D01*
X512627Y408534D01*
X512719Y408513D01*
X512810Y408489D01*
X512899Y408461D01*
X512988Y408430D01*
X513075Y408394D01*
X513160Y408356D01*
X513244Y408314D01*
X513327Y408269D01*
X513407Y408220D01*
X513485Y408168D01*
X513561Y408114D01*
X513635Y408056D01*
X513707Y407995D01*
X513776Y407931D01*
X513842Y407865D01*
X513906Y407796D01*
X513967Y407724D01*
X514025Y407650D01*
X514079Y407574D01*
X514131Y407496D01*
X514180Y407416D01*
X514225Y407333D01*
X514267Y407249D01*
X514305Y407164D01*
X514341Y407077D01*
X514372Y406988D01*
X514400Y406899D01*
X514424Y406808D01*
X514445Y406716D01*
X514462Y406624D01*
X514475Y406531D01*
X514484Y406438D01*
X514490Y406344D01*
X514492Y406250D01*
X514492Y399258D01*
X473992Y387246D02*
X473990Y387363D01*
X473984Y387480D01*
X473974Y387596D01*
X473961Y387712D01*
X473943Y387827D01*
X473922Y387942D01*
X473897Y388056D01*
X473868Y388170D01*
X473835Y388282D01*
X473799Y388393D01*
X473758Y388502D01*
X473715Y388611D01*
X473667Y388718D01*
X473616Y388823D01*
X473562Y388926D01*
X473504Y389028D01*
X473443Y389127D01*
X473378Y389225D01*
X473311Y389320D01*
X473240Y389413D01*
X473166Y389503D01*
X473089Y389591D01*
X473009Y389676D01*
X472926Y389759D01*
X472841Y389839D01*
X472753Y389916D01*
X472663Y389990D01*
X472570Y390061D01*
X472475Y390128D01*
X472377Y390193D01*
X472278Y390254D01*
X472176Y390312D01*
X472073Y390366D01*
X471968Y390417D01*
X471861Y390465D01*
X471752Y390508D01*
X471643Y390549D01*
X471532Y390585D01*
X471420Y390618D01*
X471306Y390647D01*
X471192Y390672D01*
X471077Y390693D01*
X470962Y390711D01*
X470846Y390724D01*
X470730Y390734D01*
X470613Y390740D01*
X470496Y390742D01*
X470365Y390740D01*
X470233Y390734D01*
X470102Y390725D01*
X469972Y390711D01*
X469842Y390694D01*
X469712Y390673D01*
X469583Y390648D01*
X469455Y390620D01*
X469327Y390587D01*
X469201Y390551D01*
X469076Y390512D01*
X468952Y390468D01*
X468829Y390421D01*
X468708Y390371D01*
X468588Y390317D01*
X468470Y390259D01*
X468354Y390198D01*
X468239Y390134D01*
X468127Y390066D01*
X468016Y389995D01*
X467908Y389921D01*
X467802Y389844D01*
X467698Y389764D01*
X467596Y389680D01*
X467497Y389594D01*
X467401Y389505D01*
X467307Y389413D01*
X467216Y389318D01*
X467128Y389221D01*
X467042Y389121D01*
X466960Y389019D01*
X466880Y388915D01*
X466804Y388808D01*
X466731Y388699D01*
X466661Y388588D01*
X466594Y388474D01*
X466531Y388359D01*
X466471Y388242D01*
X466414Y388124D01*
X466361Y388004D01*
X466312Y387882D01*
X466266Y387759D01*
X466223Y387635D01*
X472827Y384527D02*
X472913Y384612D01*
X472997Y384700D01*
X473078Y384791D01*
X473156Y384884D01*
X473231Y384980D01*
X473303Y385078D01*
X473372Y385179D01*
X473437Y385281D01*
X473499Y385386D01*
X473557Y385493D01*
X473612Y385601D01*
X473664Y385711D01*
X473712Y385823D01*
X473756Y385936D01*
X473797Y386051D01*
X473834Y386167D01*
X473867Y386284D01*
X473896Y386402D01*
X473921Y386521D01*
X473943Y386641D01*
X473961Y386761D01*
X473974Y386882D01*
X473984Y387003D01*
X473990Y387124D01*
X473992Y387246D01*
X472827Y384527D02*
X466223Y376758D01*
X473992Y376758D01*
X479723Y383750D02*
X479726Y384025D01*
X479736Y384300D01*
X479753Y384575D01*
X479776Y384849D01*
X479805Y385122D01*
X479841Y385395D01*
X479884Y385667D01*
X479933Y385938D01*
X479988Y386207D01*
X480050Y386475D01*
X480118Y386742D01*
X480193Y387006D01*
X480274Y387269D01*
X480361Y387530D01*
X480454Y387789D01*
X480554Y388046D01*
X480659Y388300D01*
X480771Y388551D01*
X480888Y388800D01*
X480924Y388899D01*
X480964Y388996D01*
X481007Y389092D01*
X481053Y389186D01*
X481103Y389278D01*
X481156Y389369D01*
X481212Y389457D01*
X481272Y389544D01*
X481334Y389628D01*
X481400Y389709D01*
X481469Y389789D01*
X481540Y389865D01*
X481614Y389940D01*
X481691Y390011D01*
X481771Y390079D01*
X481853Y390145D01*
X481937Y390207D01*
X482023Y390267D01*
X482112Y390323D01*
X482202Y390376D01*
X482295Y390426D01*
X482389Y390472D01*
X482485Y390515D01*
X482582Y390554D01*
X482681Y390589D01*
X482781Y390621D01*
X482882Y390650D01*
X482984Y390674D01*
X483086Y390695D01*
X483190Y390712D01*
X483294Y390726D01*
X483398Y390735D01*
X483503Y390741D01*
X483608Y390743D01*
X483608Y390742D02*
X483713Y390740D01*
X483818Y390734D01*
X483922Y390725D01*
X484026Y390711D01*
X484129Y390694D01*
X484232Y390673D01*
X484334Y390649D01*
X484435Y390620D01*
X484535Y390588D01*
X484633Y390553D01*
X484731Y390514D01*
X484827Y390471D01*
X484921Y390425D01*
X485013Y390375D01*
X485104Y390322D01*
X485192Y390266D01*
X485279Y390207D01*
X485363Y390144D01*
X485445Y390079D01*
X485524Y390010D01*
X485601Y389939D01*
X485675Y389865D01*
X485747Y389788D01*
X485815Y389709D01*
X485881Y389627D01*
X485943Y389543D01*
X486003Y389457D01*
X486059Y389368D01*
X486112Y389278D01*
X486162Y389186D01*
X486209Y389091D01*
X486251Y388996D01*
X486291Y388899D01*
X486327Y388800D01*
X486444Y388551D01*
X486556Y388300D01*
X486661Y388046D01*
X486761Y387789D01*
X486854Y387530D01*
X486941Y387269D01*
X487022Y387006D01*
X487097Y386742D01*
X487165Y386475D01*
X487227Y386207D01*
X487282Y385938D01*
X487331Y385667D01*
X487374Y385395D01*
X487410Y385122D01*
X487439Y384849D01*
X487462Y384575D01*
X487479Y384300D01*
X487489Y384025D01*
X487492Y383750D01*
X479723Y383750D02*
X479726Y383475D01*
X479736Y383200D01*
X479753Y382925D01*
X479776Y382651D01*
X479805Y382378D01*
X479841Y382105D01*
X479884Y381833D01*
X479933Y381562D01*
X479988Y381293D01*
X480050Y381025D01*
X480118Y380758D01*
X480193Y380494D01*
X480274Y380231D01*
X480361Y379970D01*
X480454Y379711D01*
X480554Y379454D01*
X480659Y379200D01*
X480771Y378949D01*
X480888Y378700D01*
X480888Y378701D02*
X480924Y378602D01*
X480964Y378505D01*
X481007Y378409D01*
X481053Y378315D01*
X481103Y378223D01*
X481156Y378132D01*
X481212Y378044D01*
X481272Y377957D01*
X481334Y377873D01*
X481400Y377792D01*
X481469Y377712D01*
X481540Y377635D01*
X481614Y377561D01*
X481691Y377490D01*
X481771Y377422D01*
X481853Y377356D01*
X481937Y377294D01*
X482023Y377234D01*
X482112Y377178D01*
X482203Y377125D01*
X482295Y377075D01*
X482389Y377029D01*
X482485Y376986D01*
X482582Y376947D01*
X482681Y376912D01*
X482781Y376880D01*
X482882Y376851D01*
X482984Y376827D01*
X483086Y376806D01*
X483190Y376789D01*
X483294Y376775D01*
X483398Y376766D01*
X483503Y376760D01*
X483608Y376758D01*
X486327Y378700D02*
X486444Y378949D01*
X486556Y379200D01*
X486661Y379454D01*
X486761Y379711D01*
X486854Y379970D01*
X486941Y380231D01*
X487022Y380494D01*
X487097Y380758D01*
X487165Y381025D01*
X487227Y381293D01*
X487282Y381562D01*
X487331Y381833D01*
X487374Y382105D01*
X487410Y382378D01*
X487439Y382651D01*
X487462Y382925D01*
X487479Y383200D01*
X487489Y383475D01*
X487492Y383750D01*
X486327Y378700D02*
X486291Y378601D01*
X486251Y378504D01*
X486209Y378409D01*
X486162Y378314D01*
X486112Y378222D01*
X486059Y378132D01*
X486003Y378043D01*
X485943Y377957D01*
X485881Y377873D01*
X485815Y377791D01*
X485747Y377712D01*
X485675Y377635D01*
X485601Y377561D01*
X485524Y377490D01*
X485445Y377421D01*
X485363Y377356D01*
X485278Y377293D01*
X485192Y377234D01*
X485104Y377178D01*
X485013Y377125D01*
X484921Y377075D01*
X484826Y377029D01*
X484731Y376986D01*
X484633Y376947D01*
X484535Y376912D01*
X484435Y376880D01*
X484334Y376851D01*
X484232Y376827D01*
X484129Y376806D01*
X484026Y376789D01*
X483922Y376775D01*
X483818Y376766D01*
X483713Y376760D01*
X483608Y376758D01*
X480500Y379866D02*
X486715Y387634D01*
X497496Y390742D02*
X497613Y390740D01*
X497730Y390734D01*
X497846Y390724D01*
X497962Y390711D01*
X498077Y390693D01*
X498192Y390672D01*
X498306Y390647D01*
X498420Y390618D01*
X498532Y390585D01*
X498643Y390549D01*
X498752Y390508D01*
X498861Y390465D01*
X498968Y390417D01*
X499073Y390366D01*
X499176Y390312D01*
X499278Y390254D01*
X499377Y390193D01*
X499475Y390128D01*
X499570Y390061D01*
X499663Y389990D01*
X499753Y389916D01*
X499841Y389839D01*
X499926Y389759D01*
X500009Y389676D01*
X500089Y389591D01*
X500166Y389503D01*
X500240Y389413D01*
X500311Y389320D01*
X500378Y389225D01*
X500443Y389127D01*
X500504Y389028D01*
X500562Y388926D01*
X500616Y388823D01*
X500667Y388718D01*
X500715Y388611D01*
X500758Y388502D01*
X500799Y388393D01*
X500835Y388282D01*
X500868Y388170D01*
X500897Y388056D01*
X500922Y387942D01*
X500943Y387827D01*
X500961Y387712D01*
X500974Y387596D01*
X500984Y387480D01*
X500990Y387363D01*
X500992Y387246D01*
X497496Y390742D02*
X497365Y390740D01*
X497233Y390734D01*
X497102Y390725D01*
X496972Y390711D01*
X496842Y390694D01*
X496712Y390673D01*
X496583Y390648D01*
X496455Y390620D01*
X496327Y390587D01*
X496201Y390551D01*
X496076Y390512D01*
X495952Y390468D01*
X495829Y390421D01*
X495708Y390371D01*
X495588Y390317D01*
X495470Y390259D01*
X495354Y390198D01*
X495239Y390134D01*
X495127Y390066D01*
X495016Y389995D01*
X494908Y389921D01*
X494802Y389844D01*
X494698Y389764D01*
X494596Y389680D01*
X494497Y389594D01*
X494401Y389505D01*
X494307Y389413D01*
X494216Y389318D01*
X494128Y389221D01*
X494042Y389121D01*
X493960Y389019D01*
X493880Y388915D01*
X493804Y388808D01*
X493731Y388699D01*
X493661Y388588D01*
X493594Y388474D01*
X493531Y388359D01*
X493471Y388242D01*
X493414Y388124D01*
X493361Y388004D01*
X493312Y387882D01*
X493266Y387759D01*
X493223Y387635D01*
X499827Y384527D02*
X499913Y384612D01*
X499997Y384700D01*
X500078Y384791D01*
X500156Y384884D01*
X500231Y384980D01*
X500303Y385078D01*
X500372Y385179D01*
X500437Y385281D01*
X500499Y385386D01*
X500557Y385493D01*
X500612Y385601D01*
X500664Y385711D01*
X500712Y385823D01*
X500756Y385936D01*
X500797Y386051D01*
X500834Y386167D01*
X500867Y386284D01*
X500896Y386402D01*
X500921Y386521D01*
X500943Y386641D01*
X500961Y386761D01*
X500974Y386882D01*
X500984Y387003D01*
X500990Y387124D01*
X500992Y387246D01*
X499827Y384527D02*
X493223Y376758D01*
X500992Y376758D01*
X506723Y387634D02*
X510608Y390742D01*
X510608Y376758D01*
X514492Y376758D02*
X506723Y376758D01*
D11*
X269800Y292100D02*
X269808Y292714D01*
X269830Y293327D01*
X269868Y293939D01*
X269920Y294550D01*
X269988Y295160D01*
X270071Y295768D01*
X270168Y296374D01*
X270280Y296977D01*
X270407Y297578D01*
X270549Y298175D01*
X270706Y298768D01*
X270876Y299357D01*
X271062Y299942D01*
X271261Y300522D01*
X271475Y301097D01*
X271703Y301667D01*
X271945Y302231D01*
X272200Y302789D01*
X272469Y303340D01*
X272752Y303885D01*
X273048Y304422D01*
X273357Y304953D01*
X273679Y305475D01*
X274013Y305989D01*
X274360Y306495D01*
X274720Y306992D01*
X275091Y307481D01*
X275475Y307960D01*
X275870Y308429D01*
X276276Y308889D01*
X276694Y309339D01*
X277122Y309778D01*
X277561Y310206D01*
X278011Y310624D01*
X278471Y311030D01*
X278940Y311425D01*
X279419Y311809D01*
X279908Y312180D01*
X280405Y312540D01*
X280911Y312887D01*
X281425Y313221D01*
X281947Y313543D01*
X282478Y313852D01*
X283015Y314148D01*
X283560Y314431D01*
X284111Y314700D01*
X284669Y314955D01*
X285233Y315197D01*
X285803Y315425D01*
X286378Y315639D01*
X286958Y315838D01*
X287543Y316024D01*
X288132Y316194D01*
X288725Y316351D01*
X289322Y316493D01*
X289923Y316620D01*
X290526Y316732D01*
X291132Y316829D01*
X291740Y316912D01*
X292350Y316980D01*
X292961Y317032D01*
X293573Y317070D01*
X294186Y317092D01*
X294800Y317100D01*
X295414Y317092D01*
X296027Y317070D01*
X296639Y317032D01*
X297250Y316980D01*
X297860Y316912D01*
X298468Y316829D01*
X299074Y316732D01*
X299677Y316620D01*
X300278Y316493D01*
X300875Y316351D01*
X301468Y316194D01*
X302057Y316024D01*
X302642Y315838D01*
X303222Y315639D01*
X303797Y315425D01*
X304367Y315197D01*
X304931Y314955D01*
X305489Y314700D01*
X306040Y314431D01*
X306585Y314148D01*
X307122Y313852D01*
X307653Y313543D01*
X308175Y313221D01*
X308689Y312887D01*
X309195Y312540D01*
X309692Y312180D01*
X310181Y311809D01*
X310660Y311425D01*
X311129Y311030D01*
X311589Y310624D01*
X312039Y310206D01*
X312478Y309778D01*
X312906Y309339D01*
X313324Y308889D01*
X313730Y308429D01*
X314125Y307960D01*
X314509Y307481D01*
X314880Y306992D01*
X315240Y306495D01*
X315587Y305989D01*
X315921Y305475D01*
X316243Y304953D01*
X316552Y304422D01*
X316848Y303885D01*
X317131Y303340D01*
X317400Y302789D01*
X317655Y302231D01*
X317897Y301667D01*
X318125Y301097D01*
X318339Y300522D01*
X318538Y299942D01*
X318724Y299357D01*
X318894Y298768D01*
X319051Y298175D01*
X319193Y297578D01*
X319320Y296977D01*
X319432Y296374D01*
X319529Y295768D01*
X319612Y295160D01*
X319680Y294550D01*
X319732Y293939D01*
X319770Y293327D01*
X319792Y292714D01*
X319800Y292100D01*
X319792Y291486D01*
X319770Y290873D01*
X319732Y290261D01*
X319680Y289650D01*
X319612Y289040D01*
X319529Y288432D01*
X319432Y287826D01*
X319320Y287223D01*
X319193Y286622D01*
X319051Y286025D01*
X318894Y285432D01*
X318724Y284843D01*
X318538Y284258D01*
X318339Y283678D01*
X318125Y283103D01*
X317897Y282533D01*
X317655Y281969D01*
X317400Y281411D01*
X317131Y280860D01*
X316848Y280315D01*
X316552Y279778D01*
X316243Y279247D01*
X315921Y278725D01*
X315587Y278211D01*
X315240Y277705D01*
X314880Y277208D01*
X314509Y276719D01*
X314125Y276240D01*
X313730Y275771D01*
X313324Y275311D01*
X312906Y274861D01*
X312478Y274422D01*
X312039Y273994D01*
X311589Y273576D01*
X311129Y273170D01*
X310660Y272775D01*
X310181Y272391D01*
X309692Y272020D01*
X309195Y271660D01*
X308689Y271313D01*
X308175Y270979D01*
X307653Y270657D01*
X307122Y270348D01*
X306585Y270052D01*
X306040Y269769D01*
X305489Y269500D01*
X304931Y269245D01*
X304367Y269003D01*
X303797Y268775D01*
X303222Y268561D01*
X302642Y268362D01*
X302057Y268176D01*
X301468Y268006D01*
X300875Y267849D01*
X300278Y267707D01*
X299677Y267580D01*
X299074Y267468D01*
X298468Y267371D01*
X297860Y267288D01*
X297250Y267220D01*
X296639Y267168D01*
X296027Y267130D01*
X295414Y267108D01*
X294800Y267100D01*
X294186Y267108D01*
X293573Y267130D01*
X292961Y267168D01*
X292350Y267220D01*
X291740Y267288D01*
X291132Y267371D01*
X290526Y267468D01*
X289923Y267580D01*
X289322Y267707D01*
X288725Y267849D01*
X288132Y268006D01*
X287543Y268176D01*
X286958Y268362D01*
X286378Y268561D01*
X285803Y268775D01*
X285233Y269003D01*
X284669Y269245D01*
X284111Y269500D01*
X283560Y269769D01*
X283015Y270052D01*
X282478Y270348D01*
X281947Y270657D01*
X281425Y270979D01*
X280911Y271313D01*
X280405Y271660D01*
X279908Y272020D01*
X279419Y272391D01*
X278940Y272775D01*
X278471Y273170D01*
X278011Y273576D01*
X277561Y273994D01*
X277122Y274422D01*
X276694Y274861D01*
X276276Y275311D01*
X275870Y275771D01*
X275475Y276240D01*
X275091Y276719D01*
X274720Y277208D01*
X274360Y277705D01*
X274013Y278211D01*
X273679Y278725D01*
X273357Y279247D01*
X273048Y279778D01*
X272752Y280315D01*
X272469Y280860D01*
X272200Y281411D01*
X271945Y281969D01*
X271703Y282533D01*
X271475Y283103D01*
X271261Y283678D01*
X271062Y284258D01*
X270876Y284843D01*
X270706Y285432D01*
X270549Y286025D01*
X270407Y286622D01*
X270280Y287223D01*
X270168Y287826D01*
X270071Y288432D01*
X269988Y289040D01*
X269920Y289650D01*
X269868Y290261D01*
X269830Y290873D01*
X269808Y291486D01*
X269800Y292100D01*
X280830Y284680D02*
X280830Y274520D01*
X280830Y299520D02*
X280830Y309680D01*
X275750Y304600D02*
X285910Y304600D01*
D12*
X267495Y290604D02*
X267495Y289532D01*
X267493Y289467D01*
X267487Y289403D01*
X267477Y289339D01*
X267464Y289275D01*
X267446Y289213D01*
X267425Y289152D01*
X267401Y289092D01*
X267372Y289034D01*
X267340Y288977D01*
X267305Y288923D01*
X267267Y288871D01*
X267225Y288821D01*
X267181Y288774D01*
X267134Y288730D01*
X267084Y288688D01*
X267032Y288650D01*
X266978Y288615D01*
X266921Y288583D01*
X266863Y288554D01*
X266803Y288530D01*
X266742Y288509D01*
X266680Y288491D01*
X266616Y288478D01*
X266552Y288468D01*
X266488Y288462D01*
X266423Y288460D01*
X266423Y288459D02*
X263741Y288459D01*
X263676Y288461D01*
X263612Y288467D01*
X263548Y288477D01*
X263484Y288490D01*
X263422Y288508D01*
X263361Y288529D01*
X263301Y288554D01*
X263242Y288582D01*
X263186Y288614D01*
X263131Y288649D01*
X263079Y288687D01*
X263029Y288729D01*
X262982Y288773D01*
X262938Y288820D01*
X262896Y288870D01*
X262858Y288922D01*
X262823Y288977D01*
X262791Y289033D01*
X262763Y289092D01*
X262738Y289151D01*
X262717Y289213D01*
X262699Y289275D01*
X262686Y289339D01*
X262676Y289403D01*
X262670Y289467D01*
X262668Y289532D01*
X262669Y289532D02*
X262669Y290604D01*
X263741Y293060D02*
X262669Y294400D01*
X267495Y294400D01*
X267495Y293060D02*
X267495Y295741D01*
X322105Y284220D02*
X323177Y282880D01*
X322105Y284220D02*
X326931Y284220D01*
X326931Y282880D02*
X326931Y285561D01*
X324518Y288366D02*
X324398Y288368D01*
X324278Y288373D01*
X324158Y288382D01*
X324038Y288395D01*
X323919Y288411D01*
X323800Y288431D01*
X323682Y288455D01*
X323565Y288482D01*
X323449Y288512D01*
X323334Y288546D01*
X323219Y288584D01*
X323106Y288625D01*
X322995Y288669D01*
X322884Y288717D01*
X322775Y288768D01*
X322775Y288769D02*
X322718Y288790D01*
X322662Y288816D01*
X322607Y288844D01*
X322555Y288876D01*
X322504Y288912D01*
X322456Y288950D01*
X322410Y288991D01*
X322367Y289035D01*
X322327Y289081D01*
X322290Y289130D01*
X322256Y289182D01*
X322225Y289235D01*
X322197Y289290D01*
X322173Y289346D01*
X322152Y289404D01*
X322135Y289463D01*
X322122Y289523D01*
X322113Y289584D01*
X322107Y289646D01*
X322105Y289707D01*
X322107Y289768D01*
X322113Y289830D01*
X322122Y289891D01*
X322135Y289951D01*
X322152Y290010D01*
X322173Y290068D01*
X322197Y290124D01*
X322225Y290179D01*
X322256Y290232D01*
X322290Y290284D01*
X322327Y290333D01*
X322367Y290379D01*
X322410Y290423D01*
X322456Y290464D01*
X322504Y290502D01*
X322555Y290538D01*
X322607Y290570D01*
X322662Y290598D01*
X322718Y290624D01*
X322775Y290645D01*
X322884Y290696D01*
X322995Y290744D01*
X323106Y290788D01*
X323219Y290829D01*
X323334Y290867D01*
X323449Y290901D01*
X323565Y290931D01*
X323682Y290958D01*
X323800Y290982D01*
X323919Y291002D01*
X324038Y291018D01*
X324158Y291031D01*
X324278Y291040D01*
X324398Y291045D01*
X324518Y291047D01*
X324518Y288366D02*
X324638Y288368D01*
X324758Y288373D01*
X324878Y288382D01*
X324998Y288395D01*
X325117Y288411D01*
X325236Y288431D01*
X325354Y288455D01*
X325471Y288482D01*
X325587Y288512D01*
X325702Y288546D01*
X325817Y288584D01*
X325930Y288625D01*
X326041Y288669D01*
X326152Y288717D01*
X326261Y288768D01*
X326261Y288769D02*
X326318Y288790D01*
X326374Y288816D01*
X326429Y288844D01*
X326481Y288876D01*
X326532Y288912D01*
X326580Y288950D01*
X326626Y288991D01*
X326669Y289035D01*
X326709Y289081D01*
X326746Y289130D01*
X326780Y289182D01*
X326811Y289235D01*
X326839Y289290D01*
X326863Y289346D01*
X326884Y289404D01*
X326901Y289463D01*
X326914Y289523D01*
X326923Y289584D01*
X326929Y289646D01*
X326931Y289707D01*
X326261Y290645D02*
X326152Y290696D01*
X326041Y290744D01*
X325930Y290788D01*
X325817Y290829D01*
X325702Y290867D01*
X325587Y290901D01*
X325471Y290931D01*
X325354Y290958D01*
X325236Y290982D01*
X325117Y291002D01*
X324998Y291018D01*
X324878Y291031D01*
X324758Y291040D01*
X324638Y291045D01*
X324518Y291047D01*
X326261Y290645D02*
X326318Y290624D01*
X326374Y290598D01*
X326429Y290570D01*
X326481Y290538D01*
X326532Y290502D01*
X326580Y290464D01*
X326626Y290423D01*
X326669Y290379D01*
X326709Y290332D01*
X326746Y290284D01*
X326780Y290232D01*
X326811Y290179D01*
X326839Y290124D01*
X326863Y290068D01*
X326884Y290010D01*
X326901Y289951D01*
X326914Y289891D01*
X326923Y289830D01*
X326929Y289768D01*
X326931Y289707D01*
X325859Y288634D02*
X323177Y290779D01*
X323714Y293938D02*
X326127Y293938D01*
X326182Y293940D01*
X326236Y293945D01*
X326291Y293955D01*
X326344Y293968D01*
X326396Y293984D01*
X326447Y294005D01*
X326497Y294028D01*
X326545Y294055D01*
X326591Y294085D01*
X326634Y294118D01*
X326676Y294154D01*
X326715Y294193D01*
X326751Y294235D01*
X326784Y294278D01*
X326814Y294324D01*
X326841Y294372D01*
X326864Y294422D01*
X326885Y294473D01*
X326901Y294525D01*
X326914Y294578D01*
X326924Y294633D01*
X326929Y294687D01*
X326931Y294742D01*
X326931Y296083D01*
X323714Y296083D01*
X322105Y299175D02*
X326931Y299175D01*
X322105Y299175D02*
X322105Y301320D01*
X324250Y301320D02*
X324250Y299175D01*
D11*
X228600Y279400D02*
X228600Y381000D01*
X177800Y381000D02*
X177800Y279400D01*
X228600Y279400D01*
X228600Y381000D02*
X213360Y381000D01*
X193040Y381000D02*
X177800Y381000D01*
X193040Y381000D02*
X193043Y380753D01*
X193052Y380505D01*
X193067Y380258D01*
X193088Y380012D01*
X193115Y379766D01*
X193148Y379521D01*
X193187Y379276D01*
X193232Y379033D01*
X193283Y378791D01*
X193340Y378550D01*
X193402Y378311D01*
X193471Y378073D01*
X193545Y377837D01*
X193625Y377603D01*
X193710Y377371D01*
X193802Y377141D01*
X193898Y376913D01*
X194001Y376688D01*
X194108Y376465D01*
X194222Y376245D01*
X194340Y376028D01*
X194464Y375813D01*
X194593Y375602D01*
X194727Y375394D01*
X194866Y375189D01*
X195010Y374988D01*
X195158Y374790D01*
X195312Y374596D01*
X195470Y374406D01*
X195633Y374220D01*
X195800Y374038D01*
X195972Y373860D01*
X196148Y373686D01*
X196328Y373516D01*
X196513Y373351D01*
X196701Y373191D01*
X196893Y373035D01*
X197089Y372883D01*
X197288Y372737D01*
X197491Y372595D01*
X197698Y372459D01*
X197907Y372327D01*
X198120Y372201D01*
X198336Y372080D01*
X198554Y371964D01*
X198776Y371854D01*
X199000Y371749D01*
X199226Y371649D01*
X199455Y371555D01*
X199686Y371467D01*
X199920Y371384D01*
X200155Y371307D01*
X200392Y371236D01*
X200630Y371170D01*
X200870Y371111D01*
X201112Y371057D01*
X201355Y371009D01*
X201598Y370967D01*
X201843Y370931D01*
X202089Y370901D01*
X202335Y370877D01*
X202582Y370859D01*
X202829Y370847D01*
X203076Y370841D01*
X203324Y370841D01*
X203571Y370847D01*
X203818Y370859D01*
X204065Y370877D01*
X204311Y370901D01*
X204557Y370931D01*
X204802Y370967D01*
X205045Y371009D01*
X205288Y371057D01*
X205530Y371111D01*
X205770Y371170D01*
X206008Y371236D01*
X206245Y371307D01*
X206480Y371384D01*
X206714Y371467D01*
X206945Y371555D01*
X207174Y371649D01*
X207400Y371749D01*
X207624Y371854D01*
X207846Y371964D01*
X208064Y372080D01*
X208280Y372201D01*
X208493Y372327D01*
X208702Y372459D01*
X208909Y372595D01*
X209112Y372737D01*
X209311Y372883D01*
X209507Y373035D01*
X209699Y373191D01*
X209887Y373351D01*
X210072Y373516D01*
X210252Y373686D01*
X210428Y373860D01*
X210600Y374038D01*
X210767Y374220D01*
X210930Y374406D01*
X211088Y374596D01*
X211242Y374790D01*
X211390Y374988D01*
X211534Y375189D01*
X211673Y375394D01*
X211807Y375602D01*
X211936Y375813D01*
X212060Y376028D01*
X212178Y376245D01*
X212292Y376465D01*
X212399Y376688D01*
X212502Y376913D01*
X212598Y377141D01*
X212690Y377371D01*
X212775Y377603D01*
X212855Y377837D01*
X212929Y378073D01*
X212998Y378311D01*
X213060Y378550D01*
X213117Y378791D01*
X213168Y379033D01*
X213213Y379276D01*
X213252Y379521D01*
X213285Y379766D01*
X213312Y380012D01*
X213333Y380258D01*
X213348Y380505D01*
X213357Y380753D01*
X213360Y381000D01*
D12*
X198317Y387985D02*
X198317Y392811D01*
X197781Y387985D02*
X198854Y387985D01*
X198854Y392811D02*
X197781Y392811D01*
X202410Y387985D02*
X203482Y387985D01*
X202410Y387985D02*
X202345Y387987D01*
X202281Y387993D01*
X202217Y388003D01*
X202153Y388016D01*
X202091Y388034D01*
X202030Y388055D01*
X201970Y388079D01*
X201912Y388108D01*
X201855Y388140D01*
X201801Y388175D01*
X201749Y388213D01*
X201699Y388255D01*
X201652Y388299D01*
X201608Y388346D01*
X201566Y388396D01*
X201528Y388448D01*
X201493Y388502D01*
X201461Y388559D01*
X201432Y388617D01*
X201408Y388677D01*
X201387Y388738D01*
X201369Y388800D01*
X201356Y388864D01*
X201346Y388928D01*
X201340Y388992D01*
X201338Y389057D01*
X201337Y389057D02*
X201337Y391739D01*
X201338Y391739D02*
X201340Y391804D01*
X201346Y391868D01*
X201356Y391932D01*
X201369Y391996D01*
X201387Y392058D01*
X201408Y392119D01*
X201432Y392179D01*
X201461Y392237D01*
X201493Y392294D01*
X201528Y392348D01*
X201566Y392400D01*
X201608Y392450D01*
X201652Y392497D01*
X201699Y392541D01*
X201749Y392583D01*
X201801Y392621D01*
X201855Y392656D01*
X201912Y392688D01*
X201970Y392717D01*
X202030Y392741D01*
X202091Y392762D01*
X202153Y392780D01*
X202217Y392793D01*
X202281Y392803D01*
X202345Y392809D01*
X202410Y392811D01*
X203482Y392811D01*
X205938Y391739D02*
X207278Y392811D01*
X207278Y387985D01*
X205938Y387985D02*
X208619Y387985D01*
X197982Y267335D02*
X196373Y267335D01*
X197982Y267335D02*
X198047Y267337D01*
X198111Y267343D01*
X198175Y267353D01*
X198239Y267366D01*
X198301Y267384D01*
X198362Y267405D01*
X198422Y267429D01*
X198480Y267458D01*
X198537Y267490D01*
X198591Y267525D01*
X198643Y267563D01*
X198693Y267605D01*
X198740Y267649D01*
X198784Y267696D01*
X198826Y267746D01*
X198864Y267798D01*
X198899Y267852D01*
X198931Y267909D01*
X198960Y267967D01*
X198984Y268027D01*
X199005Y268088D01*
X199023Y268150D01*
X199036Y268214D01*
X199046Y268278D01*
X199052Y268342D01*
X199054Y268407D01*
X199054Y268944D01*
X199052Y269009D01*
X199046Y269073D01*
X199036Y269137D01*
X199023Y269201D01*
X199005Y269263D01*
X198984Y269324D01*
X198960Y269384D01*
X198931Y269442D01*
X198899Y269499D01*
X198864Y269553D01*
X198826Y269605D01*
X198784Y269655D01*
X198740Y269702D01*
X198693Y269746D01*
X198643Y269788D01*
X198591Y269826D01*
X198537Y269861D01*
X198480Y269893D01*
X198422Y269922D01*
X198362Y269946D01*
X198301Y269967D01*
X198239Y269985D01*
X198175Y269998D01*
X198111Y270008D01*
X198047Y270014D01*
X197982Y270016D01*
X196373Y270016D01*
X196373Y272161D01*
X199054Y272161D01*
X201859Y267335D02*
X203468Y267335D01*
X203533Y267337D01*
X203597Y267343D01*
X203661Y267353D01*
X203725Y267366D01*
X203787Y267384D01*
X203848Y267405D01*
X203908Y267429D01*
X203966Y267458D01*
X204023Y267490D01*
X204077Y267525D01*
X204129Y267563D01*
X204179Y267605D01*
X204226Y267649D01*
X204270Y267696D01*
X204312Y267746D01*
X204350Y267798D01*
X204385Y267852D01*
X204417Y267909D01*
X204446Y267967D01*
X204470Y268027D01*
X204491Y268088D01*
X204509Y268150D01*
X204522Y268214D01*
X204532Y268278D01*
X204538Y268342D01*
X204540Y268407D01*
X204541Y268407D02*
X204541Y268944D01*
X204540Y268944D02*
X204538Y269009D01*
X204532Y269073D01*
X204522Y269137D01*
X204509Y269201D01*
X204491Y269263D01*
X204470Y269324D01*
X204446Y269384D01*
X204417Y269442D01*
X204385Y269499D01*
X204350Y269553D01*
X204312Y269605D01*
X204270Y269655D01*
X204226Y269702D01*
X204179Y269746D01*
X204129Y269788D01*
X204077Y269826D01*
X204023Y269861D01*
X203966Y269893D01*
X203908Y269922D01*
X203848Y269946D01*
X203787Y269967D01*
X203725Y269985D01*
X203661Y269998D01*
X203597Y270008D01*
X203533Y270014D01*
X203468Y270016D01*
X201859Y270016D01*
X201859Y272161D01*
X204541Y272161D01*
X207346Y267335D02*
X208954Y267335D01*
X209019Y267337D01*
X209083Y267343D01*
X209147Y267353D01*
X209211Y267366D01*
X209273Y267384D01*
X209334Y267405D01*
X209394Y267429D01*
X209452Y267458D01*
X209509Y267490D01*
X209563Y267525D01*
X209615Y267563D01*
X209665Y267605D01*
X209712Y267649D01*
X209756Y267696D01*
X209798Y267746D01*
X209836Y267798D01*
X209871Y267852D01*
X209903Y267909D01*
X209932Y267967D01*
X209956Y268027D01*
X209977Y268088D01*
X209995Y268150D01*
X210008Y268214D01*
X210018Y268278D01*
X210024Y268342D01*
X210026Y268407D01*
X210027Y268407D02*
X210027Y268944D01*
X210026Y268944D02*
X210024Y269009D01*
X210018Y269073D01*
X210008Y269137D01*
X209995Y269201D01*
X209977Y269263D01*
X209956Y269324D01*
X209932Y269384D01*
X209903Y269442D01*
X209871Y269499D01*
X209836Y269553D01*
X209798Y269605D01*
X209756Y269655D01*
X209712Y269702D01*
X209665Y269746D01*
X209615Y269788D01*
X209563Y269826D01*
X209509Y269861D01*
X209452Y269893D01*
X209394Y269922D01*
X209334Y269946D01*
X209273Y269967D01*
X209211Y269985D01*
X209147Y269998D01*
X209083Y270008D01*
X209019Y270014D01*
X208954Y270016D01*
X207346Y270016D01*
X207346Y272161D01*
X210027Y272161D01*
D13*
X1500Y208100D02*
X1500Y109100D01*
X59000Y109100D02*
X59000Y208100D01*
X59000Y109100D02*
X1500Y109100D01*
X1500Y208100D02*
X59000Y208100D01*
X59500Y258000D02*
X59500Y332000D01*
X2000Y332000D01*
X2000Y258000D02*
X59500Y258000D01*
X2000Y258000D02*
X2000Y332000D01*
D12*
X306070Y220980D02*
X306070Y210820D01*
D14*
X288970Y225189D02*
X289190Y224644D01*
X289396Y224094D01*
X289589Y223540D01*
X289768Y222980D01*
X289933Y222417D01*
X290085Y221849D01*
X290223Y221278D01*
X290347Y220704D01*
X290457Y220127D01*
X290553Y219548D01*
X290634Y218966D01*
X290702Y218382D01*
X290755Y217798D01*
X290794Y217211D01*
X290819Y216625D01*
X290830Y216037D01*
X290826Y215450D01*
X290808Y214863D01*
X290775Y214276D01*
X290729Y213691D01*
X290668Y213107D01*
X290593Y212524D01*
X290503Y211944D01*
X290400Y211365D01*
X290283Y210790D01*
X290151Y210217D01*
X290006Y209648D01*
X289847Y209083D01*
X289674Y208522D01*
X289488Y207965D01*
X289288Y207412D01*
X289075Y206865D01*
X288848Y206323D01*
X288609Y205787D01*
X288356Y205257D01*
X288090Y204733D01*
X287812Y204215D01*
X287522Y203705D01*
X287219Y203202D01*
X286904Y202706D01*
X286576Y202218D01*
X286238Y201738D01*
X285887Y201267D01*
X285525Y200804D01*
X285152Y200351D01*
X284768Y199906D01*
X284374Y199471D01*
X283969Y199046D01*
X283553Y198630D01*
X283128Y198225D01*
X282693Y197831D01*
X282248Y197447D01*
X281795Y197074D01*
X281332Y196712D01*
X280861Y196361D01*
X280381Y196023D01*
X279893Y195695D01*
X279397Y195380D01*
X278894Y195077D01*
X278384Y194787D01*
X277866Y194509D01*
X277342Y194243D01*
X276812Y193990D01*
X276276Y193751D01*
X275734Y193524D01*
X275187Y193311D01*
X274634Y193111D01*
X274077Y192925D01*
X273516Y192752D01*
X272951Y192593D01*
X272382Y192448D01*
X271809Y192316D01*
X271234Y192199D01*
X270655Y192096D01*
X270075Y192006D01*
X269492Y191931D01*
X268908Y191870D01*
X268323Y191824D01*
X267736Y191791D01*
X267149Y191773D01*
X266562Y191769D01*
X265974Y191780D01*
X265388Y191805D01*
X264801Y191844D01*
X264217Y191897D01*
X263633Y191965D01*
X263051Y192046D01*
X262472Y192142D01*
X261895Y192252D01*
X261321Y192376D01*
X260750Y192514D01*
X260182Y192666D01*
X259619Y192831D01*
X259059Y193010D01*
X258505Y193203D01*
X257955Y193409D01*
X257410Y193629D01*
D12*
X295465Y220980D02*
X306070Y220980D01*
D14*
X275989Y238170D02*
X275453Y238386D01*
X274912Y238590D01*
X274366Y238780D01*
X273816Y238957D01*
X273262Y239121D01*
X272704Y239271D01*
X272143Y239408D01*
X271578Y239532D01*
X271011Y239642D01*
X270441Y239738D01*
X269869Y239821D01*
X269296Y239890D01*
X268720Y239945D01*
X268144Y239987D01*
X267567Y240014D01*
X266989Y240028D01*
X266411Y240028D01*
X265833Y240014D01*
X265256Y239987D01*
X264680Y239945D01*
X264104Y239890D01*
X263531Y239821D01*
X262959Y239738D01*
X262389Y239642D01*
X261822Y239532D01*
X261257Y239408D01*
X260696Y239271D01*
X260138Y239121D01*
X259584Y238957D01*
X259034Y238780D01*
X258488Y238590D01*
X257947Y238386D01*
X257411Y238170D01*
D12*
X295465Y210820D02*
X306070Y210820D01*
D14*
X244430Y206611D02*
X244214Y207147D01*
X244010Y207688D01*
X243820Y208234D01*
X243643Y208784D01*
X243479Y209338D01*
X243329Y209896D01*
X243192Y210457D01*
X243068Y211022D01*
X242958Y211589D01*
X242862Y212159D01*
X242779Y212731D01*
X242710Y213304D01*
X242655Y213880D01*
X242613Y214456D01*
X242586Y215033D01*
X242572Y215611D01*
X242572Y216189D01*
X242586Y216767D01*
X242613Y217344D01*
X242655Y217920D01*
X242710Y218496D01*
X242779Y219069D01*
X242862Y219641D01*
X242958Y220211D01*
X243068Y220778D01*
X243192Y221343D01*
X243329Y221904D01*
X243479Y222462D01*
X243643Y223016D01*
X243820Y223566D01*
X244010Y224112D01*
X244214Y224653D01*
X244430Y225189D01*
D12*
X237490Y215900D02*
X237499Y216617D01*
X237525Y217333D01*
X237569Y218049D01*
X237631Y218763D01*
X237710Y219476D01*
X237806Y220186D01*
X237920Y220894D01*
X238051Y221599D01*
X238200Y222300D01*
X238365Y222997D01*
X238548Y223691D01*
X238748Y224379D01*
X238964Y225063D01*
X239197Y225741D01*
X239447Y226413D01*
X239713Y227078D01*
X239996Y227737D01*
X240294Y228389D01*
X240609Y229033D01*
X240939Y229669D01*
X241285Y230298D01*
X241646Y230917D01*
X242022Y231527D01*
X242413Y232128D01*
X242818Y232719D01*
X243238Y233300D01*
X243672Y233871D01*
X244120Y234431D01*
X244582Y234979D01*
X245057Y235516D01*
X245545Y236041D01*
X246045Y236555D01*
X246559Y237055D01*
X247084Y237543D01*
X247621Y238018D01*
X248169Y238480D01*
X248729Y238928D01*
X249300Y239362D01*
X249881Y239782D01*
X250472Y240187D01*
X251073Y240578D01*
X251683Y240954D01*
X252302Y241315D01*
X252931Y241661D01*
X253567Y241991D01*
X254211Y242306D01*
X254863Y242604D01*
X255522Y242887D01*
X256187Y243153D01*
X256859Y243403D01*
X257537Y243636D01*
X258221Y243852D01*
X258909Y244052D01*
X259603Y244235D01*
X260300Y244400D01*
X261001Y244549D01*
X261706Y244680D01*
X262414Y244794D01*
X263124Y244890D01*
X263837Y244969D01*
X264551Y245031D01*
X265267Y245075D01*
X265983Y245101D01*
X266700Y245110D01*
X267417Y245101D01*
X268133Y245075D01*
X268849Y245031D01*
X269563Y244969D01*
X270276Y244890D01*
X270986Y244794D01*
X271694Y244680D01*
X272399Y244549D01*
X273100Y244400D01*
X273797Y244235D01*
X274491Y244052D01*
X275179Y243852D01*
X275863Y243636D01*
X276541Y243403D01*
X277213Y243153D01*
X277878Y242887D01*
X278537Y242604D01*
X279189Y242306D01*
X279833Y241991D01*
X280469Y241661D01*
X281098Y241315D01*
X281717Y240954D01*
X282327Y240578D01*
X282928Y240187D01*
X283519Y239782D01*
X284100Y239362D01*
X284671Y238928D01*
X285231Y238480D01*
X285779Y238018D01*
X286316Y237543D01*
X286841Y237055D01*
X287355Y236555D01*
X287855Y236041D01*
X288343Y235516D01*
X288818Y234979D01*
X289280Y234431D01*
X289728Y233871D01*
X290162Y233300D01*
X290582Y232719D01*
X290987Y232128D01*
X291378Y231527D01*
X291754Y230917D01*
X292115Y230298D01*
X292461Y229669D01*
X292791Y229033D01*
X293106Y228389D01*
X293404Y227737D01*
X293687Y227078D01*
X293953Y226413D01*
X294203Y225741D01*
X294436Y225063D01*
X294652Y224379D01*
X294852Y223691D01*
X295035Y222997D01*
X295200Y222300D01*
X295349Y221599D01*
X295480Y220894D01*
X295594Y220186D01*
X295690Y219476D01*
X295769Y218763D01*
X295831Y218049D01*
X295875Y217333D01*
X295901Y216617D01*
X295910Y215900D01*
X295901Y215183D01*
X295875Y214467D01*
X295831Y213751D01*
X295769Y213037D01*
X295690Y212324D01*
X295594Y211614D01*
X295480Y210906D01*
X295349Y210201D01*
X295200Y209500D01*
X295035Y208803D01*
X294852Y208109D01*
X294652Y207421D01*
X294436Y206737D01*
X294203Y206059D01*
X293953Y205387D01*
X293687Y204722D01*
X293404Y204063D01*
X293106Y203411D01*
X292791Y202767D01*
X292461Y202131D01*
X292115Y201502D01*
X291754Y200883D01*
X291378Y200273D01*
X290987Y199672D01*
X290582Y199081D01*
X290162Y198500D01*
X289728Y197929D01*
X289280Y197369D01*
X288818Y196821D01*
X288343Y196284D01*
X287855Y195759D01*
X287355Y195245D01*
X286841Y194745D01*
X286316Y194257D01*
X285779Y193782D01*
X285231Y193320D01*
X284671Y192872D01*
X284100Y192438D01*
X283519Y192018D01*
X282928Y191613D01*
X282327Y191222D01*
X281717Y190846D01*
X281098Y190485D01*
X280469Y190139D01*
X279833Y189809D01*
X279189Y189494D01*
X278537Y189196D01*
X277878Y188913D01*
X277213Y188647D01*
X276541Y188397D01*
X275863Y188164D01*
X275179Y187948D01*
X274491Y187748D01*
X273797Y187565D01*
X273100Y187400D01*
X272399Y187251D01*
X271694Y187120D01*
X270986Y187006D01*
X270276Y186910D01*
X269563Y186831D01*
X268849Y186769D01*
X268133Y186725D01*
X267417Y186699D01*
X266700Y186690D01*
X265983Y186699D01*
X265267Y186725D01*
X264551Y186769D01*
X263837Y186831D01*
X263124Y186910D01*
X262414Y187006D01*
X261706Y187120D01*
X261001Y187251D01*
X260300Y187400D01*
X259603Y187565D01*
X258909Y187748D01*
X258221Y187948D01*
X257537Y188164D01*
X256859Y188397D01*
X256187Y188647D01*
X255522Y188913D01*
X254863Y189196D01*
X254211Y189494D01*
X253567Y189809D01*
X252931Y190139D01*
X252302Y190485D01*
X251683Y190846D01*
X251073Y191222D01*
X250472Y191613D01*
X249881Y192018D01*
X249300Y192438D01*
X248729Y192872D01*
X248169Y193320D01*
X247621Y193782D01*
X247084Y194257D01*
X246559Y194745D01*
X246045Y195245D01*
X245545Y195759D01*
X245057Y196284D01*
X244582Y196821D01*
X244120Y197369D01*
X243672Y197929D01*
X243238Y198500D01*
X242818Y199081D01*
X242413Y199672D01*
X242022Y200273D01*
X241646Y200883D01*
X241285Y201502D01*
X240939Y202131D01*
X240609Y202767D01*
X240294Y203411D01*
X239996Y204063D01*
X239713Y204722D01*
X239447Y205387D01*
X239197Y206059D01*
X238964Y206737D01*
X238748Y207421D01*
X238548Y208109D01*
X238365Y208803D01*
X238200Y209500D01*
X238051Y210201D01*
X237920Y210906D01*
X237806Y211614D01*
X237710Y212324D01*
X237631Y213037D01*
X237569Y213751D01*
X237525Y214467D01*
X237499Y215183D01*
X237490Y215900D01*
D11*
X218600Y426720D02*
X269400Y426720D01*
X269400Y419100D01*
X269400Y411480D01*
X218600Y411480D01*
X218600Y419100D01*
X218600Y426720D01*
X269400Y419100D02*
X271940Y419100D01*
X218600Y419100D02*
X216060Y419100D01*
D12*
X239948Y429895D02*
X239948Y434721D01*
X241289Y434721D01*
X241360Y434719D01*
X241432Y434713D01*
X241502Y434704D01*
X241572Y434691D01*
X241642Y434674D01*
X241710Y434653D01*
X241777Y434629D01*
X241843Y434601D01*
X241907Y434570D01*
X241970Y434535D01*
X242030Y434497D01*
X242089Y434456D01*
X242145Y434412D01*
X242199Y434365D01*
X242250Y434316D01*
X242298Y434263D01*
X242344Y434208D01*
X242386Y434151D01*
X242426Y434091D01*
X242462Y434030D01*
X242495Y433966D01*
X242524Y433901D01*
X242550Y433835D01*
X242573Y433767D01*
X242592Y433698D01*
X242607Y433628D01*
X242618Y433558D01*
X242626Y433487D01*
X242630Y433416D01*
X242630Y433344D01*
X242626Y433273D01*
X242618Y433202D01*
X242607Y433132D01*
X242592Y433062D01*
X242573Y432993D01*
X242550Y432925D01*
X242524Y432859D01*
X242495Y432794D01*
X242462Y432730D01*
X242426Y432669D01*
X242386Y432609D01*
X242344Y432552D01*
X242298Y432497D01*
X242250Y432444D01*
X242199Y432395D01*
X242145Y432348D01*
X242089Y432304D01*
X242030Y432263D01*
X241970Y432225D01*
X241907Y432190D01*
X241843Y432159D01*
X241777Y432131D01*
X241710Y432107D01*
X241642Y432086D01*
X241572Y432069D01*
X241502Y432056D01*
X241432Y432047D01*
X241360Y432041D01*
X241289Y432039D01*
X241289Y432040D02*
X239948Y432040D01*
X241557Y432040D02*
X242629Y429895D01*
X245371Y433649D02*
X246711Y434721D01*
X246711Y429895D01*
X245371Y429895D02*
X248052Y429895D01*
X238681Y408305D02*
X237340Y407233D01*
X238681Y408305D02*
X238681Y403479D01*
X240021Y403479D02*
X237340Y403479D01*
X242826Y405892D02*
X242828Y406012D01*
X242833Y406132D01*
X242842Y406252D01*
X242855Y406372D01*
X242871Y406491D01*
X242891Y406610D01*
X242915Y406728D01*
X242942Y406845D01*
X242972Y406961D01*
X243006Y407076D01*
X243044Y407191D01*
X243085Y407304D01*
X243129Y407415D01*
X243177Y407526D01*
X243228Y407635D01*
X243229Y407635D02*
X243250Y407692D01*
X243276Y407748D01*
X243304Y407803D01*
X243336Y407855D01*
X243372Y407906D01*
X243410Y407954D01*
X243451Y408000D01*
X243495Y408043D01*
X243541Y408083D01*
X243590Y408120D01*
X243642Y408154D01*
X243695Y408185D01*
X243750Y408213D01*
X243806Y408237D01*
X243864Y408258D01*
X243923Y408275D01*
X243983Y408288D01*
X244044Y408297D01*
X244106Y408303D01*
X244167Y408305D01*
X244228Y408303D01*
X244290Y408297D01*
X244351Y408288D01*
X244411Y408275D01*
X244470Y408258D01*
X244528Y408237D01*
X244584Y408213D01*
X244639Y408185D01*
X244692Y408154D01*
X244744Y408120D01*
X244793Y408083D01*
X244839Y408043D01*
X244883Y408000D01*
X244924Y407954D01*
X244962Y407906D01*
X244998Y407855D01*
X245030Y407803D01*
X245058Y407748D01*
X245084Y407692D01*
X245105Y407635D01*
X245156Y407526D01*
X245204Y407415D01*
X245248Y407304D01*
X245289Y407191D01*
X245327Y407076D01*
X245361Y406961D01*
X245391Y406845D01*
X245418Y406728D01*
X245442Y406610D01*
X245462Y406491D01*
X245478Y406372D01*
X245491Y406252D01*
X245500Y406132D01*
X245505Y406012D01*
X245507Y405892D01*
X242827Y405892D02*
X242829Y405772D01*
X242834Y405652D01*
X242843Y405532D01*
X242856Y405412D01*
X242872Y405293D01*
X242892Y405174D01*
X242916Y405056D01*
X242943Y404939D01*
X242973Y404823D01*
X243007Y404708D01*
X243045Y404593D01*
X243086Y404480D01*
X243130Y404369D01*
X243178Y404258D01*
X243229Y404149D01*
X243250Y404092D01*
X243276Y404036D01*
X243304Y403981D01*
X243336Y403929D01*
X243372Y403878D01*
X243410Y403830D01*
X243451Y403784D01*
X243495Y403741D01*
X243541Y403701D01*
X243590Y403664D01*
X243642Y403630D01*
X243695Y403599D01*
X243750Y403571D01*
X243806Y403547D01*
X243864Y403526D01*
X243923Y403509D01*
X243983Y403496D01*
X244044Y403487D01*
X244106Y403481D01*
X244167Y403479D01*
X245105Y404149D02*
X245156Y404258D01*
X245204Y404369D01*
X245248Y404480D01*
X245289Y404593D01*
X245327Y404708D01*
X245361Y404823D01*
X245391Y404939D01*
X245418Y405056D01*
X245442Y405174D01*
X245462Y405293D01*
X245478Y405412D01*
X245491Y405532D01*
X245500Y405652D01*
X245505Y405772D01*
X245507Y405892D01*
X245105Y404149D02*
X245084Y404092D01*
X245058Y404036D01*
X245030Y403981D01*
X244998Y403929D01*
X244962Y403878D01*
X244924Y403830D01*
X244883Y403784D01*
X244839Y403741D01*
X244792Y403701D01*
X244744Y403664D01*
X244692Y403630D01*
X244639Y403599D01*
X244584Y403571D01*
X244528Y403547D01*
X244470Y403526D01*
X244411Y403509D01*
X244351Y403496D01*
X244290Y403487D01*
X244228Y403481D01*
X244167Y403479D01*
X243094Y404551D02*
X245239Y407233D01*
X248515Y408305D02*
X248515Y403479D01*
X248515Y405088D02*
X250660Y406696D01*
X249454Y405758D02*
X250660Y403479D01*
D11*
X309880Y406400D02*
X309880Y355600D01*
X309880Y406400D02*
X317500Y406400D01*
X325120Y406400D01*
X325120Y355600D01*
X317500Y355600D01*
X309880Y355600D01*
X317500Y406400D02*
X317500Y408940D01*
X317500Y355600D02*
X317500Y353060D01*
D12*
X306705Y376948D02*
X301879Y376948D01*
X301879Y378289D01*
X301881Y378360D01*
X301887Y378432D01*
X301896Y378502D01*
X301909Y378572D01*
X301926Y378642D01*
X301947Y378710D01*
X301971Y378777D01*
X301999Y378843D01*
X302030Y378907D01*
X302065Y378970D01*
X302103Y379030D01*
X302144Y379089D01*
X302188Y379145D01*
X302235Y379199D01*
X302284Y379250D01*
X302337Y379298D01*
X302392Y379344D01*
X302449Y379386D01*
X302509Y379426D01*
X302570Y379462D01*
X302634Y379495D01*
X302699Y379524D01*
X302765Y379550D01*
X302833Y379573D01*
X302902Y379592D01*
X302972Y379607D01*
X303042Y379618D01*
X303113Y379626D01*
X303184Y379630D01*
X303256Y379630D01*
X303327Y379626D01*
X303398Y379618D01*
X303468Y379607D01*
X303538Y379592D01*
X303607Y379573D01*
X303675Y379550D01*
X303741Y379524D01*
X303806Y379495D01*
X303870Y379462D01*
X303931Y379426D01*
X303991Y379386D01*
X304048Y379344D01*
X304103Y379298D01*
X304156Y379250D01*
X304205Y379199D01*
X304252Y379145D01*
X304296Y379089D01*
X304337Y379030D01*
X304375Y378970D01*
X304410Y378907D01*
X304441Y378843D01*
X304469Y378777D01*
X304493Y378710D01*
X304514Y378642D01*
X304531Y378572D01*
X304544Y378502D01*
X304553Y378432D01*
X304559Y378360D01*
X304561Y378289D01*
X304560Y378289D02*
X304560Y376948D01*
X304560Y378557D02*
X306705Y379629D01*
X301879Y383845D02*
X301881Y383913D01*
X301887Y383980D01*
X301896Y384047D01*
X301909Y384114D01*
X301926Y384179D01*
X301947Y384244D01*
X301971Y384307D01*
X301999Y384369D01*
X302030Y384429D01*
X302064Y384487D01*
X302102Y384543D01*
X302142Y384598D01*
X302186Y384649D01*
X302233Y384698D01*
X302282Y384745D01*
X302333Y384789D01*
X302388Y384829D01*
X302444Y384867D01*
X302502Y384901D01*
X302562Y384932D01*
X302624Y384960D01*
X302687Y384984D01*
X302752Y385005D01*
X302817Y385022D01*
X302884Y385035D01*
X302951Y385044D01*
X303018Y385050D01*
X303086Y385052D01*
X301879Y383845D02*
X301881Y383767D01*
X301887Y383689D01*
X301897Y383612D01*
X301910Y383535D01*
X301928Y383459D01*
X301949Y383384D01*
X301974Y383310D01*
X302003Y383238D01*
X302035Y383167D01*
X302071Y383098D01*
X302110Y383030D01*
X302153Y382965D01*
X302199Y382902D01*
X302248Y382841D01*
X302300Y382783D01*
X302355Y382728D01*
X302412Y382675D01*
X302472Y382626D01*
X302535Y382579D01*
X302600Y382536D01*
X302666Y382496D01*
X302735Y382459D01*
X302806Y382426D01*
X302878Y382396D01*
X302952Y382370D01*
X304024Y384650D02*
X303975Y384699D01*
X303923Y384746D01*
X303868Y384789D01*
X303811Y384830D01*
X303752Y384868D01*
X303691Y384902D01*
X303628Y384933D01*
X303564Y384961D01*
X303498Y384985D01*
X303432Y385005D01*
X303364Y385022D01*
X303295Y385035D01*
X303226Y385044D01*
X303156Y385050D01*
X303086Y385052D01*
X304024Y384650D02*
X306705Y382371D01*
X306705Y385052D01*
X328295Y372937D02*
X329367Y371597D01*
X328295Y372937D02*
X333121Y372937D01*
X333121Y371597D02*
X333121Y374278D01*
X330708Y377083D02*
X330588Y377085D01*
X330468Y377090D01*
X330348Y377099D01*
X330228Y377112D01*
X330109Y377128D01*
X329990Y377148D01*
X329872Y377172D01*
X329755Y377199D01*
X329639Y377229D01*
X329524Y377263D01*
X329409Y377301D01*
X329296Y377342D01*
X329185Y377386D01*
X329074Y377434D01*
X328965Y377485D01*
X328965Y377486D02*
X328908Y377507D01*
X328852Y377533D01*
X328797Y377561D01*
X328745Y377593D01*
X328694Y377629D01*
X328646Y377667D01*
X328600Y377708D01*
X328557Y377752D01*
X328517Y377798D01*
X328480Y377847D01*
X328446Y377899D01*
X328415Y377952D01*
X328387Y378007D01*
X328363Y378063D01*
X328342Y378121D01*
X328325Y378180D01*
X328312Y378240D01*
X328303Y378301D01*
X328297Y378363D01*
X328295Y378424D01*
X328297Y378485D01*
X328303Y378547D01*
X328312Y378608D01*
X328325Y378668D01*
X328342Y378727D01*
X328363Y378785D01*
X328387Y378841D01*
X328415Y378896D01*
X328446Y378949D01*
X328480Y379001D01*
X328517Y379050D01*
X328557Y379096D01*
X328600Y379140D01*
X328646Y379181D01*
X328694Y379219D01*
X328745Y379255D01*
X328797Y379287D01*
X328852Y379315D01*
X328908Y379341D01*
X328965Y379362D01*
X329074Y379413D01*
X329185Y379461D01*
X329296Y379505D01*
X329409Y379546D01*
X329524Y379584D01*
X329639Y379618D01*
X329755Y379648D01*
X329872Y379675D01*
X329990Y379699D01*
X330109Y379719D01*
X330228Y379735D01*
X330348Y379748D01*
X330468Y379757D01*
X330588Y379762D01*
X330708Y379764D01*
X330708Y377083D02*
X330828Y377085D01*
X330948Y377090D01*
X331068Y377099D01*
X331188Y377112D01*
X331307Y377128D01*
X331426Y377148D01*
X331544Y377172D01*
X331661Y377199D01*
X331777Y377229D01*
X331892Y377263D01*
X332007Y377301D01*
X332120Y377342D01*
X332231Y377386D01*
X332342Y377434D01*
X332451Y377485D01*
X332451Y377486D02*
X332508Y377507D01*
X332564Y377533D01*
X332619Y377561D01*
X332671Y377593D01*
X332722Y377629D01*
X332770Y377667D01*
X332816Y377708D01*
X332859Y377752D01*
X332899Y377798D01*
X332936Y377847D01*
X332970Y377899D01*
X333001Y377952D01*
X333029Y378007D01*
X333053Y378063D01*
X333074Y378121D01*
X333091Y378180D01*
X333104Y378240D01*
X333113Y378301D01*
X333119Y378363D01*
X333121Y378424D01*
X332451Y379362D02*
X332342Y379413D01*
X332231Y379461D01*
X332120Y379505D01*
X332007Y379546D01*
X331892Y379584D01*
X331777Y379618D01*
X331661Y379648D01*
X331544Y379675D01*
X331426Y379699D01*
X331307Y379719D01*
X331188Y379735D01*
X331068Y379748D01*
X330948Y379757D01*
X330828Y379762D01*
X330708Y379764D01*
X332451Y379362D02*
X332508Y379341D01*
X332564Y379315D01*
X332619Y379287D01*
X332671Y379255D01*
X332722Y379219D01*
X332770Y379181D01*
X332816Y379140D01*
X332859Y379096D01*
X332899Y379049D01*
X332936Y379001D01*
X332970Y378949D01*
X333001Y378896D01*
X333029Y378841D01*
X333053Y378785D01*
X333074Y378727D01*
X333091Y378668D01*
X333104Y378608D01*
X333113Y378547D01*
X333119Y378485D01*
X333121Y378424D01*
X332049Y377351D02*
X329367Y379496D01*
X330708Y382570D02*
X330588Y382572D01*
X330468Y382577D01*
X330348Y382586D01*
X330228Y382599D01*
X330109Y382615D01*
X329990Y382635D01*
X329872Y382659D01*
X329755Y382686D01*
X329639Y382716D01*
X329524Y382750D01*
X329409Y382788D01*
X329296Y382829D01*
X329185Y382873D01*
X329074Y382921D01*
X328965Y382972D01*
X328908Y382993D01*
X328852Y383019D01*
X328797Y383047D01*
X328745Y383079D01*
X328694Y383115D01*
X328646Y383153D01*
X328600Y383194D01*
X328557Y383238D01*
X328517Y383284D01*
X328480Y383333D01*
X328446Y383385D01*
X328415Y383438D01*
X328387Y383493D01*
X328363Y383549D01*
X328342Y383607D01*
X328325Y383666D01*
X328312Y383726D01*
X328303Y383787D01*
X328297Y383849D01*
X328295Y383910D01*
X328297Y383971D01*
X328303Y384033D01*
X328312Y384094D01*
X328325Y384154D01*
X328342Y384213D01*
X328363Y384271D01*
X328387Y384327D01*
X328415Y384382D01*
X328446Y384435D01*
X328480Y384487D01*
X328517Y384536D01*
X328557Y384582D01*
X328600Y384626D01*
X328646Y384667D01*
X328694Y384705D01*
X328745Y384741D01*
X328797Y384773D01*
X328852Y384801D01*
X328908Y384827D01*
X328965Y384848D01*
X329074Y384899D01*
X329185Y384947D01*
X329296Y384991D01*
X329409Y385032D01*
X329524Y385070D01*
X329639Y385104D01*
X329755Y385134D01*
X329872Y385161D01*
X329990Y385185D01*
X330109Y385205D01*
X330228Y385221D01*
X330348Y385234D01*
X330468Y385243D01*
X330588Y385248D01*
X330708Y385250D01*
X330708Y382570D02*
X330828Y382572D01*
X330948Y382577D01*
X331068Y382586D01*
X331188Y382599D01*
X331307Y382615D01*
X331426Y382635D01*
X331544Y382659D01*
X331661Y382686D01*
X331777Y382716D01*
X331892Y382750D01*
X332007Y382788D01*
X332120Y382829D01*
X332231Y382873D01*
X332342Y382921D01*
X332451Y382972D01*
X332508Y382993D01*
X332564Y383019D01*
X332619Y383047D01*
X332671Y383079D01*
X332722Y383115D01*
X332770Y383153D01*
X332816Y383194D01*
X332859Y383238D01*
X332899Y383284D01*
X332936Y383333D01*
X332970Y383385D01*
X333001Y383438D01*
X333029Y383493D01*
X333053Y383549D01*
X333074Y383607D01*
X333091Y383666D01*
X333104Y383726D01*
X333113Y383787D01*
X333119Y383849D01*
X333121Y383910D01*
X332451Y384848D02*
X332342Y384899D01*
X332231Y384947D01*
X332120Y384991D01*
X332007Y385032D01*
X331892Y385070D01*
X331777Y385104D01*
X331661Y385134D01*
X331544Y385161D01*
X331426Y385185D01*
X331307Y385205D01*
X331188Y385221D01*
X331068Y385234D01*
X330948Y385243D01*
X330828Y385248D01*
X330708Y385250D01*
X332451Y384848D02*
X332508Y384827D01*
X332564Y384801D01*
X332619Y384773D01*
X332671Y384741D01*
X332722Y384705D01*
X332770Y384667D01*
X332816Y384626D01*
X332859Y384582D01*
X332899Y384535D01*
X332936Y384487D01*
X332970Y384435D01*
X333001Y384382D01*
X333029Y384327D01*
X333053Y384271D01*
X333074Y384213D01*
X333091Y384154D01*
X333104Y384094D01*
X333113Y384033D01*
X333119Y383971D01*
X333121Y383910D01*
X332049Y382838D02*
X329367Y384983D01*
X328295Y388258D02*
X333121Y388258D01*
X331512Y388258D02*
X329904Y390403D01*
X330842Y389197D02*
X333121Y390403D01*
D11*
X123320Y389800D02*
X123320Y339000D01*
X115700Y339000D01*
X108080Y339000D01*
X108080Y389800D01*
X115700Y389800D01*
X123320Y389800D01*
X115700Y339000D02*
X115700Y336460D01*
X115700Y389800D02*
X115700Y392340D01*
D12*
X126495Y360348D02*
X131321Y360348D01*
X126495Y360348D02*
X126495Y361689D01*
X126497Y361760D01*
X126503Y361832D01*
X126512Y361902D01*
X126525Y361972D01*
X126542Y362042D01*
X126563Y362110D01*
X126587Y362177D01*
X126615Y362243D01*
X126646Y362307D01*
X126681Y362370D01*
X126719Y362430D01*
X126760Y362489D01*
X126804Y362545D01*
X126851Y362599D01*
X126900Y362650D01*
X126953Y362698D01*
X127008Y362744D01*
X127065Y362786D01*
X127125Y362826D01*
X127186Y362862D01*
X127250Y362895D01*
X127315Y362924D01*
X127381Y362950D01*
X127449Y362973D01*
X127518Y362992D01*
X127588Y363007D01*
X127658Y363018D01*
X127729Y363026D01*
X127800Y363030D01*
X127872Y363030D01*
X127943Y363026D01*
X128014Y363018D01*
X128084Y363007D01*
X128154Y362992D01*
X128223Y362973D01*
X128291Y362950D01*
X128357Y362924D01*
X128422Y362895D01*
X128486Y362862D01*
X128547Y362826D01*
X128607Y362786D01*
X128664Y362744D01*
X128719Y362698D01*
X128772Y362650D01*
X128821Y362599D01*
X128868Y362545D01*
X128912Y362489D01*
X128953Y362430D01*
X128991Y362370D01*
X129026Y362307D01*
X129057Y362243D01*
X129085Y362177D01*
X129109Y362110D01*
X129130Y362042D01*
X129147Y361972D01*
X129160Y361902D01*
X129169Y361832D01*
X129175Y361760D01*
X129177Y361689D01*
X129176Y361689D02*
X129176Y360348D01*
X129176Y361957D02*
X131321Y363029D01*
X131321Y365771D02*
X131321Y367111D01*
X131319Y367182D01*
X131313Y367254D01*
X131304Y367324D01*
X131291Y367394D01*
X131274Y367464D01*
X131253Y367532D01*
X131229Y367599D01*
X131201Y367665D01*
X131170Y367729D01*
X131135Y367792D01*
X131097Y367852D01*
X131056Y367911D01*
X131012Y367967D01*
X130965Y368021D01*
X130916Y368072D01*
X130863Y368120D01*
X130808Y368166D01*
X130751Y368208D01*
X130691Y368248D01*
X130630Y368284D01*
X130566Y368317D01*
X130501Y368346D01*
X130435Y368372D01*
X130367Y368395D01*
X130298Y368414D01*
X130228Y368429D01*
X130158Y368440D01*
X130087Y368448D01*
X130016Y368452D01*
X129944Y368452D01*
X129873Y368448D01*
X129802Y368440D01*
X129732Y368429D01*
X129662Y368414D01*
X129593Y368395D01*
X129525Y368372D01*
X129459Y368346D01*
X129394Y368317D01*
X129330Y368284D01*
X129269Y368248D01*
X129209Y368208D01*
X129152Y368166D01*
X129097Y368120D01*
X129044Y368072D01*
X128995Y368021D01*
X128948Y367967D01*
X128904Y367911D01*
X128863Y367852D01*
X128825Y367792D01*
X128790Y367729D01*
X128759Y367665D01*
X128731Y367599D01*
X128707Y367532D01*
X128686Y367464D01*
X128669Y367394D01*
X128656Y367324D01*
X128647Y367254D01*
X128641Y367182D01*
X128639Y367111D01*
X126495Y367379D02*
X126495Y365771D01*
X126495Y367379D02*
X126497Y367444D01*
X126503Y367508D01*
X126513Y367572D01*
X126526Y367636D01*
X126544Y367698D01*
X126565Y367759D01*
X126589Y367819D01*
X126618Y367877D01*
X126650Y367934D01*
X126685Y367988D01*
X126723Y368040D01*
X126765Y368090D01*
X126809Y368137D01*
X126856Y368181D01*
X126906Y368223D01*
X126958Y368261D01*
X127012Y368296D01*
X127069Y368328D01*
X127127Y368357D01*
X127187Y368381D01*
X127248Y368402D01*
X127310Y368420D01*
X127374Y368433D01*
X127438Y368443D01*
X127502Y368449D01*
X127567Y368451D01*
X127632Y368449D01*
X127696Y368443D01*
X127760Y368433D01*
X127824Y368420D01*
X127886Y368402D01*
X127947Y368381D01*
X128007Y368357D01*
X128065Y368328D01*
X128122Y368296D01*
X128176Y368261D01*
X128228Y368223D01*
X128278Y368181D01*
X128325Y368137D01*
X128369Y368090D01*
X128411Y368040D01*
X128449Y367988D01*
X128484Y367934D01*
X128516Y367877D01*
X128545Y367819D01*
X128569Y367759D01*
X128590Y367698D01*
X128608Y367636D01*
X128621Y367572D01*
X128631Y367508D01*
X128637Y367444D01*
X128639Y367379D01*
X128640Y367379D02*
X128640Y366307D01*
X101151Y360483D02*
X100079Y361824D01*
X104905Y361824D01*
X104905Y363164D02*
X104905Y360483D01*
X104905Y366172D02*
X100079Y366172D01*
X101688Y368317D02*
X103296Y366172D01*
X102626Y367110D02*
X104905Y368317D01*
D11*
X134620Y190500D02*
X134620Y139700D01*
X127000Y139700D01*
X119380Y139700D01*
X119380Y190500D01*
X127000Y190500D01*
X134620Y190500D01*
X127000Y139700D02*
X127000Y137160D01*
X127000Y190500D02*
X127000Y193040D01*
D12*
X112621Y161048D02*
X107795Y161048D01*
X107795Y162389D01*
X107797Y162460D01*
X107803Y162532D01*
X107812Y162602D01*
X107825Y162672D01*
X107842Y162742D01*
X107863Y162810D01*
X107887Y162877D01*
X107915Y162943D01*
X107946Y163007D01*
X107981Y163070D01*
X108019Y163130D01*
X108060Y163189D01*
X108104Y163245D01*
X108151Y163299D01*
X108200Y163350D01*
X108253Y163398D01*
X108308Y163444D01*
X108365Y163486D01*
X108425Y163526D01*
X108486Y163562D01*
X108550Y163595D01*
X108615Y163624D01*
X108681Y163650D01*
X108749Y163673D01*
X108818Y163692D01*
X108888Y163707D01*
X108958Y163718D01*
X109029Y163726D01*
X109100Y163730D01*
X109172Y163730D01*
X109243Y163726D01*
X109314Y163718D01*
X109384Y163707D01*
X109454Y163692D01*
X109523Y163673D01*
X109591Y163650D01*
X109657Y163624D01*
X109722Y163595D01*
X109786Y163562D01*
X109847Y163526D01*
X109907Y163486D01*
X109964Y163444D01*
X110019Y163398D01*
X110072Y163350D01*
X110121Y163299D01*
X110168Y163245D01*
X110212Y163189D01*
X110253Y163130D01*
X110291Y163070D01*
X110326Y163007D01*
X110357Y162943D01*
X110385Y162877D01*
X110409Y162810D01*
X110430Y162742D01*
X110447Y162672D01*
X110460Y162602D01*
X110469Y162532D01*
X110475Y162460D01*
X110477Y162389D01*
X110476Y162389D02*
X110476Y161048D01*
X110476Y162657D02*
X112621Y163729D01*
X111549Y166471D02*
X107795Y167543D01*
X111549Y166471D02*
X111549Y169152D01*
X110476Y168348D02*
X112621Y168348D01*
X146205Y159614D02*
X146205Y158273D01*
X146205Y159614D02*
X146203Y159685D01*
X146197Y159757D01*
X146188Y159827D01*
X146175Y159897D01*
X146158Y159967D01*
X146137Y160035D01*
X146113Y160102D01*
X146085Y160168D01*
X146054Y160232D01*
X146019Y160295D01*
X145981Y160355D01*
X145940Y160414D01*
X145896Y160470D01*
X145849Y160524D01*
X145800Y160575D01*
X145747Y160623D01*
X145692Y160669D01*
X145635Y160711D01*
X145575Y160751D01*
X145514Y160787D01*
X145450Y160820D01*
X145385Y160849D01*
X145319Y160875D01*
X145251Y160898D01*
X145182Y160917D01*
X145112Y160932D01*
X145042Y160943D01*
X144971Y160951D01*
X144900Y160955D01*
X144828Y160955D01*
X144757Y160951D01*
X144686Y160943D01*
X144616Y160932D01*
X144546Y160917D01*
X144477Y160898D01*
X144409Y160875D01*
X144343Y160849D01*
X144278Y160820D01*
X144214Y160787D01*
X144153Y160751D01*
X144093Y160711D01*
X144036Y160669D01*
X143981Y160623D01*
X143928Y160575D01*
X143879Y160524D01*
X143832Y160470D01*
X143788Y160414D01*
X143747Y160355D01*
X143709Y160295D01*
X143674Y160232D01*
X143643Y160168D01*
X143615Y160102D01*
X143591Y160035D01*
X143570Y159967D01*
X143553Y159897D01*
X143540Y159827D01*
X143531Y159757D01*
X143525Y159685D01*
X143523Y159614D01*
X141379Y159882D02*
X141379Y158273D01*
X141379Y159882D02*
X141381Y159947D01*
X141387Y160011D01*
X141397Y160075D01*
X141410Y160139D01*
X141428Y160201D01*
X141449Y160262D01*
X141473Y160322D01*
X141502Y160380D01*
X141534Y160437D01*
X141569Y160491D01*
X141607Y160543D01*
X141649Y160593D01*
X141693Y160640D01*
X141740Y160684D01*
X141790Y160726D01*
X141842Y160764D01*
X141896Y160799D01*
X141953Y160831D01*
X142011Y160860D01*
X142071Y160884D01*
X142132Y160905D01*
X142194Y160923D01*
X142258Y160936D01*
X142322Y160946D01*
X142386Y160952D01*
X142451Y160954D01*
X142516Y160952D01*
X142580Y160946D01*
X142644Y160936D01*
X142708Y160923D01*
X142770Y160905D01*
X142831Y160884D01*
X142891Y160860D01*
X142949Y160831D01*
X143006Y160799D01*
X143060Y160764D01*
X143112Y160726D01*
X143162Y160684D01*
X143209Y160640D01*
X143253Y160593D01*
X143295Y160543D01*
X143333Y160491D01*
X143368Y160437D01*
X143400Y160380D01*
X143429Y160322D01*
X143453Y160262D01*
X143474Y160201D01*
X143492Y160139D01*
X143505Y160075D01*
X143515Y160011D01*
X143521Y159947D01*
X143523Y159882D01*
X143524Y159882D02*
X143524Y158809D01*
X146205Y163759D02*
X146205Y165100D01*
X146203Y165171D01*
X146197Y165243D01*
X146188Y165313D01*
X146175Y165383D01*
X146158Y165453D01*
X146137Y165521D01*
X146113Y165588D01*
X146085Y165654D01*
X146054Y165718D01*
X146019Y165781D01*
X145981Y165841D01*
X145940Y165900D01*
X145896Y165956D01*
X145849Y166010D01*
X145800Y166061D01*
X145747Y166109D01*
X145692Y166155D01*
X145635Y166197D01*
X145575Y166237D01*
X145514Y166273D01*
X145450Y166306D01*
X145385Y166335D01*
X145319Y166361D01*
X145251Y166384D01*
X145182Y166403D01*
X145112Y166418D01*
X145042Y166429D01*
X144971Y166437D01*
X144900Y166441D01*
X144828Y166441D01*
X144757Y166437D01*
X144686Y166429D01*
X144616Y166418D01*
X144546Y166403D01*
X144477Y166384D01*
X144409Y166361D01*
X144343Y166335D01*
X144278Y166306D01*
X144214Y166273D01*
X144153Y166237D01*
X144093Y166197D01*
X144036Y166155D01*
X143981Y166109D01*
X143928Y166061D01*
X143879Y166010D01*
X143832Y165956D01*
X143788Y165900D01*
X143747Y165841D01*
X143709Y165781D01*
X143674Y165718D01*
X143643Y165654D01*
X143615Y165588D01*
X143591Y165521D01*
X143570Y165453D01*
X143553Y165383D01*
X143540Y165313D01*
X143531Y165243D01*
X143525Y165171D01*
X143523Y165100D01*
X141379Y165368D02*
X141379Y163759D01*
X141379Y165368D02*
X141381Y165433D01*
X141387Y165497D01*
X141397Y165561D01*
X141410Y165625D01*
X141428Y165687D01*
X141449Y165748D01*
X141473Y165808D01*
X141502Y165866D01*
X141534Y165923D01*
X141569Y165977D01*
X141607Y166029D01*
X141649Y166079D01*
X141693Y166126D01*
X141740Y166170D01*
X141790Y166212D01*
X141842Y166250D01*
X141896Y166285D01*
X141953Y166317D01*
X142011Y166346D01*
X142071Y166370D01*
X142132Y166391D01*
X142194Y166409D01*
X142258Y166422D01*
X142322Y166432D01*
X142386Y166438D01*
X142451Y166440D01*
X142516Y166438D01*
X142580Y166432D01*
X142644Y166422D01*
X142708Y166409D01*
X142770Y166391D01*
X142831Y166370D01*
X142891Y166346D01*
X142949Y166317D01*
X143006Y166285D01*
X143060Y166250D01*
X143112Y166212D01*
X143162Y166170D01*
X143209Y166126D01*
X143253Y166079D01*
X143295Y166029D01*
X143333Y165977D01*
X143368Y165923D01*
X143400Y165866D01*
X143429Y165808D01*
X143453Y165748D01*
X143474Y165687D01*
X143492Y165625D01*
X143505Y165561D01*
X143515Y165497D01*
X143521Y165433D01*
X143523Y165368D01*
X143524Y165368D02*
X143524Y164296D01*
X143792Y169246D02*
X143672Y169248D01*
X143552Y169253D01*
X143432Y169262D01*
X143312Y169275D01*
X143193Y169291D01*
X143074Y169311D01*
X142956Y169335D01*
X142839Y169362D01*
X142723Y169392D01*
X142608Y169426D01*
X142493Y169464D01*
X142380Y169505D01*
X142269Y169549D01*
X142158Y169597D01*
X142049Y169648D01*
X141992Y169669D01*
X141936Y169695D01*
X141881Y169723D01*
X141829Y169755D01*
X141778Y169791D01*
X141730Y169829D01*
X141684Y169870D01*
X141641Y169914D01*
X141601Y169960D01*
X141564Y170009D01*
X141530Y170061D01*
X141499Y170114D01*
X141471Y170169D01*
X141447Y170225D01*
X141426Y170283D01*
X141409Y170342D01*
X141396Y170402D01*
X141387Y170463D01*
X141381Y170525D01*
X141379Y170586D01*
X141381Y170647D01*
X141387Y170709D01*
X141396Y170770D01*
X141409Y170830D01*
X141426Y170889D01*
X141447Y170947D01*
X141471Y171003D01*
X141499Y171058D01*
X141530Y171111D01*
X141564Y171163D01*
X141601Y171212D01*
X141641Y171258D01*
X141684Y171302D01*
X141730Y171343D01*
X141778Y171381D01*
X141829Y171417D01*
X141881Y171449D01*
X141936Y171477D01*
X141992Y171503D01*
X142049Y171524D01*
X142049Y171525D02*
X142158Y171576D01*
X142269Y171624D01*
X142380Y171668D01*
X142493Y171709D01*
X142608Y171747D01*
X142723Y171781D01*
X142839Y171811D01*
X142956Y171838D01*
X143074Y171862D01*
X143193Y171882D01*
X143312Y171898D01*
X143432Y171911D01*
X143552Y171920D01*
X143672Y171925D01*
X143792Y171927D01*
X143792Y169246D02*
X143912Y169248D01*
X144032Y169253D01*
X144152Y169262D01*
X144272Y169275D01*
X144391Y169291D01*
X144510Y169311D01*
X144628Y169335D01*
X144745Y169362D01*
X144861Y169392D01*
X144976Y169426D01*
X145091Y169464D01*
X145204Y169505D01*
X145315Y169549D01*
X145426Y169597D01*
X145535Y169648D01*
X145592Y169669D01*
X145648Y169695D01*
X145703Y169723D01*
X145755Y169755D01*
X145806Y169791D01*
X145854Y169829D01*
X145900Y169870D01*
X145943Y169914D01*
X145983Y169960D01*
X146020Y170009D01*
X146054Y170061D01*
X146085Y170114D01*
X146113Y170169D01*
X146137Y170225D01*
X146158Y170283D01*
X146175Y170342D01*
X146188Y170402D01*
X146197Y170463D01*
X146203Y170525D01*
X146205Y170586D01*
X145535Y171525D02*
X145426Y171576D01*
X145315Y171624D01*
X145204Y171668D01*
X145091Y171709D01*
X144976Y171747D01*
X144861Y171781D01*
X144745Y171811D01*
X144628Y171838D01*
X144510Y171862D01*
X144391Y171882D01*
X144272Y171898D01*
X144152Y171911D01*
X144032Y171920D01*
X143912Y171925D01*
X143792Y171927D01*
X145535Y171524D02*
X145592Y171503D01*
X145648Y171477D01*
X145703Y171449D01*
X145755Y171417D01*
X145806Y171381D01*
X145854Y171343D01*
X145900Y171302D01*
X145943Y171258D01*
X145983Y171211D01*
X146020Y171163D01*
X146054Y171111D01*
X146085Y171058D01*
X146113Y171003D01*
X146137Y170947D01*
X146158Y170889D01*
X146175Y170830D01*
X146188Y170770D01*
X146197Y170709D01*
X146203Y170647D01*
X146205Y170586D01*
X145133Y169514D02*
X142451Y171659D01*
D11*
X141600Y248920D02*
X192400Y248920D01*
X192400Y241300D01*
X192400Y233680D01*
X141600Y233680D01*
X141600Y241300D01*
X141600Y248920D01*
X192400Y241300D02*
X194940Y241300D01*
X141600Y241300D02*
X139060Y241300D01*
D12*
X162948Y252095D02*
X162948Y256921D01*
X164289Y256921D01*
X164360Y256919D01*
X164432Y256913D01*
X164502Y256904D01*
X164572Y256891D01*
X164642Y256874D01*
X164710Y256853D01*
X164777Y256829D01*
X164843Y256801D01*
X164907Y256770D01*
X164970Y256735D01*
X165030Y256697D01*
X165089Y256656D01*
X165145Y256612D01*
X165199Y256565D01*
X165250Y256516D01*
X165298Y256463D01*
X165344Y256408D01*
X165386Y256351D01*
X165426Y256291D01*
X165462Y256230D01*
X165495Y256166D01*
X165524Y256101D01*
X165550Y256035D01*
X165573Y255967D01*
X165592Y255898D01*
X165607Y255828D01*
X165618Y255758D01*
X165626Y255687D01*
X165630Y255616D01*
X165630Y255544D01*
X165626Y255473D01*
X165618Y255402D01*
X165607Y255332D01*
X165592Y255262D01*
X165573Y255193D01*
X165550Y255125D01*
X165524Y255059D01*
X165495Y254994D01*
X165462Y254930D01*
X165426Y254869D01*
X165386Y254809D01*
X165344Y254752D01*
X165298Y254697D01*
X165250Y254644D01*
X165199Y254595D01*
X165145Y254548D01*
X165089Y254504D01*
X165030Y254463D01*
X164970Y254425D01*
X164907Y254390D01*
X164843Y254359D01*
X164777Y254331D01*
X164710Y254307D01*
X164642Y254286D01*
X164572Y254269D01*
X164502Y254256D01*
X164432Y254247D01*
X164360Y254241D01*
X164289Y254239D01*
X164289Y254240D02*
X162948Y254240D01*
X164557Y254240D02*
X165629Y252095D01*
X168371Y252095D02*
X169979Y252095D01*
X170044Y252097D01*
X170108Y252103D01*
X170172Y252113D01*
X170236Y252126D01*
X170298Y252144D01*
X170359Y252165D01*
X170419Y252189D01*
X170477Y252218D01*
X170534Y252250D01*
X170588Y252285D01*
X170640Y252323D01*
X170690Y252365D01*
X170737Y252409D01*
X170781Y252456D01*
X170823Y252506D01*
X170861Y252558D01*
X170896Y252612D01*
X170928Y252669D01*
X170957Y252727D01*
X170981Y252787D01*
X171002Y252848D01*
X171020Y252910D01*
X171033Y252974D01*
X171043Y253038D01*
X171049Y253102D01*
X171051Y253167D01*
X171052Y253167D02*
X171052Y253704D01*
X171051Y253704D02*
X171049Y253769D01*
X171043Y253833D01*
X171033Y253897D01*
X171020Y253961D01*
X171002Y254023D01*
X170981Y254084D01*
X170957Y254144D01*
X170928Y254202D01*
X170896Y254259D01*
X170861Y254313D01*
X170823Y254365D01*
X170781Y254415D01*
X170737Y254462D01*
X170690Y254506D01*
X170640Y254548D01*
X170588Y254586D01*
X170534Y254621D01*
X170477Y254653D01*
X170419Y254682D01*
X170359Y254706D01*
X170298Y254727D01*
X170236Y254745D01*
X170172Y254758D01*
X170108Y254768D01*
X170044Y254774D01*
X169979Y254776D01*
X168371Y254776D01*
X168371Y256921D01*
X171052Y256921D01*
X164424Y230505D02*
X163083Y229433D01*
X164424Y230505D02*
X164424Y225679D01*
X165764Y225679D02*
X163083Y225679D01*
X168772Y225679D02*
X168772Y230505D01*
X170917Y228896D02*
X168772Y227288D01*
X169710Y227958D02*
X170917Y225679D01*
D11*
X187800Y162720D02*
X238600Y162720D01*
X238600Y155100D01*
X238600Y147480D01*
X187800Y147480D01*
X187800Y155100D01*
X187800Y162720D01*
X238600Y155100D02*
X241140Y155100D01*
X187800Y155100D02*
X185260Y155100D01*
D12*
X209148Y165895D02*
X209148Y170721D01*
X210489Y170721D01*
X210560Y170719D01*
X210632Y170713D01*
X210702Y170704D01*
X210772Y170691D01*
X210842Y170674D01*
X210910Y170653D01*
X210977Y170629D01*
X211043Y170601D01*
X211107Y170570D01*
X211170Y170535D01*
X211230Y170497D01*
X211289Y170456D01*
X211345Y170412D01*
X211399Y170365D01*
X211450Y170316D01*
X211498Y170263D01*
X211544Y170208D01*
X211586Y170151D01*
X211626Y170091D01*
X211662Y170030D01*
X211695Y169966D01*
X211724Y169901D01*
X211750Y169835D01*
X211773Y169767D01*
X211792Y169698D01*
X211807Y169628D01*
X211818Y169558D01*
X211826Y169487D01*
X211830Y169416D01*
X211830Y169344D01*
X211826Y169273D01*
X211818Y169202D01*
X211807Y169132D01*
X211792Y169062D01*
X211773Y168993D01*
X211750Y168925D01*
X211724Y168859D01*
X211695Y168794D01*
X211662Y168730D01*
X211626Y168669D01*
X211586Y168609D01*
X211544Y168552D01*
X211498Y168497D01*
X211450Y168444D01*
X211399Y168395D01*
X211345Y168348D01*
X211289Y168304D01*
X211230Y168263D01*
X211170Y168225D01*
X211107Y168190D01*
X211043Y168159D01*
X210977Y168131D01*
X210910Y168107D01*
X210842Y168086D01*
X210772Y168069D01*
X210702Y168056D01*
X210632Y168047D01*
X210560Y168041D01*
X210489Y168039D01*
X210489Y168040D02*
X209148Y168040D01*
X210757Y168040D02*
X211829Y165895D01*
X214571Y168576D02*
X216179Y168576D01*
X216244Y168574D01*
X216308Y168568D01*
X216372Y168558D01*
X216436Y168545D01*
X216498Y168527D01*
X216559Y168506D01*
X216619Y168482D01*
X216677Y168453D01*
X216734Y168421D01*
X216788Y168386D01*
X216840Y168348D01*
X216890Y168306D01*
X216937Y168262D01*
X216981Y168215D01*
X217023Y168165D01*
X217061Y168113D01*
X217096Y168059D01*
X217128Y168002D01*
X217157Y167944D01*
X217181Y167884D01*
X217202Y167823D01*
X217220Y167761D01*
X217233Y167697D01*
X217243Y167633D01*
X217249Y167569D01*
X217251Y167504D01*
X217252Y167504D02*
X217252Y167236D01*
X217250Y167165D01*
X217244Y167093D01*
X217235Y167023D01*
X217222Y166953D01*
X217205Y166883D01*
X217184Y166815D01*
X217160Y166748D01*
X217132Y166682D01*
X217101Y166618D01*
X217066Y166555D01*
X217028Y166495D01*
X216987Y166436D01*
X216943Y166380D01*
X216896Y166326D01*
X216847Y166275D01*
X216794Y166227D01*
X216739Y166181D01*
X216682Y166139D01*
X216622Y166099D01*
X216561Y166063D01*
X216497Y166030D01*
X216432Y166001D01*
X216366Y165975D01*
X216298Y165952D01*
X216229Y165933D01*
X216159Y165918D01*
X216089Y165907D01*
X216018Y165899D01*
X215947Y165895D01*
X215875Y165895D01*
X215804Y165899D01*
X215733Y165907D01*
X215663Y165918D01*
X215593Y165933D01*
X215524Y165952D01*
X215456Y165975D01*
X215390Y166001D01*
X215325Y166030D01*
X215261Y166063D01*
X215200Y166099D01*
X215140Y166139D01*
X215083Y166181D01*
X215028Y166227D01*
X214975Y166275D01*
X214926Y166326D01*
X214879Y166380D01*
X214835Y166436D01*
X214794Y166495D01*
X214756Y166555D01*
X214721Y166618D01*
X214690Y166682D01*
X214662Y166748D01*
X214638Y166815D01*
X214617Y166883D01*
X214600Y166953D01*
X214587Y167023D01*
X214578Y167093D01*
X214572Y167165D01*
X214570Y167236D01*
X214571Y167236D02*
X214571Y168576D01*
X214573Y168667D01*
X214579Y168758D01*
X214588Y168848D01*
X214602Y168939D01*
X214619Y169028D01*
X214640Y169116D01*
X214665Y169204D01*
X214694Y169291D01*
X214726Y169376D01*
X214761Y169460D01*
X214801Y169542D01*
X214843Y169622D01*
X214889Y169701D01*
X214939Y169777D01*
X214991Y169851D01*
X215047Y169924D01*
X215106Y169993D01*
X215167Y170060D01*
X215232Y170125D01*
X215299Y170186D01*
X215368Y170245D01*
X215440Y170301D01*
X215515Y170353D01*
X215591Y170403D01*
X215670Y170449D01*
X215750Y170491D01*
X215832Y170531D01*
X215916Y170566D01*
X216001Y170598D01*
X216088Y170627D01*
X216175Y170652D01*
X216264Y170673D01*
X216353Y170690D01*
X216444Y170704D01*
X216534Y170713D01*
X216625Y170719D01*
X216716Y170721D01*
X210624Y144305D02*
X209283Y143233D01*
X210624Y144305D02*
X210624Y139479D01*
X211964Y139479D02*
X209283Y139479D01*
X214972Y139479D02*
X214972Y144305D01*
X217117Y142696D02*
X214972Y141088D01*
X215910Y141758D02*
X217117Y139479D01*
D15*
X333000Y230000D02*
X333038Y233117D01*
X333153Y236232D01*
X333344Y239343D01*
X333612Y242448D01*
X333955Y245546D01*
X334375Y248635D01*
X334870Y251712D01*
X335440Y254776D01*
X336086Y257826D01*
X336806Y260858D01*
X337600Y263873D01*
X338469Y266866D01*
X339410Y269838D01*
X340424Y272785D01*
X341510Y275707D01*
X342667Y278601D01*
X343895Y281466D01*
X345193Y284299D01*
X346561Y287101D01*
X347996Y289867D01*
X349499Y292598D01*
X351068Y295291D01*
X352704Y297945D01*
X354403Y300557D01*
X356167Y303128D01*
X357993Y305654D01*
X359880Y308134D01*
X361828Y310568D01*
X363834Y312953D01*
X365899Y315288D01*
X368021Y317572D01*
X370197Y319803D01*
X372428Y321979D01*
X374712Y324101D01*
X377047Y326166D01*
X379432Y328172D01*
X381866Y330120D01*
X384346Y332007D01*
X386872Y333833D01*
X389443Y335597D01*
X392055Y337296D01*
X394709Y338932D01*
X397402Y340501D01*
X400133Y342004D01*
X402899Y343439D01*
X405701Y344807D01*
X408534Y346105D01*
X411399Y347333D01*
X414293Y348490D01*
X417215Y349576D01*
X420162Y350590D01*
X423134Y351531D01*
X426127Y352400D01*
X429142Y353194D01*
X432174Y353914D01*
X435224Y354560D01*
X438288Y355130D01*
X441365Y355625D01*
X444454Y356045D01*
X447552Y356388D01*
X450657Y356656D01*
X453768Y356847D01*
X456883Y356962D01*
X460000Y357000D01*
X463117Y356962D01*
X466232Y356847D01*
X469343Y356656D01*
X472448Y356388D01*
X475546Y356045D01*
X478635Y355625D01*
X481712Y355130D01*
X484776Y354560D01*
X487826Y353914D01*
X490858Y353194D01*
X493873Y352400D01*
X496866Y351531D01*
X499838Y350590D01*
X502785Y349576D01*
X505707Y348490D01*
X508601Y347333D01*
X511466Y346105D01*
X514299Y344807D01*
X517101Y343439D01*
X519867Y342004D01*
X522598Y340501D01*
X525291Y338932D01*
X527945Y337296D01*
X530557Y335597D01*
X533128Y333833D01*
X535654Y332007D01*
X538134Y330120D01*
X540568Y328172D01*
X542953Y326166D01*
X545288Y324101D01*
X547572Y321979D01*
X549803Y319803D01*
X551979Y317572D01*
X554101Y315288D01*
X556166Y312953D01*
X558172Y310568D01*
X560120Y308134D01*
X562007Y305654D01*
X563833Y303128D01*
X565597Y300557D01*
X567296Y297945D01*
X568932Y295291D01*
X570501Y292598D01*
X572004Y289867D01*
X573439Y287101D01*
X574807Y284299D01*
X576105Y281466D01*
X577333Y278601D01*
X578490Y275707D01*
X579576Y272785D01*
X580590Y269838D01*
X581531Y266866D01*
X582400Y263873D01*
X583194Y260858D01*
X583914Y257826D01*
X584560Y254776D01*
X585130Y251712D01*
X585625Y248635D01*
X586045Y245546D01*
X586388Y242448D01*
X586656Y239343D01*
X586847Y236232D01*
X586962Y233117D01*
X587000Y230000D01*
X586962Y226883D01*
X586847Y223768D01*
X586656Y220657D01*
X586388Y217552D01*
X586045Y214454D01*
X585625Y211365D01*
X585130Y208288D01*
X584560Y205224D01*
X583914Y202174D01*
X583194Y199142D01*
X582400Y196127D01*
X581531Y193134D01*
X580590Y190162D01*
X579576Y187215D01*
X578490Y184293D01*
X577333Y181399D01*
X576105Y178534D01*
X574807Y175701D01*
X573439Y172899D01*
X572004Y170133D01*
X570501Y167402D01*
X568932Y164709D01*
X567296Y162055D01*
X565597Y159443D01*
X563833Y156872D01*
X562007Y154346D01*
X560120Y151866D01*
X558172Y149432D01*
X556166Y147047D01*
X554101Y144712D01*
X551979Y142428D01*
X549803Y140197D01*
X547572Y138021D01*
X545288Y135899D01*
X542953Y133834D01*
X540568Y131828D01*
X538134Y129880D01*
X535654Y127993D01*
X533128Y126167D01*
X530557Y124403D01*
X527945Y122704D01*
X525291Y121068D01*
X522598Y119499D01*
X519867Y117996D01*
X517101Y116561D01*
X514299Y115193D01*
X511466Y113895D01*
X508601Y112667D01*
X505707Y111510D01*
X502785Y110424D01*
X499838Y109410D01*
X496866Y108469D01*
X493873Y107600D01*
X490858Y106806D01*
X487826Y106086D01*
X484776Y105440D01*
X481712Y104870D01*
X478635Y104375D01*
X475546Y103955D01*
X472448Y103612D01*
X469343Y103344D01*
X466232Y103153D01*
X463117Y103038D01*
X460000Y103000D01*
X456883Y103038D01*
X453768Y103153D01*
X450657Y103344D01*
X447552Y103612D01*
X444454Y103955D01*
X441365Y104375D01*
X438288Y104870D01*
X435224Y105440D01*
X432174Y106086D01*
X429142Y106806D01*
X426127Y107600D01*
X423134Y108469D01*
X420162Y109410D01*
X417215Y110424D01*
X414293Y111510D01*
X411399Y112667D01*
X408534Y113895D01*
X405701Y115193D01*
X402899Y116561D01*
X400133Y117996D01*
X397402Y119499D01*
X394709Y121068D01*
X392055Y122704D01*
X389443Y124403D01*
X386872Y126167D01*
X384346Y127993D01*
X381866Y129880D01*
X379432Y131828D01*
X377047Y133834D01*
X374712Y135899D01*
X372428Y138021D01*
X370197Y140197D01*
X368021Y142428D01*
X365899Y144712D01*
X363834Y147047D01*
X361828Y149432D01*
X359880Y151866D01*
X357993Y154346D01*
X356167Y156872D01*
X354403Y159443D01*
X352704Y162055D01*
X351068Y164709D01*
X349499Y167402D01*
X347996Y170133D01*
X346561Y172899D01*
X345193Y175701D01*
X343895Y178534D01*
X342667Y181399D01*
X341510Y184293D01*
X340424Y187215D01*
X339410Y190162D01*
X338469Y193134D01*
X337600Y196127D01*
X336806Y199142D01*
X336086Y202174D01*
X335440Y205224D01*
X334870Y208288D01*
X334375Y211365D01*
X333955Y214454D01*
X333612Y217552D01*
X333344Y220657D01*
X333153Y223768D01*
X333038Y226883D01*
X333000Y230000D01*
D13*
X187450Y86500D02*
X187450Y1500D01*
X83350Y1500D01*
X83350Y86500D01*
X187450Y86500D01*
X307450Y86500D02*
X307450Y1500D01*
X203350Y1500D01*
X203350Y86500D01*
X307450Y86500D01*
X427450Y86500D02*
X427450Y1500D01*
X323350Y1500D01*
X323350Y86500D01*
X427450Y86500D01*
M02*
