M48
;GenerationSoftware,Autodesk,EAGLE,9.7.0*%
;CreationDate,2021-12-08T05:35:12Z*%
FMAT,2
ICI,OFF
METRIC,TZ,000.000
T7C0.640
T6C0.700
T5C0.813
T4C0.900
T3C1.200
T2C3.000
%
G90
M71
T2
X57000Y42000
X3000Y42000
X3000Y3000
X57000Y3000
T3
X40080Y4400
X11000Y4400
X16080Y4400
X23000Y4400
X28080Y4400
X35000Y4400
T4
X12700Y20320
X28210Y41910
X20590Y41910
X31750Y41910
X31750Y34290
X11570Y32630
X11570Y40250
X12700Y12700
X12890Y24130
X17510Y15510
X25130Y15510
X46000Y30600
X46000Y15400
X20510Y24130
T5
X24130Y34290
X24130Y36830
X16510Y29210
X24130Y31750
X24130Y29210
X25400Y20320
X27940Y22860
X25400Y22860
X16510Y31750
X16510Y36830
X16510Y34290
T6
X29480Y30460
X29480Y27960
T7
X3600Y28750
X3600Y31250
X3600Y15860
X3600Y13360
X3600Y18360
M30